<mxfile host="app.diagrams.net" agent="Mozilla/5.0 (Windows NT 10.0; Win64; x64) AppleWebKit/537.36 (KHTML, like Gecko) Chrome/128.0.0.0 Safari/537.36" version="24.7.10">
  <diagram name="第 1 页" id="hIk1MtXzz6ASnjSkO5Mm">
    <mxGraphModel dx="1434" dy="738" grid="1" gridSize="10" guides="1" tooltips="1" connect="1" arrows="1" fold="1" page="1" pageScale="1" pageWidth="827" pageHeight="1169" math="0" shadow="0">
      <root>
        <mxCell id="0" />
        <mxCell id="1" parent="0" />
        <mxCell id="sszjmoWaSEkYSq47d2Ko-2" value="" style="shape=image;verticalLabelPosition=bottom;labelBackgroundColor=default;verticalAlign=top;aspect=fixed;imageAspect=0;image=data:image/png,iVBORw0KGgoAAAANSUhEUgAAAnoAAAH4CAIAAABSWNcVAAAgAElEQVR4Aey9B1gU2ba/fcI9/3vvmTtzZubMHMecgM6JjKTuqupugjliFkVFxJxzDmPOiZxj06TOAcw66pjzmHNAVGLTob5vVwGioqMzIN2wffbTT1NdvWvXbxe+rLXXXusvOPwHFYAKQAWgAlABqEAjK/CXRu4fdg8VgApABaACUAGoAA5xCx8CqABUACoAFYAKNLoCfzHDf1ABqABUACoAFYAKNLICELeNLDDsHioAFYAKQAWgAmbzXwxGI2xQAagAVAAqABWACjSqAn+phP+gAlABqABUACoAFWhkBf5SYTDABhWACkAFoAJQAahAoyrwl9LyctigAlABqABUACoAFWhUBeBGoEYP/m7aC5SXli+ctzAlKeV3hyGVSF0cXey72FPsKN0Dely9fPWdr8RExjCojPZt2rdt3Q5DsDOnzrxzQt0fr125HjQg6Miho3UPwvdQAagAVKDFKgBx28ynvvRV6eTwydER0b97n4lxiRQ7Ssd2HTu07eDu6hEfm3Dx3MXbN28/evDo1o1bmamZAeKAtq3btW3drnWr1kMHD3v04NFH+rx6+WqAOODwwSMfOQd+BBWACkAFWo4CELfNfK5LXpaETwjfvWP379ynBd+9Y3fnjp1bt2rd5qc2Hdp2cHV29fLwQvloj8Cegf6BXDaP/Kh1q9ZMGnPblm2GcsNH+jx35lyAOODkL6c+cg78CCoAFYAKtBwFIG6b+VyXl5ZPmzJ95fKVH79PU5Vp2eJlpOXaulXrn378qdUPrb775rvvvvnuh+9//Pd3//7h+x9/+vGn1q1ad+rQaVLYpGtXrn+8Q3m+3F/kf+XilY+fBj+FCkAFoAItRAGI22Y+0WajefXKNSHBIVUVVR+51bLXZVMmTWndqnXb1u1I1rb6odW3X3/79Vdff/3V11/971dff/V1qx9a0Si0CeMngFVby0c6Ax/t2r6rb+++9+/c/53z4MdQAagAVKBlKABx2/znOS0lvUdgz1u/3frIrb4ufj1qxKjWrVq3b9O+Q9sOvXv0njZl+qSwSaNHje7Xp1+gX+CQoCHLlyzPkeZ+CkEryionhk6cHD655GXJRy4KP4IKQAWgAi1HAYjb5j/XZ38926t7L1me7CO3+vzJ8x6BPVv90KrNT226dOoasTeyqqLKVGUqfVX67PGzRw8evXj+4uP2cd3Or1y6gvLRmMgYs9Fc9zh8DxWACkAFWqwCELfNf+pfvng1YfyEyeGTjQYjuNv6/MB3bt1BfJFWP7Rq3aq1XWe7rMysP66LGY+OiPbx8jl35twf7wR+EyoAFYAKNC8FIG6b13x+4G7iY+O9Pb2PfngX7JlTZ1ydXb//9vvvvvnOvov9fv3+D/T0+4cf3n84MXRi+ITwT7eGf79TeEaLV8BisZS+Ln366Cl0mbT4Z8FWBYC4tdWZ+6xx3719L0AcMH/O/A8tpuq1Be3atP/7X//+97/+vUunLtUpLCyEKVzXGn7/yDvjsOAquapPzz5qhfqdT+CPUIE/oIDFYrGYLS+eFyvyFZPCJs2eMftTogf+wIXgV6ACja0AxG1jK2wt/UdFRPuL/HUafb0DOvvr2d49+7i7uLMZbL+6G3hIvtb7nfoOPn30dOmipUsXL/v4rtz6vgqPQQXeKEBS9mXRyzO/nomNjg2fEN4jsMfokaNTElMqyirfnAffQQVsRwGIW9uZqz830mePn00JnzJ31tyH9x++35Ox0njx/KVTJ349fPDw8SPHy16XvX8OOEJaunXt3TrnVZZVJsQmhI4NPVh4sM5h+BYq8BkKWCwWo8F499bdXGnussXLxo4eGxYatm7NOqVc9ejBI4vpM7qCp0IFrEoBiFurmo7GHcyBggPBI4N379xdVfmxPbh/bBAWs6VQVzg0aOj2rduLi4r/WCfwWy1ZAYvFUlZSfuLYyZ3bdo4PGT9syLDZM2YnJyRfv/objANoyQ9Gs7l3iNtmM5W/fyPlpeV7d+3tHtA9ITahYeNNLBbLxXMXg0cGz5k5586tO7i5xg7+/UHBM1q6AmBx1mx+8vCJSq6aP2d+n559evfss2bVmiOHjhY9Lao3kL6lSwbv3zYVgLi1zXn7o6N+8ujJ0sXLMAGWkpTaUMurZqPl7Olzk8MnB48MvnDu4h8dGvxey1LAYsEtFouhwnDt8rXEuMSJoRMD/QJHDR8VuS/y5vWbbzmNzTj4EW7hblkPSDO8W4jbZjipH7+lJ4+eLFuyvEdgj6h9UU8fPbVYPrAS+/FeiE9J759WrRsfMn7ihIknjp1oWKP5E4YAT7FJBQzlhof3Hx0+cHjDuo0gc1nvfgvnLdSqtE8ePXkLq5Ya0EJ/iU3OMxz0WwpA3L4lRwv54enjZ+vXrh88cPCqFat/OXaiorTis6Frwc1m84N7D5ITk4NHBs+cPuvc6XMfD6RqIdrC2/xdBV48f5Gekj5r+qzgEcHTpkyLi4779eTp18Wv3/0iGRVvJuxaiNt31YE/254CELe2N2cNMuIXRS8k6ZLQsaFDBw/ds2vPzd9umYymT4Su2Wx++vipUqacNmV6yOiQ7Vu237x+s0FGBTtp/gqYwc7sQf0HLV6wWKvS3rtz31T10WhjSw1uoTO5+T8czfwOIW6b+QR/7PYs+PWrv61dvVaICAP9Ands3XH+zPmqqiqT0WQ2m8HGxzr/zGazyWQyGo3PnjzLleaGjgv18fSZNHHywcKDH9w19LFrw89aqALlpRXr1q4LC534/MnzT5Kg1sb944sen3QdeBJUoLEVgLhtbIWtr/+3M1eYqkz7Cw4sXbS0V49ePQJ6TAqbtHHdxryc/PNnzt+4fuPWb7d+u/bb6VNn1Ep1TFTM4oVLRo8aPWzIsPCw8NSk1HocgNZ3u3BEVqXA7Zu3Q4JD9uzc86mjIh/Xtx/aT/0uPA8qYE0KQNxa02x8sbG895+Xodxw8fzFpITksPFhnTt29vXyDR4RPDRo6MD+Awf0GzCg74B+vfsNHzp8xrQZu3bsOnLoCDBNoLXR+PNF+hca/zpf6AoWEy7Lkw8fMvzo4WOfccn3HtfP+C48FSpgNQpA3FrNVFjHQA4dOOTp7rl+7frDBw5rVBpZrkyRr9CqtceOHL925drL4lcw9vgLTRTYjWp69vDhrevXzZWGL3TRRr5MZVnl+p83hI4Nffr4WSNfCnYPFbA6BSBurW5KmnZAWrXW093z15Onm3YYLfvqFrPRWPLoUWFe7uywCWOCBqlzcsymOvFENutXeHj/YUhwyJpVa42VRC3Ilj3N8O5bmgIQty1txn/nfmOj4/g+gof36smr/DvfhB83gALApDW+LPpVpVw1McyPQXdr/ZN7u7aDBYLjCsVbxG2AazVBF8cOHwsaEKTIVzTBteEloQJNrQDEbVPPgDVd31hpnDd73oB+A8tLy8G4bNaKsiZRP2EsFjNuNprNVcbS4stH9u9bMn+Up9sAh67juZwlKLoIEw6mUUP4Pkeys0zlHygd8QkXafpTLPieXXtGjxp99/bdph8MHAFU4IsrAHH7xSW34guWviodO3rs9KkzIGgbf5bI/aQm3FJlNpaXPXtw+fj+qDVLQ/34QfTOoSz7tQLPvf7ChF7dY3v2WO3jNdyu80SMX5CaZCp51fhja5QrvC5+PXb02BVLV7yVoLFRLgU7hQpYowIQt9Y4K001pvt37vft3Xfzxs1NNYCWcd03W1ss5oqy4gdnD6mj1yya0hMNYnWZ6Ez9GXGN8vdOC/CRCL1yxPxsfyzVD9vo7T6G0nmSSKBNTTSVl9qiUCeOnxRh4hxpji0OHo4ZKvDnFYC4/fMaNp8eTv5yCkOw/Jz85nNL1ngnIC2hxWI0Gl/9dvZo5NpF4/y8BtI6jGd1WuHDiwz0Tu/hk+PfTYY5KxEnFeKqEnrKxL6ZAcgmvlsIvcsEoS8gboWNeZUtFsseohrV7Zu3rXFO4JigAo2vAMRt42tsO1fIzsoWosLLFy7bzpBta6QkaKtMhuLHty9mRm8LCfQN6PTDSPs2K91YUai7NMBb7u+pErtphU5ahKMVsDUCthZ11IrcFP6eaQHe6715Q7q0GejIlCfGGivL8T9RXuILC/fieXHQwKCJEya+VYHgCw8CXg4q0KQKQNw2qfzWdHFTlWnblm39+vSDxeEbYVpAin2LuaqytOjutTM5MTvmjeo31I0xitNlqa9ThJ+XxN9HIfbUiz32C533Y7z9KLsAYeoFdJ2ArkOYepSjETrlid2SxO5rvbgjKO2HufOyo3ZXFj+zFeLu1+/38fJJSUxpBG1hl1AB21AA4tY25ukLjLLsddnsmXPCQifCOKkGV9tiMZkqS+5dPZcXv2/+yAGjPdihjg6LPTl7xJ4ZPfi5/l4qkZseI0CLsPYjrP0oswChFyA0PULTIXQdwtBibJXIMcfPNdmv2zbMfQLXfqyvS9bebRUvHlt/BLnFZNm6eVuvHr1v34Ce5AZ/uGCHNqMAxK3NTFVjD/T5k+fjxoxbsXRFY1+oZfVvsZiMVc9uXVWnxCwJGTrakxfM6brAg7VL5JHa3Se3u7fS30Mrci3AHPcj7AMI8wDCAA2l70dphShNj1D1CLUApesQuhZjKUWOef5uaQHdtqIuE7ldx/g4SfduNb7+tFz/Taf7owePg0eOnj93QdMNAV4ZKtD0CkDcNv0cWMkIbl6/OWLoiJjIGCsZj40PAxRGNxmNZU/uH5CmLR0zdIQrM4TTdZkvb4+/Z5Jft+yAbnI/N7XYWSvkFQg5BShzPwooW9No+1FqIWgAugR3gZmrxVgqEU8W4JoR4LYN4U3kdgn2YEn3bjYaSgmvspUmFz584HCPwJ6yXJmNzykcPlTgTykAcfun5GtOXyYz/qgU6uZ0U1/8XojMIBajufx1yYM7R2XZqyeO68uwG9Cl9XwP1naRW2JAtyx/93yxq0bsrBfxCoTsApRRgNILEGoBQilEKPuJVohQChAHolEKwHtKATBzaTqEpsMYahFb7u+Y7u+ymc8Z4/BTX0aHjO3rjEWPrJO4FrNlz649I4eNfHgfpir74s8jvKA1KQBxa02z0aRjyZXmDhsy/MrFK006Ctu9OEhbAdZoTZWvHt75VS3fs2DOGC/3QfadZnCpW/kuqT19pN275fu7KMU8jYirF7ILhaxClF5Yw1qSr4WIQ2E1aEnc1n2l6BGKDqVoMZpWzFIEOEkC3bf4ckbb/6cvtV36ljVVRQ9riGtFMpa8LJk5beZyuEhhRXMCh9I0CkDcNo3uVnjV6Ijo8Anhr4pfW+HYrH5IFhw3mQ2lxQ/vnNDJdy2eEybij3ZkTnPmbEA8Y/28Jf6eef6uSj9HjYijxZh67I1FW2O81sXqx97rEQcd6qDHqARxndPFLlt8OcFdfwx2Y2ZuX1f57L4VxSoTpv7Vy9dGjRj1JrvFmyQfVj+rcIBQgQZVAOK2QeW02c4sJsuaVWuXLFoKS7V85hwSW2nN5qrXz88d0u1evmCM0Gu4E22aC3sj5h3XXZQRiOT4eSj8nFVijkbE0mAMHUbXYzT9G3fxx+Ba41J+6xyCuPY6jKoRseR+ThJ/t20+nAm0tqOcqIkbVlQ8f2AtxCVwm5OVMyY45MK5C9XCWun68mdOOzwdKvD5CkDcfr5mzfEbpa9Kp06etnXT1jc3B+sTvNHiQ+8sFovRUFr86MrZ+A2rRmPevaidwt1YGwP4kd3RlABBtp+v3K+bSuSkFbE1QroWo+kwmh6j6jGKHn2LoPVi9cMH7fUo0TCaVsRW+rtk+bvv4PNCqa0DO/+4d9lcw8snFov5Q4P+ksfNZvPC+Yvmzp774tmL6utC3H7JCYDXsiYFIG6taTaabiwP7z8cPmT4W1kIIG5/fzrMxQ/vRW/6ORjz6UvvGsKhLRd47PMXJPv7Zom988WeSpG7GnPSYBwtxtBi9Des/bO4dShA7AsQBz3ioMfoWhFH4eec6ee23ZczlvLTAHr7mDWLXj28ZTE3PXFv37g9sN/AuOg4WJbg958meEZzVwDitrnP8Kfd39nT5wYPGlygK3xzOsTtGy0+9M587dcTQxGfgE5tF6He2wOQhEA0y88XgBZz02DOWoynwzg6jKmrw9oCjAIWX/+UdfvGMtYjFD3GUGPsPCEvTeS8Q8CbzO40woUWuXL+0xsXLeYmreJusaQlp/Xs3vPEsV8+pCA8DhVoOQpA3Lacuf7YnarkqlEjR108f+ljJ8HP3lHAYn5y+VJYoHgMixrZNzCtO5oj9laIPNSYixZ10qFcHcYGrEVpOpSqQwFla1tD4bYAoegRqgZlKFF2rtAxTeSyG3WZ7mg/nOuwe+GMpzcu4k3nVa4oLZs4IWzCuNDiohpP8jsCwh+hAi1JAYjbljTbH77X3Tt3Txg/4dH9Rx8+BX5SnwIvilaNGTnSrkNUIJrt76sSemhQZz3qqEe5OoSlRRg6kBCKCmxQwqJ98/rB3T5vLNcPr92+dQ6xO4imQZlKlJOHOWWI3XajLjN4dkNYXXcvmP76znW8ibzKv129igr40ZGR9QkHj0EFWpwCELctbsrrveFZM2bPmj6r7LWNlXWr916+xMFaT3tl+b55s/r89N1OtFuW2EuFuWprWKtDmDqEoUPoIAvjn4hD/l3oAtwSqZU1KFOFcvIxpwyha4TQbaajQ+8urTZMGf/q9jWL2dS4slgsIBzaYrGY///oKJPZBDJqqeQyvo/3udOnG/fSsHeogI0oAHFrIxPVmMOsqqwaPmT4ujXrzMamD65pzBtthL7NxtztmwP//X9b+K7Zfl5qzFWHOuoQdh3WgrzHjY1bIrUyTQ+KGTDVKCcf5UlEbpFCtymsTsJW/7d5etiTK+c/n7gghhj8AwQ1A4KajCaj0VhVVWUwGAyVhsqKyoqKyoryilfF5c+fljy8/+LOrYdXLt06e/rqieNHterxI4dPCAk2GSoaQXfYJVTA9hSAuLW9OWvwEd+7fa9X917JCckN3nNL6PB0rqRP23+v8+TWwS2LwC1dB0r6UPUoRd9wruP6jF2Q4pFoZAUhhgZlKUVOeQHdolCXScyOg5mdts6a/PDS2TrErTZGq+1RE4CoscpQZagwVJZWVpRWlr+qKCkuKy4qenDv3tXLty6cv3H2zIUjh49rlIW5EmVaYmb0noQdm2K3rItcu/Ln6ZOXh4YsHDls1oC+U3oGjhNjozBBf59ujLatFs+aajY1abhWS3gE4T3aiAIQtzYyUY05zCMHj/iL/A8WHmzMizTbvh+cODyU1mkeq4u02rrl6RAWKJknoGoFFK2ASALVQHHI9bHWgcyoXENcKlG2j6EXcrV+Lrn+Hnsxl5lOlCEsu83Twx5fOlNZXlZR+qr8xfPSJ49e3b/34u6dB1cuXThceDBPoklPyIndnbB17b61S3csm7dp3rQV4SGzhw6Y2jtwSqB4oggJ8fUY6soJ4tH7s+z70Dr3pnQYQO8SRO86mNJxFK3LWIZDKNNhEpcxyZk70cNprKczZtd+mNDnt1+PNdXicbN95uCN2aYCELe2OW8NOur4mHghKrx25VqD9tpSOjPcuzFF4DbR7qfMAG+12F2DcEjTlmDtl8HtO8SlgVq5KKsA46rFztIAj31C16mcLkHU9vMG945auWjnwtnLQ0NmDxk0qWdgCMof6eUW5MjoRekQ0PFH//bfilp/LWr9fwHtvu3e9ts+7b4d0uHfE+3bzWPZLeRRljjRVrgyV3tw1nk5beG77kDcd6MeEUKvGKFXotgnWeyTIvZJ9ucnBAiiumPbe2LzBC6itt+unzSm9MFN6y/K21KeV3ifTacAxG3TaW8dV7aYLUsXLR3Yf9DzJ9ZeNtU6BHtvFK+frR3Vf2SHb5PEHgo/dzXKqWPafjHc1kPcQpSpE3Llfi7pAR7bUacpnE7C7/8h+PF/+zm0GWDXdrBde2CSMu0mc6mzXRkL3ZnLu7FW+XDWIU6bRa47Arrt6+Ed08M7sYe3pLt3TqBXbqBnTkC3HH/PbL9u2WKPHJFHntgjX+whF3soRO5KkZsSc1VibgrMPQ9zk4jckwM89/l3m+XYdTizoypmh7my+D3h4AGoQMtSAOK2Zc33+3dbXlI+aMCgGdNmVlVWvf8pPPL7CphK45fO6N/mqz18Xq7IRWUVuAUu5QKErsNYMhEvQ+wUK3Ze5W43tsNXs3kdt/m57w3wigzwjgnwjg/wTgr0Tgv0zgz0ygr0zArwkAZ6SAPdswPdcgPc8v1d5X7OSpGjRuykEfI0Qp4a46oxngrlqmuaFuPqUK4W2PQcHcLVIlwNwlWhPBnGy/Vzixe6TKO1md8HvX5c38Q5N35/IuEZUIHGVQDitnH1tf7e79+5j/gi27fusP6hWusIDfq47b3bfrWxG10qdlG+h1utwL7hklq8teO2zlJubbQUGTNVjVsNyswXcjLFvAg+fRHlu7ldv9mLstO7e2T6uWWJ3XLEbnl+bnkil3yRs0zopBA6KoU8pZCrFHJVQo4aY2tBmg62HmUVoMxClFmAMMim59P1AtBqj7z3hqlDwK6kPKHTTk/GKGrrrdPHlbxxKdfuo7LWKYXjggo0ggIQt40gqk11eeqXU84859zsPJsatfUMFuyWuVaY06vzv5Y7d5X4uyqFXGK7La127bbxcVs/a/UIQ40y84TsrACnrS4dpv701w2cNhn+zrl+LnKxs1zoqBA6qoSOKgzYrERiZ7YWY2kxlg5j6TGmHmUWEK0QZdTU5aWBOCwBlWw6Aah4TzbCmAaf1m06hKFCOemY41xe52HsztLdm0xVJcTMNfImYOt5OuBIoAJ1FIC4rSNGi3ybl53n5ux26sSpFnn3f/6mQVX5oiu/jHK1m81ql+bvqhBy9SgT5J1AqyOTvzhugRtZDzJsMFUoK0fEThWyVtG/n9v+H7E+1PwAV+AcxrhqlK1B2VqQ+qqGrxijgGyAr7WNXojSyEYkjKToBA5kI4KuQbl7YqcTpaZwb903NB3CzBM6RmBOE5gdxqPuFw4oCZeyGUZO/fknD/ZgcwpA3NrclDXogM14VERUgDjg3u171f1CP99nC2wxFd2e1Ucwkdoqyc9FJuLqsSbALZHpgjQ36US+C4YOYckRllTM3evReV6n/17H+kEi5CjEPI2Iq0EJyoK8V9Wpr0BiZ5CaiqpDqAUonTRniVdaAUorwGgFGFVP5HzWIPa1TQuO1FQDBG9AkaI6Lm5qAcJQoNxMP7cNvpyBdv9ZFjLo1b3LuMWI4zChymc/Z/ALtq4AxK2tz+CfGn9VRdWCeQtCRoeUviqt7gji9rMVteCWsk1TgsdSf4oLcJf7OeswFpkqGdCLqEzQyGu3oEqBHpCSpgOJpcjG1KBsuZCbKmQvp/xrfuf/ifDsmoOx1BhbgzK1CFMroBONphVQa4ooUIlSCuCVyIQFloGre64psaBFHcimRuzJNzrUXofa1TSA3jq4pRQgdC3Gkfm5xItcZjh27k/9KW3rcuOrRzhuggbuZz9o8As2rgDErY1P4J8b/otnL8aOHrtsyfI/1w38Np6yaflQu1a7MKc8f1etkAsKAZHGYuPjFtQ/AFysy1qGFmGB/Mlip93unWe0+dvPzH+nYUw5xtSiDA0ALY1sGgFNg9A0CJVoFA0CGgldsk898EuD9FhkUSMtSnmnETWO7AnoAu4SuK0lLlhU1mNMpZCb7e+yR+QYxm4bJnI5ociwmMogbuGvTUtTAOK2pc34W/d749qNoIFBMH3jW6L8oR+OZKcOoXVY48mSBrhrRDwdxipAGQSxqmsB1bH56rpbG+A9UaKAWmPU0olALaYKYSqEXKm/0xK7b6a2/muEp12OmKvCmLWgrcYtQlNXN6oaoaoRipogLhHnRfbJ0KIMNcpQofTapkbpapSmQWnaGqu3Frpv4xbsBtYjNC3GUogdMwPdtmC8YHb7FSEDn10/C3H7hx40+CUbVgDi1oYn788P/dSJX7sH9JDnyS1m6ET+U3L+9suhEc6Mha70DD93jdhJL2Q3IW41AroCYeb6OUZ62oX/8JdltO/ShSy5mKtGGR/GLY3ALYCuBqESGShpagFdhTDkKCsfY+VibKKx8jCWDGMpUKZayCCJq31TyvcdZzKZfIOmR5haIU/m75IU4L7QnTKc0zlz2xpj5cs/pTj8MlTA1hSAuLW1GWvQ8Z4/c35Q/0HLlix/9OCxuYmqojboDTVZZ6X3b08U+k5m2aX4d1OJnXVCTg1uiRIFjZkz+X3rVo0wZBibWLX9dmrrv+3xssvx4ymFbM3v4Ja0dEnHMlUpoOYL6Pl+jrIB/LwgLHuwKHuwOHewSBaE5fXyzOQz81GmGq0mLmHd1psdmtykRNejbLXIMdvPbTfqHMbqOM7X+bQq22KGmVWa7ImFF/7yCkDcfnnNreiKpa9KkxOSB/UftGHdhts3b9skccHGVyuQtLRkydCgEGqneJDK0UX7Fm5Befkv5kzWogwlwswRcna6dZrW5m8rGP9OFXNkYq4GY2l/H7dvXMp5CFUi5h6ZMvhx8vbHufEP85If5qU8zk0uyo6/smFBVh9fKcpVoixgMQOvMoWIUnaoLyiMWMFFGDqMIxc6pYvdN/rwBtv9NGdAYPGNS7gFhihbwdMLh/BFFIC4/SIyW/FFXr18HRMZM7DfwM0bNj+4+8Aq0GXFcn1waMaq7TOnjaR2ihS5yfxcSdwWYPSasKMvh1sVwshHWcl82hLqt9M7/GOvt7000FEp5ujeW7jVEnFSNWu3tc5kigqhKFCqBKPnDRU+T9+FF/2GG57hhmLc8BK8VjzHLx//ZfHkDD/XPJSjQlk6jPFR3L5xKatQbp7QOUHkttCNNojSNm71ooon96zjz6UPTiz8ACrQUApA3DaUkjbcT8mrkpiomL69++3avquspMw678RisRiNxrKyspdFL188f1FcVFz6utRgMFjPqnPa5rwKp6YAACAASURBVHVDqR13IiA4WSPiFgpZXx63WoShxFhSEXe3e5dp7f+xjPVDmh83z4+rBJHSbwKSa1dwNfWFSikRai5CTfXj7J8Xgl8+ilte4ngljlcRu3eqcLwCNxQ9kcZl9BdKUEclygYgR6nkCm591m0tbulalKVEedlilyiR21R25xHONH1ytLmiZhOadT55cFRQgQZSAOK2gYS08W7KXpdt2bS1T6++0kxpZWWldd2NBa+qqnr6+NnRQ0d3bNsxeeLk4BHBoWNDVyxdIcuTP7j7oMpgFUuA+tT4IHqnjT6cnABXtYhXIGTpMTq5b/XLOJO1IH6YmSfkJKKs5bTvZ3T67x1eXbMDHOUisGqrE9DIVsvat63bajeySkBRoDQJQs/o73M9djP+4jaOl+K4gWCtmUhPUYXj5fjF45opo1MwlzyUCzbyEv5kHVqvM5nELblViaFFWTKMl+nnvgtzHWnfZk4fv7snjxKJL6zroYOjgQo0uAIQtw0uqa12+PTx0zWr1gwfOjwvJ7+8tMJ6bqOirOLIwSOzZ8z28fTp2qnrd9989/U/v/7nf//zu2++o1Po48eGFur3GwyGJh/w+UL1CBfGym50SaCb8m3cEgkOG2DPT70LwCBUChiXdDXKkKGsLBF3Z7euU9v91zLG90kidp6Yo0JBUgu9gKZ/j7h1rFvgTFbxQcvj01NRtmx8//JjKuA9NpfjuJFw+YKMlcT7SvzZ7cu71qf04GcJuCqEqUbA8u2HcfsWcVUoOx9zThN3W+XOHMexT1o+v+r5oyafPjgAqEBjKwBx29gK21L/d27eWbZkeb/e/SQZWZXlTQ8wHMdNJtPB/YeCR46272LfplUbuy52Lo4unu6eHCanQ7sO//yfr/7z7//07tFbpVCbjE2c+P7u+VMTxV5zHbumBbgp/cBeID1Gbr0lq/Q01vItgVuaFqUrEEYOxk4VcZcyvp/c9m/bPTpJ/LkyjKUR0HUEa2uJW2vg1sUtwVqawpeWxWdGI45HV8zGH1zFTSW4pbKOaUvi1oBXvSzbr8wdE5QmcJIjHBVCJ/bgAuv27TyOdf/IIGOmaFqUqcF4eSLXGIHzbFaXSd7OxyXJZqOxIX9VrCF6riHvB/bVHBSAuG0Os9iA93Dzt1tzZs4ZPGiwWqkxWIGT9sa1GyHBIR3bd+zUvpMYE29cv0mn1v1y/Be9Vr95w2ZPd89//d+//vV//wr0D7x0/lLTxnm9fHBr/pDe4Yz2SQHuihrcFmD0AozWqC5lErcaAV2OMiUi7h4vh+kd/98i2reJGCNHzFESEVK/i1vSrlXwqTI+M5XPie2FPpVl4OUvcHMF4ek1EXatuWb51gD8yfeun1i3NEnULYfPVSLAn0yUKyCIS3iV6+MuSIAFMnJgbCXKy0Idt3djjrVvO7eX+OG5kw0QpWzBDQZDyauSklclFgtEbgP+xwC7agAFIG4bQMRm1sWtG7fnzZk3etSY/QUHjA1rc3ymUhaLZd+efR3adfj+X9/zfQTSTOk7JmyONMe7m/dX//PVN199s2bV2qrKplzENZa82DxjQrBdq/gAD7mfM2HdMokaO2/ik+sjUF3774+8BwBD6URpW3aykLOc8cOUdv+13aurRMyRCVlq5C3TlvQnE9YtyGVBWrcka5W+FDmflsNnJyDO2jmT8JuXcVMFbqnCLbWsxWucyVVgNdfw6oksM7mvXyqfJ0NZJG5rN+CSjuX37xcsY2O0ArBhlyUTsJMFvNXujCF2rXfMmlT59MEfjlI2m8yVFZVFT4u0Ku36tevTU9Iry6wsBOEzH354evNTAOK2+c1pA9zRlUtXJ02cPHb02LO/nn2HcA3Q+yd3UV5SHjwi+OuvvunUvtOalWuMhnf9jRYTvmblmnZt2v3j7//o36f/00dPq/tuEsPGYszavn4MpV20v4cswFUvBpmTCzAGUaiAyPsPatV9xNf6R1hLZklUIzQFwpSKODu72U1u8/dFlG9jEUaukK1EGLWrtqQnuQa3ZN4okNGieiMQn6rypcp86Jl8blof4ZOcVLzyFREhZQQWrdlkrjKYqsgVfdKfTBy/cUE1M2yfNzuLz1CD3MsOWsS+lrjgZuu7XzLJsw5jgPqAGC/R32OBM6WPfWt5xHZj5etPfjrAiRaLpaqq6vXL19ev/paTlTN31tzBAwePHT1WmikteUXW1v2s/uDJUIFGVADithHFteGuLfixw8fCxodNnTT1wrkLTWXj3rl118PV46v/+YrNYCvlqnr1lOfJ6VTG//uv/+fm4n7x3MXqc5oEtzh+WJIcTO+0XeCY391DK+aRy7e1he1qqwO9b/PVGwP1aQdBUmIQJCXiJCPMZYwfwtv8bbt750wRR/7eqm1NqBTJWopWQKnFLTBwfWnZPow0oevhOeH4rUsgQspsAIFRwLo1Pbpz4/bVCzXVasERYOlWFF+N271X5J7kRVMIaGqBvRYBrZa4HwqeAsTFaDqMoRRzswNc94pcRjv8NC3A50KBwmL6JBeFyWSqrKh88vDJ0cPHdu/YPSV8SujY0Dmz5mRlZN347QaIPID5M+r9hYEHm04BiNum0966r2w2mg8dODRm1JgJ4yacP3P+S9i4ZH6oOlmirl255sRz/vbrb1l0lk6jr1ewg/sPujq7fv3Pr3kcx8MHj1Sf00S4vX5QP5bnsMqNltO9m0bsqBNyiNq3REWdOsX46rX5Pg2u71jARC0gjKESsnL8uDvdOk5u//dF9O+SUKZMxFGjzLpLtu+z9m3c0uQ+NIkvK70Pdj9xH15ahJsrazzJRtxUqZempu3bVvb0PhGZTJbPs+B4lensMcm4ITFe9FxfqpJvr+F3/STcgkK5gLhqIUsmdszo7rFBwBlBbf1z2IgXNy9/3KVsMpnKSsquXr6am523dvXaCePDxo8dv2HdxiOHjxY9KzIbIWbr/UWBB5teAYjbpp8Dqx2B2Wg+fPDwkKChM6fPvHzh8pdP8Xj/7j3EV/D9t9937tg5NSmlXqE0Kq2zo/N333zn7uJ+7Mjx6nOaCLdFl8/NEXnN5XTODPRQ+jmpMY4WranfDnALyt9+yMX6+bitDfSly0XsFIy5jPqv8DZ/3erZOVvMVQnZOoSh54PNP7VNJ3hj1xI1fygaYvlWI6Cp+HSFgJXG5+aMHmj8ZT9uIkxbixHESVkqKx/c2DV38tLggbeO63HL2/uCih+d3bUuCnXK8KbI+Q4avt37uH3fmicr1etQihajq0ScnADn+ED3+S72Ix3tc3ZtMBvqdykbjcaS1yUXz1+K3Bc5ORxsv160YFFGWsalC5fech3X+Yut3mcGHoQKNIkCELdNIrstXfTwwcMD+w9cMHfB/bsPvlgKJ4vZbKis/O3qNTEm/P7b79q3abtsydLKind3A1eUVezYusPBzuH7f33ft3e/m7/dqla2iXBrfHR3Y/CgUPv/JPm75YmdVEKuFmODTMVodbQUUbmd8j5+SNbqkTphveTC53trn+AcpHobawFR41aFMnOFnH1eXae1+9s8yv/Fi9lyf6ICIMIo4NPqEJdK4Bb4kOs0KhE2RVcLmPkCdjLmfGzVPPzxbWLzD7E6ixtx4+s7++Ure6MLhG4Hozbh5U8IA9dM2KBmHC8vParJGN49wZuW60vR8B20gnedye9b8zW4ddCiVI2QIRNzs7q77RG5jKO3C0Pd75w8hJvfbOsym80Gg+Fl8atfjp/YvHnroIFBfXr3XTBvoV6jf1X86t3fpVofybsfwJ+hAk2sAMRtE0+ADVzegmdnZQcNCFq5fNXjB48bm7gWi8VgMDx+8FCjVM2fM8fF0emnH3/8/ttvPVxdc7KkpaWlxiqj2QT+VVRU7NcX9gzs0frHnzq0bb9m5eo3sVRNhFu89GXUnElDO3wbKXbN8neRi4GBC5y6GEMH9skQAVOgBOw7PmHwI8nauque5Pu6rKrhMfAhFyA0PdjtylSJuGl8+ir6d1Pb/W2jS7sMf65KxClEmYUIvS5udQKq7i3QktCtxq0KYUkFnOxBfs/yU/GyItxiqNn5Y7A8u1O4ecU6vtN6PjdterDp2smahI5k1osq/OmN42tmx2G8LF+qmk/RCkBpoHfaO8kda24EuJS1GF0pZOX6OaV191jrww2y/2lt+OjXD25YzCYibWfpzZu39Dr9ihUrBg0KCgoasnnz1lOnTpeWfiDbKMStDfyf0kKHCHHbQif+s267rKQsIS5xYP9BG37e8PTR08ba0WixGKuqih4/OaAvWL9m7egRI8eNHjN7+gyBt3frH378/pt/Cbx9dm3bfuLosWsXL106d0GanjliyNCObdv/5/t/U+3skuMTmiqk642YFqN00+oBnX7YLHRJ9nfL8XNRiBxVQg6oxgPy+APi1nEmU4i4YgoRqUu8gsRMIDdT3Ubg9q1ziF28gLU6hKlG2TIRN9qjy6wO/zXf/qtYPjVHBC5XiDILEHqtaUukb6TWMWprDVyAW7BnF+Oki5yPzp+IX/0VpLaoTiNlxs3lpScPJo8JivDixvjwovtj9/OSCX9yrXVrxI0vnsgSU4OwNF+q0pei5gOI1r2FegOmav+80KJUtZAhF3Ml/i4Rfm6TuJ27U9vHb17z4ObVM6dPJibEz507d9y4cXPnzk1MTDp37rzhvQD1N/qDYOWa9tZR+ANUoOkVgLht+jmwiRG8flkSExXbq0fv7Vu2P3/6vMGJazaZSouLf/3l+I7NG0cPHz5q6NAVixclx8Uq83KXL1rk5eb2wzfffPvPfzp07oz6+PTt3qNP9+4uHG6Xdu07tG7txOZ4u7tPCw8//+vpqqbL5gg2pRgMB9MTBjA6z/ZirfPlRiCOSYijROiUjXHyhWyliKURsTQYQytk6DAGyDkFtgnRCMOXeAXvwfru26wCORprWs1phF2rxjgKsWMqwlzH/GFam79udG4rEXLkwH3NLEQZALdvJW6sF7eAtWqEmY1xU3v5PkmLwF89AkUIQOAxMF4tr59fitsX6Y+kejpKvJ32CZwPrZpvef2kOjIZhP9W4fhr/Nox7byQZJSVz6ep+OSA37qLd6zbuta8FqVohAylkJUtdkzs3m0t5jKA2bm7K3vu1Inh4aETJoRu2rxJpVbfvXu36f+csonfVThIa1UA4tZaZ8b6xvX6Zcnunbt79+gdsSfixfPihkjhBHy+Fou5oqL81vUrsZF7Q0YOG9Crx7wZ06L37MyTZChzs3UKmTQtefGcWai3Z9d2bX767tt/f/31j9988+M337T98Qdaly5CX59Fc2avWbZ0UJ8+E8eNPX74UJMQ12w2Fz17erRQlxGxK8jbtQ+9wzBau0mMTjNpHRbR26/hdNju2jXOm5aBMLNRVr6QIxdylUKOGuNoMDZh+7J0QpYOYxIMpoPaBjWtFsZalE4sAzOIV6YKZcmF3Gw/px1uneZ2/t9FDt/ECuj5Qq4aAcFZRHF7kOCiTlmC93FL1QrAqq0C5aZhzvKwYfjZI7iJLEhAGK8WY8VvlzUL50T6dsvxds3p5hjdjZc4pE/JiUMgaLnakDTieBlecudK3Mak7m5ZfJpSQCP+hiD/bqi219/BbR1nsgOBW+BPzhHzUgI9dvb0DfN29OjcZuzwoNjYyFO/nnrxsripFges77cQjsiGFYC4teHJ+/JDLy4q3rp568B+A1OTUstef2Dx7FOHZcEt5ipD5fNH9/Ky0qZOHBco4oeOGRaxc1N+VqoyJ12WlSKTpKhzM9S5GfmZSXu2rJseFjKgh5/Q24Pv7uzr7tTHXzhzUujOTety0pMV2ZJdmzf0DhCPHj70+KEDIKjqC+bwMxqNt2/d3rlj+9jgkclRe7VZaak71kUunrl5/IhVA7pP9eSGMjuN7fJjWJd/T+3y/XxqqyXMtmt5nbe4OezzZsYLuCkoLx3lZYmcs0XOuSKnPJGjTOSkEDkrRU4qEU+FccECMMZRYRwVgHR1k4l42WLHJIwz3/6bSa3/tsW1Y6aYp8Q4OgFTjzD0CB2s7ApodVr9uFUg7GzUMTHA+8KejfiLB0StvZqCBJVl15SyuGGDY3y9srxcc7xcE3w9tmA++3dsNr9+QZq/hNu5HLe8LDuhzgrumYKw8wUM7RviUvXAf/7ucvU7uFWjNCXGyBXzUgPcd/fgj3ZmDPRxP1qoNYMtv3AD7af+RsHzrFwBiFsrnyCrG96zJ8/Wrlo7YtjIbEl2ZcXn58kj7RQzAO2rZ09+OVS4YtGcAb3Fwwb2WL10dmr8bmV2kjI7UZYVJyeaUhqvlMarc5J0eama3GRJwp6Ynev3bVkdvWO9JHGfXJKozE5R5aSpAJ5TN/+8clCfnsFDg9T5eeWvXlosjb4F02KxlJVWnDlzbsWKlcHBwXEx0cXPnxIcqsKrXuMvHpff++3phZOX9LKDyVG529ZGzZm0dkS/eT2QqQLXUFf6OK7deHqHcEq7mfSOy5yoG7x4Wzwdd3g5RvLdE1CvFMwrDeuWgbpnYW45Irc8kVuen1uu2DXX3y0nwC070D1Z7LzVw358q79O7/i/sQgzR8xTo+wChFnwybhVCxi5CCcJc80dP7zi1BGQtbHajQz8DsYnj5Rbt6wXCSMEPqkCr1SBZwzKX+3rtW3s6KKL53EzGbpM+pPL8ae//bJ+QazYJRtha1BmndAwKhHY9W6FhjprtxQSt9kibrK/+wbMvVfXdhtnzagseS/q2Op+G+CAoAKfoQDE7WeIBU8lFbh98/bSRUuDRwar5KqKz8pMS7DWbDSVPC86eeTw7q2bJowZMXRAz4Wzw+Mjt+ZmxsiyYmWSGJkkWiaJys+MlGVEyjOjlFnRKmmMOjtWlxuvz0vQ5yVqc0FTZ8crJHEKSbxCmqjKTlJlp+ZmJOzYtHZkUP+hA/pkpSUVP3tsrrOfpMGnz2wyP3/2Qi5XTp8+c/r0mSqFqrSkNnEgGbX7Nu8tlXjZi7KHt59fv3j75JGTymxlzO70dcsjZk7aNGrI6gG9lgYK53h7THPizHTizHPmLuCxljgylzsx1rmytnTj7vTm7hM4RQldo8VucYGecT2894jdFrDaj271j+Xcdun+zvkirgZlFSDEqu0nWLcahKYQMDIRbnx3/olNq/Hi2hVZUipLyd076r27kidPzJ8cppkcqpkcKpsanhA+IW7RgpsnjuGVZYTlaSEIbcCNL5+qJYlB/ukYT4WytWhtrd8PFkQitwNpUYBbBcbMEnHj/dwXubNDPF0vHzxQPYganzX0Jzf4Aww7/MIKQNx+YcGbyeWuXr42f878vr36yvMVhspPLdVnsVgqSstvXbkaty9icui44KED58+YFLNnS056jFyaIMuKzcuMys+IlGVE5KfvlWXuk2Xsk0si5JIIRWaEShKllkZpsqM12TEqaYxKGqvMipFnRisksQR0Se4m5WbE7922fvyoIYP6dI/avePh3duNZOOaTKZbN29HR8VOnjx19eq1F85frKqsm9KZrMROJjv88KRbjLixAi99VfnwbvH1y/dPHT+vzC+Mj87bvilp6cLtE8euHTZgQXdshq/rZHd2GMc+lNFxHK19GKvLNGfqHE/2LA/GyE7fj+vy3TYBNyvQTQ5wywQRywIQt/x7zmSqik/LF7CSUafUUf0fqbKJoCfyrwRywBZT2avi29dfXjxddv6k8cJJ04VfKy+eKb5w5snl8+VFT3CTgUAhebIJeKHvXdEunpoodpNhPGDgEluP9AKQjqPeir+1uFVhtHwhM13E2406TeY47Jo2GX8FMl3URhlD1n74GYKf2IwCELc2M1XWNVAzfu3K9fCwSYMHDj5YeNBYVZc09Y4URO0WPXwoz5JOGjeup0g0YfSoPVs35KQnKHNSFNIEmSQ2P4O0aCMAZUHbq5Dsq26Z+5REU0kiVJJIZVYU2RSZkUpJDNkAd7PiFdIkuTQ5Mylq9tQJvfzQHZvXFz152ODENVQably7sXL5quHDRkZGRD24/6ihFxhNeFUZ/vKZ4cGtx+dOXtDk70+Kyt22LmrB9NWjg2b0xMbx3Ua4svpQ2wt//J8JrE5RvfkZAQC3alBJHqzXgiJ3RHt77bZ2+Rakl1LwadkIO17spl083XzjAmGqkgHJ5IIpabYaCQxXEuHKRAplsEeo2o1sAZ5nEotE3QJL2f38lPSB4kyEq0JZAPkCql5A+RBxCdxStChVidGzRew4IXeRY9eZPi4X5HnkMwRxW+/vEjxoowpA3NroxFnFsG/+djN8Qvjk8Clnfz1bVVV/ZnkLsZu25OWLE4cOrFu2ZGDP7gN6BKxbvlSaEq/OzVBmp8qzEhRZcbKMKBlh175hbcZeErF1X0ncqiSRNS1KJYlWSaKVkmhFVoxCEqvKTlTlJKtzgWN5xqRxfoj3to0/P31432T63T8IPkFSCyiNU/q67EDBgQVzF4wcNjIzLbP4RYMEaZPQqjsG0tAkiVPrlK7Cy1+WPbh189djR/OzEtYtnyD2CubabRC7J/u75Ysc1ShLK6gG7Xu4pWmrkzgC1mr41HxfagbCTu6PXkmJwEuf4biRwCdpl5OvJGvJ16payhLeY6Ol5nwLbraAPzeMoILQvcv6WeOTUUc5xgERW2AnEulMrnUpg93GNVm0wJYhDUqTYcwMMW8Hnz2W8tPuyWPwl89JISBu6z4Q8L2tKwBxa+sz2MTjP33q9NRJU2dNn3Xm1BmT6U3iPXJYRmPVy+dPTv9ydO+2zSHDB48Y0GfxrGnxe3cqstI1ORkqaapCmqTIipdnxuSnR5C4lWfsU9TYsrWgJSgbUd9rpEoSpZJEKSVgiReYudI4VXaCOjdZnZuWHLNrcmhwd5Fg3cqlN69eNn7gD4JPV9BQYbh7+25KYsrE0InLlyw/fuR4eWn5p3+9oc+04KVFhakxw1zp4+jtIoQu2WInBULiFsQG14Xr++/Vvg55fFo8n6WeNqr83BHcDPb/mAE1LQQ7yUrypDO87mstAaupTLKW+IoJ4Nb0+lbszqQePjkCjg7EbYGFZMKZXBe6pG8Z5MbSojQ1Ss/B2El+Lotd7MLc6CckCQTOG1ot2B9UoKkVgLht6hmw9etb8IOFB8eHjJ8zc87Vy1driQuWacvLL549HbV3R9jYUcMH9pkZPn7vlvU5qfFKaRpoWSnKrCSFBLBWnhktz4ySZUTIM8AybS1lyTf1UbYWvdVmrjIzUkEEVSmy3hBXLk1Kidu1aM6Uvt2FSxfMuXD61yrD54dSkxNkwQ2VhgvnLmzesHl8yPjtW3fcuH7DZHj3z4svPpnmyid398yf2qvDdyvdqUlCx3yUrRHQNXyqhk8hmkN9maTARyof+2wBPVbsdGH3arz0IeErrjLjZjNhqlrI4gTAV1zbyDRSdXFLrqjWBoWRIcoG06mDeWMHp/pwlHyWHmG+bd2+BV09QtOidBXKlIocd6NO4exOmycML797/YvLCC8IFfgSCkDcfgmVm/c1TAZTgbZg7Jix82bPvXHtuslkqqoyPH/yODdLMnNqeFD/nuHjR+3esi4zMVqRlaKQpiikyQppkjIrUVmHtfLMSLkkkmDtZ+GW5G6kEkA6EizlgjDmWNLGVeUAx3JuRtza5fMH9AqYPW3SyaOHiSQYnxd5YzaaS1+XHj5wePGCxZPDJ0syJM+ePGvoxdo//IwYn1w6ObcPNrLzd1s8adlCngphaAQ0krUaUKKnHuKqfB3kPg6pPpSs4X6vC6UgLRRusOBGwro1m42GipdPKl4+MpQ+M5QWvWklLwxkAwdfGEqLDaWvzEZyEYGErgks9BY9OL1xZRLqkuvN1AqIXJLV0VJvsbYAoeoRugZlyjFOhp/rcjd6uAfnWGYiUWT3D6sBvwgVsF4FIG6td25saWQWXKVQ9evTb8nCRVcuXjx25PCKpYt7BfqPGDJg9fIFqQmRiuw0WWaSXJIkz0pUSBPkwIEcW2vXyjOj5JJIEIEseZe1ysx9H7Vu6+KWJC7wKpM2bg10k/KzEn9esaB/D3H4uNG/HD5gADbupxLXbDI/fvBYKpEGjxw9KWzS4YOHrcCorftoWHC88rxKMtbFYSazbSLCkaEsFULTCkDuYnUd3OrQN3FSSl9Kro9DtKfDseVT8HvnQFoosBBrtuAW3GJ4cvNKYUqsPnLH0bjdx+N2ku1Y7I5jMduPRm89HrP1RMy2U7E7f4nZfSQp+vGls3j1/maSuEbcVP5CnSsZGJDuxVLymXoBvQCh1edPBrhVo6xcoVOc0C2U2mHNiKBXN6FpW3dy4ftmpQDEbbOazia8GZPRlJUhCfQP6N+nz4C+vfv26r54/pyE6L05mQkyKbAyAWKJzBUySays2oEMfMikXUuy9v1V20/DLQnpCNLGfbOOKwH7hdQ5CZq8FIU0acfGlUF9AseOHHx0v6687PWbtFMfJq+xynj39t3oyOhRw0ctX7L8ysUrVmPU1k41ET9cXpS8YnYIvd1Gd0qmkCdDWVqUoUZoan4tYmtrElC0ApqMT8vwocf7uT7NicUrnuB4OY6bTKTfuOzF8cyENQO7rxR5bQz02eTnudGvG2hij40it00il00i560il60i1y2ibj8HItodG/GSopoNuGQwswm/feXI4hnxfKdcPps0cOvDLditpMA4mWK3nz3YIxl2+thI/A97+2v1gG+gAtaqAMSttc6MDY7LUF65cO48BoUybvSoiF3b8rMzZdlpMmmiLCtWnhUjk0TJaxugbE2rsWvrZe0767gfom/NadXEJddxQfBUVrRSGqvKjtfkJimzk3ZsXDGot//YkUH5WemlL55X27i1y5F1NLdYLOWlFWdPn920YdOkiZNjo2MfP3hc53Nre2t+eOboiqAeofb/2ePLlgodlShIeaEF+4LoRJxULW6pSj41R8BIEnB1U4PxG2dwnEySbCKQWWW+c0WxbPZ2oWsM6pSEOSejjkkIL0nAQFISUAAAIABJREFUSxZwUwScVAEzVcBIEzDTiVr0kb6OScGDjOd+AVXoiTCr6r2yFcUPMhOS+/ml+nCVAo4eJLqiEQHJ5B7cmuqBCDMPc4zGXMOoHRYH9Su+ftXaZIXjgQo0oAIQtw0oJuwKz0xN7y4Wb9+8QZ4rkedm5ktTZMCojZFnRcok++REU2RGKDIjgVFLrLaCH0Eii+qdtTXg/MM/1hK3dntutDIrRp0dp8lNVEoTInesGz8qaPjA3ukJMaWvyMS/xMSR0CXems3mF89eyPLks2fOmTNrjlqpfln80tpn11h2IispvBtrJqN9nMAxD3NWYY46jKMHW4PIKGVAXA1CzfelZAiYqb35D5L34OXPQDgx8CQTu2lNr4v2y9JDBiRiTrkYR4ay5URTICwFwlIiDIWAphBQlQKaik9X+jIzfdiRQvff4nfhFS+I7bnkflwTjleYL5zUzAxPEDjn8Tk6hFWDWwcCugC3OoSpRNmZIpdVboxglr02NhKv+qOBbNY+N3B8UAGgAMQtfA4aUoEjBw716dFj/eqVanlOnjQtV0JmP46WZ0XIJHvlkr0KyV5F5j6SuAqAW5KOfxiu9X6R7BMEORNcJ1dzo9XZsZrcRFV2Yvy+LWHBg4N6+8dH7Cp5VfRmHZfwKhuNxgd3H8RGx44cPnLZkuUXzl80GZs8AvmT5sj47H7q6vnD7X762Y2WJnSViVw1mJMO5eoQMvcFVYNQlAJKto9DEsLKCx2In9tPmLZVJHHBa/G9cxEbk/shEiFHgTJUCB14pGuaBqGqBQ5qvj0Iv+JT1T60PF9mtDdDNW206eY53EJayWQSDAP+8vGNuD1JAT5SH472LdwC4uoRmgpl5gp5MZjzBHrHJYN6v7x145NuEp4EFbBZBSBubXbqrHLg92/dGTV06PxZM3Sq/Hxpaq4kgSg2QOJ2j1yyRyEhk1eQLGwM1tYFcDVxiYhlkIhKnR2nzUlS5ySlxe4KHTXIj+8RuXPLy6Kn1amVLXhlecXli5d/Xv3zoP6Ddmzb8eDeA6uU+UODMr2+dWntyH4hXX7c4c3J9uumFLlpMEc9ytGBcGWqGqHIBRQpn5IW6HJuywL8xW9EkFQ5sXZbgeNllZeOqWaNS/Z3zcWYagTg+e19RA4avp0WNHsdn6Lzpcr59FQfWlwvz4d5CXj5U6KfSgLeFThebj51IGdYL4mApwEbcGlEagt7otItRYfS8lFmhp/z2m70EfTO6shdhC/6Q/cFj0MFmoMCELfNYRat5x4MpeVzpk8fFzxSkZeVl5WS90Hc7iPCmuqJQ/7TzuS6uK29Ckj9CLIuZ8VopHHanERNTlJK9Pap40cEYt7bN/384M6tKoOh9HVJgVa3YO688AkTszKzip8XW4+wnzwS4/UDynAvbrh96yi+c664mxJz1mI8HcZSI1Q14pAvsJOitP3jeuCFaXjlPbzqGV5VhFe9AK3yye3MyLRBonSMK0cZ77GWRK+Dlm9P4NZB50tV8ek5AkYUn3Fq/VzLo4u44bnF8MJSVYxXvcSrXuH3Ll1YMUsqdlUS1m0h4lCI2Bcg9jqUokJpUiErWuw4ld1hYb+Al9cvgRv8cMzaJ98+PBEqYL0KQNxa79zY5MhM5s3r1g3q1yc7I1kmTc3PqutM3kM6kxsaqO/w9UM/gm1CRMbHauJqc1MkifvmTg0dOqD3pp/XHD90KDUxKXzChOVLlx49fLSy3BbXEYmtOBXFOVtWD7Nvs4DROUXYTe7nqUJ5apSpQWmqatxSj4f1LZdFlf2qLDmtLvlVXXJaXXpaW3Yo9+CCCUki51xQW5ehRam6dxoC4px1RA5kIhkyVSOgywX0JB+KclzvYmlE6XF58QlV0Un1y1PaklO60kOy2+sXynt4KhFmIULdjzjsR+wLEQctSs1HaRl+vJ996ON4XeW7N+GGJkzOZZO/Z3DQtqgAxK0tzppVjzkzJcUPQ6L27FDkZBC4jZWB2OPqhdsmYi1p5pK4jVZJYtTSOG1ukjonWZoSs2LR3N4BfkH9+gaPGLFl48ZbN26ADai2969m2ytuenXnysbQEWPt22/uxsv295YLnVUoC9SUFdjLBHa5Aoq8l5tuXE/lxP5ZYf0zJvTPGN83N2yAOrR/Zi8viQBERamJnbtve5JJ65aqA1UHyAZ28qgRejafmiHm5g8X54T2Tw8bmBQ2MDlsUMaEQfnjByoG++UJnVQIowa3DoUIRYPSsjFWnNhxqmPHBX2FD349DsS2Rclt7yGBI25KBSBum1L9ZnntIwcOYHyfVUsXKHMz5dKkfFC/NkIOavvUU3LgC9IXWLdkI0oaxKilCarsJIU0JSMxZuTgQYi3d2Js7MuiFzY7KSRuyWIGpsv7lXP8+FOoHWNRt1xQEY+twugKgb0CsZcj1FyMkSlip4p5CWJeLMaOxViJGCcd42SjHIK1jLf3DtVdwQW4rSEuTUdUH1IKaNl8WjrCSMDYUSLuPjFvn4gXJXSMx3iZKDcfYWsQGoFbyn6EUojQlQgzS+S0lc8dRmmTsWEFXmKLTnubfUzgwJtOAYjbptO+mV755tWrfXsGTggZJc9OU0iTZZIYImMUKKX3BeH6/rXewq0KlO2LU2UlqqQp6QnRY0cOX7lkSRlRY9Vmp6UubnG84nXerk1j2HarXGkpQudcIUeJMVUYTY1R1eCVrsLYCowjI1oeyspHmHIBU4Uw1UhteYO6lH3rvQ64lKsNXJK4KgFNjtDzMFYOxpJiHAnGkaKcHLCJiKUCcdFUArfU/QJagYClQJ3SxO4z6Z1CvZ1vHN2PW2wj8NtmHww4cGtRAOLWWmai2YzjVVFRaEhwrwCRPDtdnZumyIoFG34acmft+yj9lCNvcKvMjFJmRqskcUpJgjwzcf2KJUF9e+uUijd5pmx1MursHcbx13evb58cMqbLj5vdaZkiR6WYpxaytBhdi9J0KE2HMPQIU0c0jYChrW70upt063MmV3OXWMGlEvX1aHoBTQdK+9HUCF2F0BUIk2wEvEGHeiKJYyEoMs/QItxczG2nt9OITj8lLl+Mv7b6Dc22+jDAcVudAhC3Vjcltj4gk8GwatliL3enzOQYTV66ShpHuHC/QBDyx6H7Lm6VmbFKSUJWYtToIQOnThj/8M5tW1eeGH/dJVDjjcOamaj7VFrbaAEvP8BNJeRpUaaGrD8PGEk2uk7A0AHckqx9kxPjk3EL3MvEyVSwNxehqQjuqhGahqiwW5PBkaZFgGmbgnnMYtqFdXN+ePpks9Ac3gRU4JMUgLj9JJngSZ+lQGpSPJdJ2bN9g5Xhtpa4wLpVZsYqMuO3/7y8pwhNT0wwN8tsvVWvD8bvDnOkLGR1SgGJL1w0KFcrYOoEdB2fqvOl6vgUYkcsvQCh60GmJ9A+vHD7xqVc408Gpq0erOaCiGUSzxqwYbe6VUcyA7sWxFWpUI5U6LrVkzuG3jV64Vy8tOSznit4MlTAphWAuLXp6bPSwZ8+edzNkbVswSxVTqpSGgeyTLxXxbYp1nGr8zsqM6NUkliVJD4/LTZs1JCQYUMe3LpppVL++WG9fLxnWuiozq1WOzpkoM5qoYsO4ej5DJK1Oj5FDzb2gIXYWl5+xKit+xERM1WNWz2B23p70INCe1QdQtOgzFyUmyB0ncXuOlnoc+cUEZD8528Q9gAVsBEFIG5tZKJsaphPHtzrFSAMGRGUlxmvyo63NtyqJDEqSZxGmhSxZa3YxyNq1w7caLQpgT9vsLePH1jaN2C8fZudXpw8Pw815qhD2Hpg4FJ0fAeykbysS9NPeE/VAdMWWLcEs4GBW9tqvu6gFTjoUKoGpStQdobQcSufN57dNXr5Aryy7PNuA54NFbBxBSBubXwCrXP4JsP0yWG9/FFJcrQ6J9E6cFtt2qokUWDfbVa8LC1mxoTRA3r437h80TpVbLBRGcoLEyJDPbgzWV0S/T3zxK5qlK0T0IFFS+C2FpY1jHzjNP7okXdxS/ZTx9IlWUvRojQlysxBebGY41wXh2kiz/MHNA12d7AjqICNKABxayMTZWvD3LFlg6+Ha0LEDmvCbXVWKbALKDM2cuua/gHY7s0bcHNzNm3JB6f80b2oxXNHMLus9uGl+rnLMJ4WYRGGKaUQ7IWlEGUDKNWO35pV2A+xtsaE/SBua2xlBy3ioEGpapQuwziZIpcN3eijGR32zJ1c9vyhrT3RcLxQgT+rAMTtn1UQfr9eBRT5OT4erlvXrVBlJ1iNdUsu2cZqsuLl6dHzJo8d3q/n1bOn6x1/8zt4++yp2YN7jWR23MLnSUCeKU4BQi8QOBC5FR0KEQeihAAo11M37ul94pKf1qz4vuVMrrVua3BL0SAOKoSqwNg5IucEP/c5vK5hvk6/yDJwsy3myGx+DwW8oy+qAMTtF5W75VzsxtUrgUJ04awpckmsMitKJYlsitio2q1BZExyNBkhpclKSIvcNryP/5rF81pSjVWzNitpWDfWFHanKIFjLmHgFiK0Qr5DId++kG9fILDTg2avFzjoiKYVAG/wO00ncNCD9ibGqkBAKRA4FFQfr/6IDJsCJf8Qej7Glfi77xa5j6F12Dp9fPnTuy3nFwHeKVSgVgGI21op4JuGVKCipCR46ODxo4bkpoEy702KW3LVtjq1hSYrUZkZ//OiGUN6ig+p5dX3XHe3akPKYF19Vb5+vmfZ3FGcLsvdqMmII6g/jzAL+dRCPmU/36FQYFcg6KoHDUBXRzStwP79Rn4EoMsHrYCgdSGf5DRhHCNULdiAS1WhNBnGzBE6Jfp1W+TOHO/OPZGfSVToaxmKW9f8w9E0sQIQt008Ac348ssWzB/ct4ckYbcyK7rpcFt38w8ISNblpGTF7w0d1n/ZrCkvH98H+lta0H/996+cWT16UAi17SY3eo5fN5XQSYewdXyGnk8n8jLWepKpWgFVg9BqW22R+do3tR9pAFxpGpSmRukKhK5EmXKUmQ+2/TCzUVYGBjb/bPJ1HsPoujEspOzhHeKZb0GaN+PfcXhrn6UAxO1nyQVP/gwFkmJj+vgL4/ZsUmfHqaXRTeFMrmYtWDyWRCuJPMn6vLRta5cG9RDLM1NxYyVuIXP6f8Z92fipVcez08Z5cMMd2iUG+OaCekGuKsxJjTqqUZ4G5aoxrhrjKFHQFCi3umE8uZAnE/Lyhbw8jJuDcrIRdjbClgpYEj4z3RcUmU/ypiZ6UaPduka6dt3l1Hm7Y8ctjp028jqtdbJb6kIfx+gy1Im1PzXp/2PvLcCjSLr9/73yv+//vrLvsssu7C6W8bgT3D1IAiQB4u7JWPvMJMHd3QOEYBEshru7hgWCxIi7TWb6d7s7GUIgeHQqTz1Dz0x3V9WnOvlyqk6dQ9ZU0gC1DXs7f2pA878HASC334MiuMeHCFw6c3biqOErF4QdO7QrJY4xcBn9e/9Vs8j6HQ80Wrsl8cCWxNhtSXGRyXG7juzf4TljitDXI/P50w+1uuN/psx/s2tumKseJ7yvaaT18P3jh8VZD4kfN+jg2IHxo/vFjeobM6L33mHm0UPMogaZ7qTLtkEmmwYZrxtgtKqfwTIrwQJz7lxT1iyjXhGGPeT63TB+VwnvNxGns4jdWcz7TcT/XajXTWTYQ2LGQfro44Mt5OOGobbWG8KIPIo5E9gZWLcd/0kDPWxEAMhtIyDg7XcjkP0q3XHqZEISkBS/MyV+e1LMFk0KvHcPGF38jkLLZLel3KOo7AgHtiTFbEuM2Z4Utyvl4J61S+cN628VtXUTqdJeAys39VGEq+NkVndioNXC4QOXDRu4Ymj/lUP7Lh/Ye2k/8wW9jWaa8BUGbFyPheqzYUO2yEDHj9/DjfOHG7+buwHL20zgZ2UY2M9ENNQKHj1QYTtqgcuUtYFu25Cg+MURyWuXnNm+7lrMzgdJcc/OJKVfO5f34Hbh09SqvFyQ1fa7/XaBG7VDAkBu2+GgtZMmV5WWh/r5+LraH43ZnhwfmRS7ld4RVJd0tpkVl3FFpuzahANbqaxEsZFJ8bsP7osM8HSZNnni47u32wnF5mmmUnnuYJzj4AH2JgauZsaepkZeJoaBlqbi/r3xYYNmWo9aYDt+iYPNSudpa73cNof678ShPbMVscvmH92w+lTU9mtH4u6fTH5+6Vzm7Wt5j++VPE+tynxB5meRZfkkWQM0tXnGDNy13RMActvuh7DtdkClnh8RZj9xVOzuDccO7mDkljY3GaOz0ev3tXE1cluntYlxOxPidq9bscB6xJBNa1ZWl5VS1q0Wz2hWFRUd3bt708L5O5cv3bdmdfzG9Seidl6OP3D3WOLr61fyH94p+etR1as0VVYGWZBLlpeSVRWkCkhp2/1tAy1r+wSA3Lb9MWrHLdwTuW3iqEE7Ny45cXhXUuzWhAObmyrfOxRGndxS08ix22mt3RW/L1IS7OPkMOX5k0cUU+2WW5pALamsIUlV3Xoq5TXGHH+3R06L/z/z3RiCG3UYAkBuO8xQtsWOnE5OHDe036qF8pNHdyfHbWtKaxPoRdbvmjXordwmxe1IiNuVdDB6+8YVUyeNWbtiqTZEbWzdp0HjDQXktnUHAtTepggAuW1Tw9HRGvPozq0p1sMxkdfJhOiU+O0JMS1j3db5JCfRTlJJcTsS46OSD++dKZNMnzLhznU675sW+0l1tIcM9AcQaCcEgNy2k4Fqn83Mz8rwdrF3mz4h5dDO5BaSW43WbtbIbcrhPXt3bXSbYTs3HC8vLqBYalNoi/b57IBWAwIdjQCQ2442om2qP7VVFeGY2GbswIP7NrWI3Gq0dgudQ35bUsz2hNjIlMN75kYgNtbDjiXGU8uTWhfaok09FKAxgICWEgByq6UD32Ld3r5x1chB5lFbliYfjGzmyWSN1tJ27QEqIUFiTGRi3M74vVs9nacKAz2y059THQdy22LDDyoCBACBegJAbutJgH+bh8CFU0nDB5otm4cfO7wzIWZrQsyWBGovbONFXHqDEKOXzOvnR71oeBUjtJRpm3RgaxIV2mLnkZgdKxaG21gPOxSzmyRrm6eX4K6AACAACHyCAJDbTwACX38jgfTnqeOG9xcHuCbH70qK33E0ZhutuI3llnFOrt+V+0HF3ZB0QFM0YsycqQmdQavsga1JtGmbFBOZHB8Vu3uzh+NkLxf77Iy0b+wLuBwQAAQAga8mAOT2q9GBCz+LQFVJgZez/WTrYQf3bk05FJ0YG5kYu402c7d+4JUyfLe8Z+kymlqntckxG5NjNtWXzckxW5JjttaXbXRG2+3MKyO3a5bMHjbAYvvG1cC0/awBAycBAoBA8xAActs8XMFdNQRqaxbNCR/W33Lvjo3Hj+w/GrPjaExkQuyOhNgdiXE76bIjMW5HUlwkVWK30WVrUuyW98qmpFiNymoOPia3yTGR8dFbgrycbMYNT72v3VEbNcMBDgABQKCVCAC5bSXw2lRt/L49vU0MNq9dfjIxPung3sT46OSD0Unxu+tLVFJ8VGLcrqS4nUmU7lLSmxi7vV53tybFMuq7OSl2c3Ls5uQYqhyL3UKXrcditx2L3UZbt9uSY96xbhP2b9uwbO74kQOXLZytrCrXJuSgr4AAINDmCAC5bXND0vEadOPSJXNDvXAMit+780hM9NHYPYf3Rx05sOtozO7EuOik+D3JB/cmH9yTcjA6OX53ykGqJMfvSo7dkRQbmVSvu8lxW5PjKOlNjt2aErv1WF3Zdix2u6bUzyRHJsdEpsTuOLxnizTQw3bc8Cf3b9FUQYyjjvdwgR4BAu2GAJDbdjNU7behL/56Onn8uLHDB/u6O8th0RwFPjcMXzQ7bNWi2RtWLNy6fsWuLWv3Rm48sGtzbPS2Q/t3Hj0QlRATlRQXlRC7MzF2Z73VG5kcG0nl0YvZlhK7PSUuMiW2YdmREruD/mRHSuzOlNhdJ+KjI9csnj5p9MKZcnV1RfulB1oOCAACHYMAkNuOMY5tuhdVZeVx+/fZ2UwY0Ns8wNNNEuzv5+7s7TLd3dHOfYadt+v0AE/nYB83YYAXLAxQIMLZCnTxbEWdGK9dFrV59f4dG+KjNx/ZR+2jTYnflRK3MyVuZ3Is/Uod70qJi6JK7K5kqkQdj48+ER89Ew51tLW+fv5Um6YDGgcIAALaQQDIrXaMc6v3Uq3eu2unh9OMU0mJzx8/unP96tmTKYdi9+3cunHN8kULZ4cRkFAY4O3v6eLuaO9oZztt8gT7SeNmTJ7oNm2Kj8v0UF83JNRvJipaEI6sWTJr4/J529Ys3rlhWfTmVQd2rD8UveXI3u0J+3Yk7t+RFLMrJS761JH98VFbfBztIlBJWUFeq/ceNAAQAAQAASC34BloIQL3b97ycXW7fOZMg/rUpKpGWVlWUVJYnJ+Tm/U648Wz1Hu3L549dTQ+Znfk1k1rVy2aHYGJQ0J8PbxdZjhOmTRpzDC7CaPsJ46ZYTvOeep4rxlTAtymi/3ciVD/2aho2Sxi/eI5kWuXxezcvHim3HHyxJRD8Q2qA4eAACAACLQaASC3rYZe2yrOzczy8/TavW37l3W8tqaiuDA/O+vVs6f3bl4/czzl4IG9u7ZuWrt08VwFhoYEeDs5TJs01mbEkAnDB00ePdzeerSj7Xhf1xkTRw0L9vF89ezpl1UHzgYEAAFAoHkIALltHq7gru8RqKmoxiFkpkyuqv0ekRRVKlVlRUVRYW7G67TUh7evXj57LPlIbEx05Nb1K5YtmBUhg6VH4uMqy8reawj4ABAABACBViAA5LYVoGttlWuWr/Jx9yrMyW1OAmpSqawsLcnNzq6pBA7JzUka3BsQAAS+hACQ2y+hBc79NgKJh47a2069ceXqt90GXA0IAAKAQPsjAOS2/Y1Z+23xgzv3p9s57Nm1u/12AbQcEAAEAIGvIwDk9uu4gau+hkBBboG3h7ccl6tUqq+5HlwDCAACgEC7JQDktt0OXTtsuLJaOTNspsNUh+LCknbYfNBkQAAQAAS+ngCQ269nB678CgJ7ovb079v/7u27X3EtuAQQAAQAgfZLAMht+x27dtnym9dv9bPqt2P7jnbZetBoQAAQAAS+lgCQ268lB677KgIF+YVTbKcIg4W1Nd9j9+1XtQFcBAgAAoBAyxMActvyzLW9RgzBJk2YlJPdrLtvtR0y6D8gAAi0NQJAbtvaiHT89kTvih4yaOj1K9c7fldBDwEBQAAQqCcA5LaeBPi3pQg8fvB45PBRu3fuJkG695ZiDuoBBACBVicA5LbVh0DrGlBZVunu6j5vzrzaarB8q3WjDzoMCGgtASC3Wjv0rdnxBfMW+vv6F+QWtGYjQN2AACAACLQgASC3LQgbVFVP4HD8YYepDndv36v/APwLCAACgEAHJwDktoMPcNvs3v27D+ym2B2MOwiWb9vmAIFWAQKAwHcnAOT2uyMFN/w0gYL8Ql8v36WLltbWgODJn8YFzgAEAIEOQADIbQcYxHbZhVnhswL8AkuKSttl60GjAQFAABD4QgJAbr8QGDj9OxGI3BbpYOfw1+O/vtP9wG0AAUAAEGjTBIDctunh6cCNO3f63ORJkxOPJnXgPoKuAQKAACCgIQDkVoMCHLQogZdpr2ZMc1y5fGWL1goqAwQAAUCglQgAuW0l8FpfbUVpBSSGQkGuAq1/EgAAQEBLCAC51ZKBbnvdVJMb1m5wsJuW9yav7TUOtAgQAAQAge9MAMjtdwYKbvf5BE6knJg4ftK1y9c+/xJwJiDwBQTUJNjY/QW4wKnNTADIbTMDBrdvmsCzJ88cpztu2rCp6VPAN4DA1xJgtPb9NBhqUq1S1ypra6prqqtrVLVg5/fXEgbXfSEBILdfCAyc/v0IlJWUIxAiFUtLSkrKy8pLS0vLSsvKy8orK6uUNUq1+v2/lN+vbnCnDkNAI6vvPi8aTa2sqCwrKysqLMrNyU1/nZ72LO3R/Uc3r908f+b85YtXsjOz1ap3r+wwZEBH2hgBILdtbEC0pjnVVdV5eXmzZ84ePXL07l3Rsftjo3dF74nas3/P/sSjSZcuXHr04FFWVlZZaRnQXa15KD6jo00oo1qlrqqsKikuycvNy8zIfJH24tGDx9cuXzt94vTRw0cP7IvZtmXb8qUrwuXhUpE0KCA4wDfA3cWdQImL5y+plMDA/Qzy4JRvJgDk9psRght8CYGa6priouJXL1+dPX1288YtjtOdDHQNJttMcbCbZjPBZvKkyZMm2NhPdXB3cff19l04b2F87MHHD1NzcnKrqqq+pB5wbrsl8J61qlarVSqVUqmsrqqurKgsKSkpyC/Izn7z+tXrZ0+fpaamPnzw8Nb1W8eTj+/bs3/Dug3z58zHETzIP8jV2dV+qoPdZLtp9tOdHV083TxDg0NxBF8wb8HWzVv37t576sSprPQsNVDbdvuwtK+GA7ltX+PVblurJpU1ysKCwjs378Tsi5k7a66/r78wWBgRNnPLxi1JCUnnz52/cvHK9SvXL5y7eOTwkS2btsgJhZeHt7urhyhUvGHdxovnLr7JflNdVd1uEYCGf4KASqWqqqoqLy8vKSkpLCjMzcnNysyiNPXJs4f3Hl6/euPcmXPHko/Fx8TvjNy5ZtXaeXPmYQgmDhUHB4b4eft5uXv5ePkG+geJQ8U4gs+bPW/1ytVRu3YnJSRduXyFmizJyCotKVVWKz/RDvA1INA8BIDcNg9XcNd3CVSWVz568Hjv7r0zw2dKRdIli5Ycijv06P6j4sLiD/uOqsnSktInqX8dSz62cvmq/1vfFQvFq5avunLpSklxybv3Bu86BAE1mZude+HsheTElIOxB6N2RG1av2n1itUL5y8Kl4cTKAFLEYlQIhFJUBjDUSJcHj5/zvyVy1Zu2bhl3579SUeTzp4+e/vWnbRnaTnZOSVFJVXlVZSyNjH53CGQgU60MwJAbtvZgLW75qrV6tLSsrOnz4UrwoWwbu3/AAAgAElEQVTBwg1rN1w8fzH3Ta669nP/EJaWlN66eXvr5q3+Pv5B/kFxB+LycvPAn9F29yR8vMHqWnVSQrKHq0dwQLBUDEEiSE7IFy9YvGbV2i0bt+yN3ptwJOHMqTM3rt14/PBx2vMXWRlZ+Xn55aXlyiol9Sx9ztP0Oed8vJXgW0DgGwgAuf0GeODSzyBQXFiccCQxwC8w0D/ocPzhgvyCz7joA6coq5UXzl/EUcJxmuOGdRvfZOV81l/YD9wJfNQWCSirlYsXLHaY6hAfE09p6oPHmemZFWUVlB8TkMm2OGKgTV9MAMjtFyMDF3wmAcquLS5NPJLo5+2HQujN6ze/3QU0/VXGgnkLpzvMWL9mfU52LnBa/syxaPunFeQV+Pn4z58zv7qqpu23FrQQEPgKAkBuvwIauOQzCKjJ0uLSlMQUiVAyd9bcp0+efi8b5U32m43rN7m7uK9fuyH3Te5nNAWc0g4IXL101W6y3ZFDR962FRi1b1mAo45AAMhtRxjFNtgHVa3q4vlLkASaM2sOpbUf/Gm45aOp4w9dmPsmd92adVNsp+7asaustOxDp4DP2hMBtUq9ZuUa5xnOac/S2lO7QVsBgS8hAOT2S2iBcz+bQGZ6FoHJpGLp3Vt3v8mubcLEyXidOTNsptMMpzMnz4A4fJ89LG30xNKiUlcnVxkuq6oEu6vb6BiBZn07ASC3384Q3KExgarKqsitkXZT7FMSU2praht/Xf/+G1denz556u/rjyM45TYFftozgds3bg8ZOCQ6Kro9dwK0HRD4BAEgt58ABL7+YgJq8v6d+9Mdps+OmF1aXNrU5coa5esXr589e57+Oj3nTU5hQWFpSWlFRUVVFRUw+TMN4oTDCc4znA8fPPKNyt1UI8HnLUBArVJv2bhl9Mgx9+/cb4HqQBWAQGsRAHLbWuQ7bL2VZZVrVq6ZOtnu3u17H+lkdmb2nJlzfLx85Di1vXLThs17du89cujI8ZTjVy5eefrkWU5OzidjSOXl5MkwmUQoKSoo+khd4Ku2TKCksMTPxy80OLSkCAQwacsDBdr2rQSA3H4rQXB9IwKPHjx2c3FfvHDJx7f9PLj7YPjQEb906szuxWb1ZOnydA31jSzNLPv16W891trH02fZkmUXzl345D7dhCMJthNtT5041agZ4G17IXDv9r2xo8bu2L6zvTQYtBMQ+DoCQG6/jhu46sME1Cr1vuh9U2ynfty0JUnyxtUbA/oN7PJr157denbp3KVL5y4///vnTj92+uf//vNf//jXLz/9wurJmjRh0qb1m3JyPrbbJ+NVxgyHGXJcXqtscpH4w20Fn7YBAqpa1e6du63HWN+9fbcNNAc0ARBoRgJAbpsRrhbeurKsMlweHhwY8hEPKQbL6ZNnLEwtuv/RvVcPne5/djfUM9QT6LN12D3+7PHrz7/++M8f//63v//0r5/4PMH6tRvKy8qbgqmsVkaEzRw1YnTem7ymzgGft1kCpUWlBEb8X+DGshKwoavNjhJo2PchAOT2+3AEd2EI5Ofk+3n7rVm55pNAYvfHCjiC37v8/nuX3430jcLkYUsWLSUwWYBfgPUYa12+LiO6//Wf/zVowOBrV65/5IZHDx3tbd77zs07HzkHfNU2CTx59MTNxW3blm1ts3mgVYDAdyQA5PY7wgS3Ip89eebq7JpwJOGTLLZu3trjzx5dOnfp9O+fx44a+/D+o+qqmuLC4vTX6WdOn5kVMdvC1KLzz53/+fd//tn1z/Vr1qtVTezAJclHDx4N7D/oUNyhT1YKTmhTBNRq9aH4w84znK9eutqmGgYaAwg0BwEgt81BVXvvee7MOecZzjeu3vgkgtUrVnf7o3uXzl3+9Y8fnWY4FRe+45X6Ku2Vl7vX77/9/kunX3775TdIDNVUNhlKNy8nz2aCzfKlyz8iyZ9sDzih5QlUV1QvXrBYKoZysz+2PN/yDQM1AgLNQQDIbXNQ1d57xh6Ic3N2S32Y+nEEarV6ZvisP7r++ftvv//4jx/9ff0bB6ZXkTJM1uPPHr917vLrz7/6+/pXVTSZWL6yvNLN2e3jkvzx9oBvW4VAduabIP8gauriMzPotUorQaWAwHciAOT2O4EEt6EJREdF+3j6pD39ROTb6srqQL/Arr917fZH95/+9ROO4o34FRcWC4OFrJ6sP7r++UunX4TBQmWVstE5mreV5ZV+3n6+3r7lpU16VGlOBgdth8DVS1edZjifPnGaalKTawVtp72gJYDANxEAcvtN+MDFjQjs2L7Dw9Xj2ZNnjT5v9La4sNhxmmOXzl16/Nmjc6fOCIS8evUqOzs7Py+/sKAwIz0jLiZuxLAR3X7v1uXXLn92/XP+nPkfSUdfXVEdHBDs6+VbWtRkEKtGDQBvW52AWk0Fk/L19k1/md7qjQENAARagACQ2xaArEVV7I3e6zjd8eH9Rx/vc+6bXJuJNl1/7drjzx6///b76JGjcQRfMHfBmpVrNq3fFC4Ptx5j3e2Pbr/+/OsvnX6xMLM4evhjvleVZZUBvgEhgSEVpRUfrxd823YIlBWXhQSGzJ01t7Kssu20CrQEEGg+AkBum4+tNt755PGTTjOcbn9qT07a07RRw0f93uX3Hn/2+KPrnz269ejZrWev7r24LC6fK+jVvddvv/z2S6dfOv/cmcviIhCa/irjIzQLcgucZjgpCMUnN/t+5CbgqxYmcPvG7fFjx8fHHmzhekF1gEBrEQBy21rkO2a9jx488nDzOHvqLNW9plfjbt24bWVh9UfXP7r90Z0u3TRRpTr92KnTj506d+r8R9c/jPSNQoND79y6+5GZZJIkn//1fNSIUZs2bOqYTDtir9Rq9aaNm8eNHvfwwScmQjpi70GftJQAkFstHfhm6nZ25hs/b789UXs+fv/TJ04LuILff/v9j65/CriCEcNGjBg6wtK8t7GBsaGeoYmhyYC+A+wm2y2av+jBvQdq1cdvRl46f6mvVb+UxJRPnAe+bhsE1CRZUFDk5eXr5eVTBNIStI1BAa1oAQJAblsAshZVUV1ZjcLYrPBZtbUfi2C8f+/+br936/pr1y6du4weOebIQSoR0J7dezdv3Px/+3E3b9wcHxN/4/rNgryCT7JTq9Tbt0YOGzI89dEndh998lbghOYmoCbJqhpldl5+zKEjfQcPCRZLn796XVJe0fQ8SHO3CNwfEGg5AkBuW461VtSkJjes2+Di6JKZnvmR/q5asYpJS/BLp84uTq5V5VXU3LOKrCyvLCkqKSsp+/xV2OLCEkgMBQeCoLsf4d1Wvioqr7h27+Hq7TttXd17GpsMnmSLz18Yk3LsWUZmaRX1DIAfQKADEwBy24EHt3W6dvnCZbspdnt27/lIjCc5If/15187d+r8079+CvAN+Mgq78f7oFapr16+5jTdKWZfzMfPBN+2LoFaNZmdl78v8Zg3QvSfbGcyfqKVvYO57RSDMWMHT5seOnvOnuSUF5mZFTVN7q5u3faD2gGBbycA5PbbGYI7vEOgIL8AkkCuTq5vMt+884XmjZr08/H79z///dO/fvrxHz8iUkTzzZcdqMmykrJVy1f5ePlkvP6YMf1ltwVnf1cCSjVZXFZ+51na/A1bB9hNZ48cbTbdcVBQ0DCxZFBIiLmHu471uM59+hiMHSdeuCjx0pWMnNwqkEvxuw4BuFkbIQDkto0MRIdqRsKRxJHDRkbt3F1Z8YEtlepaUhgs5Ohw2L3YOj105s+d/9Wdv3XjdoBvwPo161W1n/Kn+uo6wIXfQKCyRvks483epOOeeBhvlDVngo2Fr18/qdQSgkwhqSkksYDEFqHBAifHriNHdB86dJizS8Sa9cevXH+VlV1R3WSU7G9oEbgUEGg1AkBuWw19B644NyePQAk3F/frV65/YEpZTR5LOrZo/iICJaQiaeLRxK9DUVRYtHTRUolQ8skQzV93f3DVtxCoVZP5RcVnb9yZuXrDYGc31tjxutOdrYRiCxgxhGE9BNHFUF0M0cNgQxgyhSRmwcG6Ts69xo7jjBw90sVdtnRl4oXLr7KzgaX7LaMArm1TBIDctqnh6DiNuXv7rqe716zwWVnpWe/3Sl2rLi0pfZP15kXai4L8T7sfv3+HivKK+Jh4N2e3vdH7lNVgwe99Qq3ziZrebl1RXfP4ZcaWA3HTgoUG4yexbCbre3qbisQmCKaPE3wc5+I4m6AKh8B5OK6LYYYIaiqRGvsH8qfP6DlmHHfU2BEu7vIVK09cvZ6Zm1f1UUf31ukqqBUQ+EICQG6/EBg4/TMJqMm4mHhnR5dN6zd9naB+pJ7Kysqzp866OrnOmTknM+MDcv6Ra8FXzUdATZK1JJlbVJJy+bp07sJ+Ux24Y6x1p003Cwk1RRADFNPFZFxCziEUbJmCJVPo0K9sQsEl5AKcMMBwIwQxFUtMAoP4M5x6jLNmjR4z3M09Yu36E9dvZubm1YAVg+YbPHDn5icA5Lb5GWtrDUWFxcuXLnec5rhn997vprhqsqy07NKFSyGBIYF+gY8ePtZWum2u3yo1WVpZ/eR1xsb9cRO8/dnDRnInTDLz9jEXiY1hRB8jBLiMiysorSXCWLIwnfrCkoUxisvHCQGO62GYAYIYQZBBUBDb0em3kaN6jhg5ysN77obNF+89epNfqASi2+YGHzToswgAuf0sTOCkryPwIu3F3FlzvT19dmzfkZWZVfttHqdqlbowv/DksZMohIYGhV6/ev3rWtWur1Kr1DU1yg+siLdqr6qVqtc5+UfPXpLMW2w11b77sBF6DtMsg4LMJBJDGNbHCD4u4xIKDhFGaS0RriN7p2gUl0vIeAQ12yzAMH0EMZJChkFBfEenHmOsBWPGT/EPWbZ11+W7j3LyC2uA6rbqiIPKv4IAkNuvgAYu+QICz54+X7JwiYuTy/o16x/ce1BaWvYFFzc4taqy6tWLVwf2HkAhNFwefun8JS30Rlapyfy8gps376Q+eZr9Jqe0rLxW3coRmVQkWVxeef3BX8u37x7v7c8bNY5nO9nE09NCGGoslejBsADD+LiMR9m1tNbWCW2EjiyCEV0WEc6mShiHnlXmEjJGdAU4ro/hJihmLoUtgkKNnNx4YyeajLOx9w9dtS3q4s17b/IKampbufsNnlBwCAh8ggCQ208AAl9/O4GXaS83b9wsDBFhMHYw7lD66/Tq6urPv62yRpmXm3f65OmF8xYKg4Url698cO/B54ed+vyK2v6ZpRVVB48kevgGBEng2UuW7dh34Nz1G0+epxWUlLaKB2+NmnydV7An4bg3HtbHfgZvoq3uDCezoCATsdhAKhXAEA/DuTjBxeVcSk3D2EQ4bdpG6BAzqSKLYNGf0HJbp7gcanFXTiuujI8TehhhhOLmCN5HAvf2DTSwm8EdZW0+YbJDgHDJpsiLdx/mF5eC2eW2/+iCFpIkCeQWPAYtQaC4sPhEygmJUOLm4jZ/zvwTx06kPU8rKiz6yPSyWqWuKK9If51++cLlzRs3B/oHMskPsrTSN4rxQrr/NM0zVNzTyERvwGAdqz6CwUOG2Dt4QOiKHVEHT525/fDRi8yswtLyqm+caGXci5nXJp4OFUmWVFRdT30+b1Okpa19r5Fj9Wc4mQYEGYtE+lIpH4I4MMxGUQ49h8wlwmi5DedQVmwEi5jZoESwCaZQcsumJpwVtNzKuZToyvm4TA+TGWAyU5SwgvE+IsjKJ9DIwYk7ZoLe6PE2/sEro/befPykoKQU2LlNjBX4uK0QAHLbVkai47dDTT5+lLph7QZfbz9vD+/5c+bvidpz/uz5hw8evkh7kf46PTMjMzsrOyM940XaiyepT27fuJ14JHHZ4mWhQaGBfoHLlyy/ce1GVYU2RtZV0R6/eZWVa3fvNR491tB6/DAfH7Pp07gTJ/45fPhv/ft3GzTYZMIkm4Bg6aJl6/bFHj1/5W7qXy8zswuKy6pqVBod+qiA1j+ADbVWc2X9l0xaxYoaZVrWm5jjZ90wBW/sxN+GjzZw9zYTio0kUgEEcWGYjaAsFGdhMjZt19JyG84l6uSWTcx8r0Qw88lsypGKUdy6Vy6h4OEKAa7Qw+RGmMwMIfogRB8xbOkfzLef8duQ4TrDR08NEW08EHf3yV/5RcUNutug0d9wqFapVbWqWmVtTXVNZUVlWWlZcVFxXm5eVmbWq1evnj199uLFy7LSsq8ORPoNTQOXtjMCQG7b2YC19+ZWVVTdu3t/T9SeubPnioVip+lOPp4+C+YtWLFsxZqVazau27hqxeqF8xfODJ8lw2SQGMJRfNP6TVcuXSksKGzvff+69jN2bRVJnrp919rLhzVmjJWvT3+x0EoitBSHmoUEGfp4sac7dJ80sdvYsT1Gj+GOte433XmaGEGXrNqwNz7p/LV7qX+9zMjKKyyuqFZ+SEDfa1fTiqusVecUFZ+5cTt85dohTq7scRP4052Ng0JMIEQfRgUIykEwNoqzaaFl4Qo2Ttm1XILS2nq5pQzcd+WW0do665ZRXM0rh56F5uJhDURXboLKzBHcTAIZ+AboTLXvNnK08URbFwm8cc/+6w8f5xcVf930srJGWVFeUVJcUlRYxAjqyxcvUx+l3rt97+qlq+fOnDuWfOzwwcP79uyP3Ba5bvW6ZUuWzZk1Z8O6jU9Tn6o+D+17rMEHWkQAyK0WDXbb6Wp1VXVGesalC5fcnN0G9h84K2LWzPCZYbKwiLCICEXE3Nnz1q1et3f33rOnzz7962mJdqdEVZFkFUm+LCoSL1jEGj7CyMXZUhRqCosNEYkBItGHxQZSkYE41EgUahwcpO/tzXV00plq32uiDWvMBKOJU4c5ebiIUdnileuj9iedu/rgr2cZb3KLyyo/sYe1oeLWPzdVVTWPn7/euj9uWohIMNa625hxum7uJiKxEYzqoTgfk3FRgoPJOJTKUkLLxsM49UL7rtwyittwGrnOW0qjsg0OqBVfDlUo5a4XXYU+JjPECGMEMxFLjHx8BXb27FFjzCfauEHw5n377z99WlxaWt/wt/+qVWpljbKysrK0pLQgv+BN9pvXr14/f/Y89XHq/bv3L1+8fCzpWNyBuOhd0du2bFu9cvWi+Ytmhs0kUAKWwJAEloqlEpEElsAyXD4zfOa82fMWL1y8Z/fe1y9fa6Hj3lus4OjzCAC5/TxO4KxmIFBTVYOjeJB/UMbrjPRX6S+ev3j54mX6q/Sc7JySopKaKhAyl5qhVJFkTlX1xoOHjawn8CZOsgwONoEkeijEx2EeDlOvKMRHIV0UMkBhQwQyhCEjqcQwNFTXy0fX2U0wdRp/vK3+mIm9J9mPdfF2FSFhy9ZExiWcunY3Ne1ldl5BWdVnua0VFpeeu3xTtnDZALtp7NHjuPYOer5+RlJIH0H5KM7DZBxMzsEV9cu0lNAyRWPaNrBuGXF9/5Vau32vUHLLlAaWbhgfV+jicj1adM1gpLdYYurlxZ88mTdmjJWNrYdYsjMm9uXr9Pz8guys7LS0tNTHqXfu3Lly8crJ46cOHzxMJ1fesnzJ8vlz5keEReAoDktgiUgiDhWLQsVioRiFUYVMMXfW3OVLV2xcvzE6KvrwwcPHU46fP3P+5vWbjx+lvnrx6k3Wm/zc/LLSMjVwkG6Gvw8d75ZAbjvemLbhHr27eJj3Js/X23fJwiVtuMWt3DQ1SVaT5Kn7Dwc7u/QcNdrS189SIjFEID6GsHGELUO5MpRLoDwC5eEoH0d5GMLHEF0UMcBQExTtjeJ9IMQqWGjh5Wfg4MQbb9tr+BjWkFEm1rajXb29ifBZazdFHUm+fvf+s1fp+cUl1W/Xed92vFJZm5aRsXlPzLSAEBPriYIJNqae3ibBIYZSSA9F+RjOpSxaOZve6tNQXN8/ZgRYI5/vHVA7hd6VW+aTd4SZtpjDuHgYF1fwcLkuLjNEcTMEtZRKLUOCTT3cdG0m9ejb12TIECx85voNmxYtXKKQKSAJHBwY7Ovt6+7q4enm6eXu5evtF+gXKBVJZ4XPWrJwyaYNmxhNPXn85PWr1x8/Sk1/lU6paUlZdVU1WJp9+0CAo68lAOT2a8mB676CwLtye//ug6m2U+Ni4r/iTlpyiZqaRi4RLVnaqU8fA1eX3hKxCQQboCgPQ9k4yiJQjgznEnWFR+A8AucTOBUmggrPhBtguDGGm6K4BYJbwZiFUGwRGGzs5imY4sC2tuk+bFS3AUN0R44d6+4TGD575c7o5EtX76c+eZmRmVtYWFFdU6NS5xWXnLx5B1q8xHCsNWvkaBNH5z6BIRYSyAiC9WCUh2IcjGDTdi0zgdxo9riR4mpM3veEViOojL42fNV8pbFxwzl4GAdTcDAFFwvjYwrKdRnFjRDUFIIsxaJ+wYGGUyb/m8/vPXSYp4+fp5dPSIgQx4gli5Zu27Jtz+49SYnJF85fuHPrzrOnz7Mys0uKSqiw25+1rK0lzx3oZrMQAHLbLFjBTT+HwKkTpydNsLl14/bnnKyF56hJsqS6JirlhJmdQ4+JkyxEQlMENkBQXRTn4Dgbx1kEzpbJOERdqQ8QIeNRsZlkfFwmwGW69RtpjDDCEEHNUMwSRvtIYSuR1NwvUM/JRWfCpB6jxvw5eBh35KiB0x2dxRC2cMnqHbsSzl44fevO+gMxdiIxb9y4HtbjjDw8LUKFZhLIEEZ1EZyH4BwUZ6MyFirTLNYy67VNia5GbukdQZ9lyzYS5ro7UHJLFR4ezsfDmFllXRQ3QFBjCLKSiC08PXsMGhSqCLtz/8HTZ8/T0zNycnIrtdKtXQt/cdpsl4Hcttmh6fgN27t7r8NUh+ymstB3fACf6KGaJK89ee4ghnWsJ1iEhJgisB6KClCCi8nZuJyadJXRpX69k47KpOBSsZmowsMV/PoioPbSUPOu9B5WwggjjFHcDMUsYKS3RNpbKDTx9hFMn86ZZMMbN1531BiL8RNHu7iOdHYxHD+eO3GCoZuLcaC/sVhsCEF6CMpHcMorCiXYKMFC5SxUzjhGNXxl1lkZ/yZ64pea/q07AVOwqSKni4xyY64rzCeMpxXlbKW5SUOdpo5preXWy62AXscVYIQuiuvDiJkUMvXx+WPIkNnr1n8CMfgaEGhBAkBuWxA2qKoBAVWtatniZV7uXpXl9FZaMJXXAA5zWFBeMXv9Zt5oa0NXdysENUBhHoZxMTkHC2Phbx2IGtp/GlniEuE8IpyHNyxhvHoNZqRXHyMM6SiJZihqDkGWUomVUNg3KNDK08vS0Ul/wqT/NTD8h4WlqbenlVRsDIn1EIiPoFwUp4VWRtm1mJyFKVgY7YeM1aspHlanptSCrpxyoaImfuVstK6wEIIF4zoQpgMhvSBYB4J7QUgPCdRDAvWSojowxkZwNqXlMmqamlFljVQzDs9YGJcujHXLx8MEuIKPyQWYTBfBjCHYyNfvR6s+0MLF4LF677ECH7QaASC3rYZeyyuuKK2AJDAGY2pmjyT4u/juA6FUqZMvXhno4Nhr7Pg+QrEpgggwlIPjHMoubLSRRrOjhjrg0IVLRFAFb1CoT8Ipz2F6Dyu9o4ayd/UxKvOdIYYZo6gZiljCUD+pdJBIbOXl86++/f85YJBZcJA5DOnDEA9FOChWJ4QoJbQN55BZqIKNMUKroE1eGQujCocyx2VchGDDGIcuPATXw2RGcoVpWLhZeLh5RIRZeLiRTKGH4tSGIgjhSKQsiYQlkepIERaMsxBqeZiS8HrR5dTLLbV2S88n83FqEVeAygUIbggjBn4BfzO38FVEfN0G3HeHArwDBL4PASC334cjuMuXEsjOzHZzdlu9YvWXXqgN56tJ8nlmjjdCsIaPMvXwsoRgQ4TyAWbjMlpyGoWJaBykiUPM5OJvC4eYWV8iGPOX2a7Dozx7FXxcTi/xErRrFSW65gjSD0asgoT/Hjby74OHGQeFGMOwAEE4GMbGqFhRjFGrET/mgIUq6ELNLVOruZR5irNRnIdgfBjVhRBjBOsbHjFq0WK7DRv9oveiRxNnnjw17+y5BefPzzt7bs7pM7LEZOH+GLctWycuWTw4ItwUgXlCEUskZklhHQhjITL6vxr0dt56ueXVyW04JbpYGB9V8BHCAEb1A4L+x6K3O0oAudWG35f20kcgt+1lpDpaOx/QbsnxscAtufHIqkkyv6x8XdQ+/ZFjjac59hVJTGFEj97bysYVLDychX+N3NYHcqJCONXtpakPHEEv8VLRiQU4oY/hRihmieBWYvinUdZ/GzjMMDDUBMH4KMbBcRZG0KEZFZx6Q5PSWsqoDWMWcelXRmgxDoLyEEQXgo1hZHB4hMuGDYqjRzbdvHn05csrBYUPK6ueq9QvSfI1XV6pyRe16kelZRcys+IePlh99rQwatf4+fNNYIgjFPUUSnQgjHbLotZ9GeuWh4UxhTZwwwWU4ip4qEwfwQ1DhH/vO8BRinzWnuLGIwDeAwLNQgDIbbNgBTf9JIGTx09OsZly9dLVT56pVSeoSbJMWXv0/OXhTm5c6wl9g0MtYdgQwQSYjEvPprLw8HrhbGzUMp8zhuz71m2DqzQ2LhNbMYxH0Mu6hJzxZ9ZDcRMYs5SgncZM+q9+Q/T9g01RQoARHJzg4NQWWzqcBb0bhxZdxq7VQWQ6COWlrIPgbATjIggfhvUhqA9BTFu1elZCwuGnT2+XlLwkyXySLCXJSnpLcQ1JKumI0LV0QA8V/WExSaYra65mZe24fi109+4h4RHcUHEvEUQt+tKeWW9dpaiNQJTo1ituGB+T66OEqVj646AhtgHBJSAAhVb9/rTtzgK5bdvj03Fbt2vHLufpzi+ev+i4XfyantWS5IPXmR64/M8hw8y9fXpDsBFCmbZ8TM6l3HEjqPKBEP910ls/afx2JpmLa2aSG55DLfHS67t1iktPLyvqkvBghBGCW0ixn8fa/ofVYIF3oBlGbSiiNxrJabfnBt5u/9YAACAASURBVGGQ8TDNNLIOQmi0VgBDBlJJHwz137Z99737d4tLckmyhCTL6ZiUjMqqSGqza8PCIGNiaVWTZB5J3sjJXXbmrPXSFXwIZSP0VDYqp/fdUt5SlNA2kFtqBRdXGGAycynSaejwMW5e+ZXKrxkGcA0g0AwEgNw2A1Rwy88gsGjBIn8f/+LC4s84V4tOKaiqXr0vhjt6bC/byb3FYhMUoSM3ETxqBjWcsVkZTW1grTbU0Zlcgi4N1m4bXvWO7VvnPMUkD2B23VB5eHiY3BAhzCGis/WUH3oP4nkFmGGUUxUjxo3klkuEU87J1MKtnFVn16J8CDKCpEMU8qDt248+e/5arS6tF9raBvr6yXFVk2QNST4nyRU37gycv5iD4Gyc2XdEbxOqn0ymppTrfLCpoMr6mMwcQjsNHTnIfkZ2cfknawEnAAItQwDIbctwBrW8Q0BZo0RhDIWx6koQGLmODBWvUU2evvdwQmBQ97FjjQL9TVFYH0X4GMbDCO57cqsxZN89YGzWd6zbz5NbKgcAXajdugaIzAKW/zbB/gfLgVxPfzOMClBMyy2zqZexbuvsYzYeRnkpU/t8cA6C8iFYXyIZopBj+/efSk/PooWWmTpmZow1r7X0NLKKnkZmKDSydJn0DG/U5K7nr0YvX8Vl5JZKN0Q5RWtWcJkNuLTiUnKrhxKmEuSX4aMtx9u8yi1458kDbwCB1iMA5Lb12Gtxzfk5+b7evqtWrAKx3TVPQS1JpuUXiRcv5U4Yr+viZAaLDTBYgKG8uqDEYfSunvd0lLFl62aGma0+4XW7gN5+yOjiB1+ZyWQmEy2VAo9DMHIrt4Dlf9jO+MFiINvdzxwPp+VWo7WN5ZZymEJlHATjwYi+VNoPw0Iid5xIT8+htbaaXqBV0q819KptkbImvbj4cXbW/fT0hxkZqVlZabk5b8pKS1SqqnoNVtPnF5HkmaycwOh95rIwHkpwcDkLI6goH5TcMnEcqVCODa1bPZQwFsNdRo/XHz76WcYbDWFwAAi0LgEgt63LX0trf3z/scNUh0Pxh7W0/x/qdnFV9bZDRw3GT2BPsTUTBhljEl0c5mMol/JRUtBbZiMaOkDVHVNyW+f6pIlx8XUHdLiMhnKr+HOy0w/mA1muvhZEhIDKQKCos4DxcA6uEfXwuh1BqIyLYAIIsoAgj3XrD6Y+yWygtYwhW0WSBbXKh/m5Cffvrko4oojcLtmwVrpxPbZtS3jUzg0njiU/SX2Qm1tYq6qhTd5SkrxdUKTYF9cfk+tDKJ9K8CenthgxATQopy3Kb4sKntxgMlkXwY3FcPeJk9kDhj5Me/0h2OAzQKAVCAC5bQXooMqzp85OnjT5+pXrAAVDoJYkrzxMHe/l23XwEFNfbwtUYoBLBAQTRkpG+zHR8vbeiizj7lQneA0353z5MQsPY9GaSk8myy1gRbcpzj+YDezl7GNBRPCZyJFMIltq5084B6eUnkswcqvgoDIuhOiJRdazZ2+5fOWlsraMdjPWTB1Xk+SbmuozaU8Xxse4Ll44HJL0DQ2yDPa3CPa3CPK3DPIfjkIuy5eGx8QcTn3yrKS0mCRTyytWHDs1WhZhJJTqwYx79lu5ZUS33tJlDNwwHh6mixDGYoQ9dVrPPgNvP3kOnjFAoI0QAHLbRgZCu5oRvSt6mv20tKdp2tXtpnubXVw6a8367gMGGUyf3kcqMsOk+jgkoNLqEdy6JLLNLre0ZivYuFwjt92nuvxgNqC7o+c7cktrLRXZCtOs3VIrqVyU4ImlxkIRtHv3raKiMtrLSeMYpSTJ3Jqa5McPxds2DccgC1GoiVhoKA41lIoMIJG+RGggFuoLgwyFwf1RZNrSpYuOn0x8lb7xyo3JC5aYhEoMpIgAobLqUvGi663bd+QWp+e3KRs3TBeRmUox/jSn7r37X72f2jR18A0g0KIEgNy2KG5QGUNg3ux5Pl4+hXmFAAhJkpU1yviTZwbZT2eNs+4bEmKJQEYYrIcjfCqhnpxHBaNgZm7fW7h9x75sELL4y03bevu4Tm71Ebk5rOjl4P6Daf8/HNzMqQgSdF4EnInUSGktI7ccamJZwcHlPBQXiCQDMWzn9Ru5tF3L7PMh6bXYIpXq1NOnoRvX94fFBsIgPYlQIBULEKkAgfiotK7AYr5UJBCG6IUED5Ir3DZttV2ywhxCDcSwHozxEIyL4lyMyovQQGjrW0XlM6DWoXl4uACRmcG4YIbL7+Z9zt64C54xQKCNEABy20YGQouaoVap/X38CUxGZe3W+h+lmryV+tRVinBGjrHw8raSSk1gRB/DBTjBI2T0rpt6rX03NGP92q1mOve7yi0qN0cUrOmeP5j2/22qkznWpNyyqd3AVAYCPoIZiMXOq1ZdzslhTFsmDLaaXsG9m5tLRO0chEgNJUIBJOEhEBeBuShVOBjEwSA2BnEQCQcWc6VigUQsEIqMIdhADOmKIYEU5sEoF0Y5CEan/CPoYJaM0L6VW3a9gctHZKYwpufs1tnY4sSVm1r/iAEAbYUAkNu2MhLa046y4jKbCTbr12wACb1JkswqLIlYuYY7YpThdMe+EsgMRgxQTIDL+LicR+XRqzdt31+1ZT55u3r6PeVWD5WbIQquk88Ppv1/tZ1hhoYJmrBuqTR5VJp3GR+CTcTiOQkJL5XKStqiZR7pWpLMUdZGnjs7AkeMJUI9BOJRKotwUJSDIhwMYaMwG4VZqJQFi1lSEUci4knEfLGEJxRxhSKeWMIVSzlSmAMjbARlI3SOBMp97ANyy4S/4COEKYzqu3n8ZGCScO6y9vxmgZ62cQJAbtv4AHXA5j159GT4kOFHDh7pgH37wi7VkmTC+Yt9J9v1HD22b6ioN4obIpguJuPjigZa28SqbXPKrS4tt7puAT+YD/pl0jRzNExAJbWltt/QEZLfTiZTG3JwORfFeWJJPwzd++hhIT2TrMnwVEOSjwsLpVu3GAT66cMS/lutRTkoysUQHkolO9JFYa5YyBOGCpgSGioIDRUIhXpiia5YIpBAAhjlUXKL0lmJcA6VrUGjuHXJgpjgjnyEMIFRQw+vf+kZxR47/YVjAk4HBJqLAJDb5iIL7tsUgYQjCcOHjrhx9UZTJ2jP5y9zcgIU4TrDRph4ePZBUFMq/TshoBL1hNXbtfUzyS1o3VK5+VC5KaLQ9wz+z95Df55g34TcUm2j979SO275IvGEBfPP5uUxM8maQawiyZN/PZk6e5ZucAAfgertWoyDYlwUNZARI5Yutdu40WHtWvtlyx2WLp22ZKn94sV2ixZNWbTIbunSactX2K9YZbdqje3a9QMWLOQiKIdSXJxdt/uW3gtEzWaHaQIpC2i5NfLy+aee0e7DSZqWgANAoHUJALltXf7aWPuSRUutx47PosINafVPRVXVhl1RBiNHGzlMsxKJTRHMAJNRadKpfLTMHHK91n5w1bbZrFtKbjG5Caow9hX9f/1G/mQ99UNyG87GKNckysRECSrAhVDkuGr13erqcjo8hWZoy0ly54ULg6ViQWgwD4U5KMrGGK2lvJ8GzJ0/+/yF+OdpR588TX785Njj1GOPHqc8fJj48OGRBw+OPnyY+Pjx0dQnB588jX76zD82Xh/FKMV9T26ZbPPMKyO3Jj5+PxqYbNwTo2kJWLx4iwIctQYBILetQV2L66xV1gYFBDs7ulRXarWfVK1Kdena9bH20wQjRw8IDLJCUEOU0MXkdJB9agsp7Y380Wnk7yS3zHonZRpS/syUZzKXipCsMMXCTAIkfxsw+l9jJ39Ybiln4DBGbtkwygsVuq1b/7hW1XDhlqTTEqxOTrIShfCEIVwUYWMoi8qbi3FRjAejY5YuO5iZlUmShbRHVRU9EV1FH5fSiYPKSLKYzlXwjCTnnb9oSsi4EFzvMEVNJlNT2dTiMZWxgElawMitqV/AT8ZmK7bt0uLfNtD1tkUAyG3bGo8O35qCvMLJNlNQCO3wPW2qg8yi5sv0dDGMCCytBru5DxZLTRFUr9605dMBklpObuunYTnYO3JrgipMA6H/f9CYf4yaRMltY1epcNZ7cuu1YeNfKjUThVHT/SKSXHL0sIUwmCsK5WAIC8N0MIxFyy0fRsYtXpKUkZlPpwnSLPeSdBoDVX00RyVJVpBkJkkuvXDJHMV4UqjOYao+tpRGbpn0twKEMEZQ88CgTiYW89du0rQEHAACrUsAyG3r8te62h89eDR44JBNGzZrXc8bdFhNkoeOHDG3sjIdPGRcSOhAKWyEoAIqvoQm9m9LWLcau5axCxvJrTGqMAuG/3fwuP8dOdEMUejShu9bVykqy30Yu4F1yw8V+m3e+oIWztoGnS0hyVXHUixEIVxRKBtDdWi51cFwDooJYGTcwkUp6RllDTyZG1xaN/vLJMHNIcmV5y9aIihPIuUgqGb3bUPrlsnHR0WVQlDLkNCfTC3ki5erGt4RHAMCrUcAyG3rsdfKms+cPNPHss+Zk2e0svd1nVap1QcPHbLs09dk0JCRAUH9pbARivHr5Zb7dia5eSeTNb5FTcmteQjy9yHWfxtmbQpT08vveCbTcsvCFSwmZwCECkKEvhs3P1epG00ml5PktosX+kISrlAjt7gOFa0Cr5fbzKbkluGlpsU4nyTXnLvYG0b5n5ZbmTGCWglFncwsJTPnVTe0mrX5sQN9b20CQG5bewS0rP590fuGDxn+4vlLLet34+6+ePECI2QGffqZ20+zCg41QlA+tdeW8UluYNp+xEnqm9dumQR2mlVPDkbFYmTWbgW4whhVWISifx9q/d+Dx5hCMj2M2vDDebsRKJylUVyMYEMoP0TouHzl7dKKygYJ9Uja2D344P4ohZwXGsJFqYVbHYxgYTI2SvBhdMTcBbsfPH5SXPKqqDiroDCroCA7P/9NXm5ZRXlDq1RFL+6uPXvRipJbCRtB2CiVap5eu1U0mkzWReXGCNpHLPnZwsofV5SDBPONnz7wvnUIALltHe7aWatapV62ZLnjNMeKsgrtJNCw1w8ePvIKFbGHDhfMcDKSSPVwgo/JGmwBimgqUfw7eYG+IczFu3KroKSUWQ3F5AJcYYQqLEX4P4dP+K9Bo41FGCW3mJyS5LqYyRG03FJTyixMzoYxXqho3MzZSc9fVrwrtyqSvP4m13PVaoNQIR9G2BjOorfMcii5xXrLwgJ2RC1MSF5xOGFN/KG18XHrY/Zv2RN98/69anWd4KrpGxaS5LqzF/rACI+RW4yRWyYHX52fVJ2rFCo3QtA+EmnnPv3cpUhxVcO57YYjAI4BgRYlAOS2RXFreWVVFVUSkRSWwFrOQdP9K7duT/Tx6zJ0ON/D0wTB9DGCT2Vx/1QkqYZ7cL+P3FIGoiZOE4fOUmCIKnpLiH+PsvnPAaOMQmADyvu3kdwyiks7WCE4TyTpI4XXnD5X8N5C7BulanXK8cEYLhCJOTDCQnE2LuPiMj6K68OoBYINQPGhKDIcko6SiMaFBE3y9dp1OL5cpWQyzzM+U0Ukuf7cxT4wzBWLWQjCqpfb+rBWGudkBR+TGSJoHynUdeBg+4DgvLIqDXBwAAi0IgEgt60IX+uqfpOV4+zosmbVWq3redMdjj152mSSbdfR4wwDgk1RQo8KKdXCcstMxlI7auqsW1zOwxUGmMJSIus0bsp/9h9pGCgxxBS8puWWheA8CWIYHBq6LfJJReNY2EqSvJaZ7bt2g0mIkCMU6kBSDobxKGse5yOoAIJ0pRI9qchQEmoqDLYK8O3v6rg+bn+xWllDb+GtpV+LSXL9+QtWEKSRWx1MxqIscqowWW+p6M24go8RBijaF4a7DRsx3t0rq7C0afzgG0Cg5QgAuW051qCmh/ceTrWdehhklW/wKOSXV8zZtFV3vI2OrZ1JsMgEIfQxBR8P5+IfSibf0K79hrXbBj7JdVpLWa4N5Zag5VYq/3XitP/qN8LAT2SEflxuCR6E6oeIJs6am/I0rbxBB5nDIpKMvnrDYeFiQ2EoWxTKhSE+hvAxlI8iPBTmoRAXlQowqT4kMhcG9ffxWHc4rpCsraaFVkmby8UkueHCRUtIyhWLWCiig+GM3GoUl9Fdeu2Z0ENRKxjuMWrMyBnOr0HiqfeGA3zQKgSA3LYKdi2t9OSxk3aT7a5euqql/W+i239lZiNLV/LGTOxlY28WKjVB5PpYGL9Z5Zbea0t7GFFTxEx5R25xhT6msIDkv9s6/nff4freIcaogk+d+XbtlsrBR2XfC6MWfVEZH8b0hBIroWRZQlJGVU2j9VIVSaZXVUdeuWq3ZJGpVCQQh/AlQj4kprIDQRIuJGYjEh4qEUhCjUMDR0hCthxPKlCrqmmhVdVbtxsuXrSQSjgSkQ4lt5TLFS2xzHZhBbWKTHlKyzg4roshvRFYx3r8gMl2aVm5FHjgn9zE4wc+bjECQG5bDDWoiIzaGeXh5vn6xWvAoiEBNUnefvbCCwvr0m8I197RQowYo3Jdag/uZxi4X7V2SztJvbVr35dbLibXxxSWsKKbnet/Ww3T8wgyQalAytQSLyXVVARHNhbOqduzFMbB5DwE05VA+gFBrkuWn3r2ouw9gashybTKyqib1/23bBgZITOXhBqGBlK5b0ODdEOD+MIgA0lobwyynh2ORm459eRRGa2yavo+SpIsIsl1ly6aS8XsD8gtlQ2pblcSTnBwTIAhvVGEM8nGcvyk1FcZFG0gtw2fOXDcGgSA3LYGde2sU02uWLYy0C+wohS4JTd+AmpJ8sKdB+M9/bsOGKrr7GEqRgxRueBzFPcr5bax1jaaTOZicj1UboEoek5z/8/eQ/mu/ozc8uqTAdD+yZrAzmF1SYEgRBAcMhBCZsfEPS4qrnlX42rpAI3ZKuWZF8/WnTkh3bnVdcVi+4Vzpy6YO3XhPLvFCzzWryFi9m+5dOHy61c5NdW19ZerSbKGjuO49splCwSql1tqMrneuqUM3MZyi8A8G1ujkWMeMLvOgNw2fujA+5YmAOS2pYlrb30qcvnS5W4u7s//eg5Mjfcfg2o1mXzxylBHt24jx+l5+JpCuAGm+LTifo3cMptn6uaQG04m0ztrmSjEMj1UZokqes3w+A/LwSwnLxNULkDlPMo/mbq8zkGpzok6jEMoOBjBRVCBFDIMEY4Pi9h8+kx6eUVDxWXs1FqSLCPJLGXV/ZysC8//Snl4P/H+3eRHD4+lPr74+tWDosJMVa3GrmUoqeggjq9JcsWli5YExoYk9GRyndzS69B1O4ZZuIxFW7e6GGKFIALbydwBg89fv01JLZDb95858EnLEgBy27K8tbk2NZmSlOLj5bts8bKXaS/VKvD3r/HToCTJHUeS+k1zZk2aahIQagoTBtQW2LCPuU19sdwyfryNtbZuPpl2mOLgMh5G6KOEJSrXcfT8wXJgz+luJqhMgMl49EKvZpWXcgmmFJdKVMDBZVzK0xjTk0ImoaIZCxdHX7uRXl7BrL/W0ntnGcXVvDLRGatpq5d5ZVyRGwa4IOlv81Tqa4VF+KGDpijCgSEWleeA3ndLaz/lkFwX0lnGxgkejhmgSG+xWHeSTVcD40Ur16a9eKVUNlpNbgwfvAcEmpsAkNvmJgzu/5ZAXm5e1I4oFyfXBXMXvHj24u0X4KiewJvi0gVbdxrb2HWfMNk4WGQE4/p0Sr4mFfdr5JaxX5tQXCrBjoxPy60FImM5e/1gMaDbNBdjSm4JHkZwMRmd2r0uuzu1A4egrFsuQSkuDyMECKYnlliIJM5LlkVdvvqkoJDJgNtIROt7/PZfRobfvqePVCT5prLq4uuMZceOT162VB+GuNSmW4xFh6ZioXI2KuNidKH38nIwTBdFDURCPVdXzohR+v0HOXl4L1y45Mrla+Xl73tMN6oNvAUEmpEAkNtmhAtu/T6BN9k5WzZtnWo7dfGCxdlZ2XUntFVDt7qquqK8sqqyqiWnIp+8zpQsWv7bgKE9J9sbh4iNUZkutRG2CRv3e8stF5PzMUpZDRHCApFx3X1/sBjwh52jMYILEIyLYFwM52A4G8fZOEEZtYSirsgUXELBrVNcVE8kMROKHOYvWH404XpWVmFtY+Py/TFvJLdqkqxSk68Liw5dvS7bsWvS7NnmCCyApVwqYy5eJ7d0MEgOinNRnIfhPATlSaW8oKA/7ex7jh03zsN7xeZt23ZEBQYEe3v6HD18tKio+P1nEnwCCLQMASC3LcMZ1PKWQEFewarlq6bbT9+2ZXt+bv7bL9rGkUqpys8vePjw4emTp/fvPbBrR9Te6L3HU47fu3svNye3BXRXTZK3nqZNCRZ1HjCE7+xuIoYMUUKAK7hU+As6smPD3bdfJrd0OIi6HLGURchrUPiUUUsVXUymj+LGMGYhRbmuXj9Y9PvF2sZEJNWXQAII5iEIkyKeRYluneKyCQVHHsaVhdE2LsHDMD6M6ApFxkFBo3Ec37Xz8P17z/NyC2qqK2l/YyZQVG39Ph/mQEl/VUOSFWqysFqZlldw4WnauiOJ7nPnD5VIzUUifamEqZ2DE2wqyQHBQQlKaFGMDpcBc4NDerq5d59qx588xVmmSDx/saxaWV5ZdTzlhI+nj7uL+749+9Jfp9PhqtrG0wZaoU0EgNxq02i3mb5mZ2YvW7zMx9NnX/S+osI2ZHCoalVPU59u3xrp5+M3ZNAQA10DXb6uHl/PysLKzdlt7aq1Tx4/qW3+VcBakky5emust3/3MdY8Vw8jCayPUgkM6PiO7+4O+gK5rVu15VDrrzIuNTNMWYR8DBfQRRfF9RBcH8YMIFRPKNYLDNb39utha/d3qwE/DhrGdXThefnohoQIJGI+DPFQlBZdnJI9XMYm5BxZGF0UXELGxXFqHZdSXKFBcHA/sWj6ogUzY/bvvnb5bNrzB2/evCwpeVNdk6tU5SlV+fUlu7L6eWHJ3eycM89e7L1yY2Hc4cDV68fjsr4hoRYisREE6aIol05Nz8EJDkZZtFwE46OYLoLqisVsH9/u06b3sp0yOjh03s6omy9eanIT1FQr796+O3/O/EC/wDUr19y/c5+asQA/gEDLEgBy27K8tby2BhOIL9JeLF64xN/XPy4mvqS4pC2AUdWq0p6mzZk1t1+f/n92/bPb7904OhxDfUNWT9ZP//rppx876fJ1JULJvTv3W8DGLVeq485eHOTq0WXkGJ6HtxGE6uMyPrVEWh/ikRJapjCxJsLoiBN1r1Qk4brCWLRUSGQuVahgxVwM52IYD0P5GCpAUX0MNUQxIxgxFEn0AoN4Hl7d7af1mmJv4uQ2MjB0Gh5mK0EsHF17TbDpMdVOx81NLyREH4IECEKLLkZ5LVGKq6BsXFkYh1rEJTg4JecCGNGTSvVFQmORsB8sHT8rwmvtatm+vcuOHdt+5dqeW/f23X6w//aD/bce7L/1MPLSjaUJJ4joA75rN9rMnDsUIfqIIQux1FQCGcGILoLyMIyDYxwc51ByjlH/UYARPQjWCwnt6ezSzXaKhat74KKlBy9dTae3ITV6qNJfZ+yK3CUWSuS4/PSJ04UFhY1O+Ny3Gl+vRtPfn3s9OE9LCQC51dKBb51uN5BbkiSf/vVs/pz53h7eh+MPtwXFzc7InjNzjrGBcdffupoYmbo6uc6bM3/zxs3z58y3m2zXq4fO//z3//zR9Q9IDOW9yWsBgCVK1ZoDcXoTbX4bY63nF2iIYLpvFVez51WTre+dA3Zd4GXKbZhaUiXkXELGI2R8guATOA9HuRjCRSE+AunBUhMUNoOkhoGBrBmOPWxs2TaTzR1dpsJYxObthy5fvf8q48bTtPWxh51RufFUhz/GjO02ZYrA19dQItaHYT7KzC0TVOJbXE6ZubTPFCW3BMHHCQGOCzBUgMC6UrG+WGgsFveGkYEy2ciImdZzFkyct2jiXKYsHjdrwRDZzD4QYSZBjESQgQjSl8D6EKqHYAJ6aZZLqThOm84YH0X1UFQgFut4evacNp1n52AjRdbGH3nwOqP83ces4UgVFhQeSz4uChUH+AZE7YhKT0//gv85NVRZTfIEFb3FqOFXDesDx4BAAwJAbhvAAIfNTaDR30E1+VfqX2HyMDcX94TDCRXllc1d/0fuX6usjYuJ19c16PRjJzMTs/lz51+/ej0vJ6+mqqawoPDqlatyXNHt927/8cN/8LmCFgv7nF5YLFu7/o9hI3+fYKMfHGqI4rTiynmUgjKWLiOomldGdKnAirTQ0lpLWbQED8f5OC7AMV0c1cVgAQrpIhJ9qUg3JJDv7cl2nN7TxoYzcdIwb9/QJcu2JSZdevj4dWFxZb2alNSobqY+XRMT7wBj/Em2f4yz7ulgr+vvry8R6yIwj3ZfoieW6bllXEZNKdMCz6MPuDhOGdMIwodhvlTKF0sEIrFAJNWjCqQvgvVFiL4Y05NguhJMIMV0YUIAEwKE4KMEv84jmuDhMqoX9OyxPgTph4R0d3L8ecwYKw9PZN3Gk7fv5VV+Opd8dWX19avX58yc4zTdacmipU8e/6Ws1sw61z8gDeXzQ8dqFcmU/8fee4BFda37/8//uc/vnntzkpwkmmjKSTF2Y+qJSseCBQu9I733XoZqRcWCior0oQtMhZnZe4ZehhmKvSECVhCkd6bt/917YEQUbHSWz3rIrmu96/Pu8OVdFVVrSRp+G/wXEHgtASC3r8UCLk4dgbt37rq7uNvb2BcXFg+O3ktm6sxobW51tHP8+H8/XvzV1zZWtg/rH44q+2H9Q31dg//9x0cf/eMjR3sn3iBv1AOTdHrzyVN9b9wXcoo/6un/5u6BKa7fChwaqmKKK9bd0eq7FB3MLE7+WAet70ofn1U+3mt8vH7x8Vjr5b7K1WmFve1SC9PvdTS/27NrrY7OTmcX33MXqGXc+pY2icqK58tK5vB08oVV9+6HJqVtt7X/eefuH1TVlhoZr3Z0WOXuvtzTa5m398/eVKX7WgAAIABJREFUPuJxy8v8/DDFDUAHT6EJlXxsVLPvMh9shLOXzzIv3+VeuBVo8lvh5b/CO2CFT+Dyl1LAct+A5dg8n+XY9KRVPri13j5rXd1WWVot0dX9WUNdycHxIp1R+7z1Fc0czyGPHz4+d+bcXgOj4IBgLpvb3dUjEopEQpFQIEQTX8jn8/mDfN4AT5wGBgb6evu6u7o72jtaW9qam543NjQ2PG14+uTpg/oH9XX1tfdrq+/eq71f29nRCeaUj4d+Ht8DcjuPnT9jqn616qqXu5eXh1clt3K6FPf2jdubFDZ99I+Plv60NDYq9rVs8HEJ33393X/9f/+1SWFTc2Pza5+Z8Is8BGFeub7DzvGbHcrLTEx/dXNf6+u7Codb7oeT6BnWVjxCcXHosg9DA499cFjvrPcv3l6/enmsdXVe42C73MJsiaH+Mn2934z2KtjYmOzff5ZELrp563FHp3hzePGO7uKf4nbTkQ0Trf28oqvXD8cnqbl7/qqn/7OO7k/GxkttbFe4uCx390BF18d7KdrPilqIae2Q4qKDqsSDin39lqLJf6lPwLKhFLjMZ2jPWmxZZsmO8eJNFNBFNtDx0h7evzs4r9xrtEpLR8HSyvP8OebVa62DvJHmvaULOto6MtMJ/7eqqJe7FymTxC3jcsvKOWxuWUlZSVFpQV5BDpwD02FxomfTyURyxqWM5MQUfFxCTGRMxPmIiHMR58MvnDp+6kToydAjoQf3Hzobdvb6lesCdAFK8A8QGE0AyO1oIuB86gkI+cKSolJ3Vw8fL18umzstissp5fz52x8f/eOjtavX0qi010IoK2GvWbnmH//vH+v/3lB7r/a1z0zGxW6BiFRWvsnK5usdyivMzf7w8vgF573Sz3e5n99QUy2qav6Y6GLRJKa1K3z9Vvn6rfHFrfX2Xuvh9ouz42pry58N9H7UUF+lo61oa2N2+PCRlFRCCfv6w8dtgzz+cLOoRF8lraSSg5G1a+kfLL5x6zA+Ud3T+1d9w+/UNL7R0V1iabXC1XWZp8cyL6+lqOjilvr5obb5D3XritefWoru2xPwYpPa4aWYl6LbHuz7GUtLcfvQU98gdCqwj99qL5+1Lm6rza2Wqmmu0ze02ncwEWZVNzUPjrTptYaOfODl496e3uKC4gPBB1wcXXA+uAC/wKCA4OCA4ED/oAC/QH9f/wBcQKBfYLD4ol9gAC7A39c/0C9wX+C+A8EHQg6FHDsSeizk2PFjJ06EoikmKub2jduC0fshvVwqOJuvBIDczlfPz7B69/X25+XkW1lY21nbXam8MvXNcZXcyvX/WffpR5+sWbGanEl6LR4Ou+zXX9b+838/klov9eiV1ubXvjJRFzv5whgGvN5w7zc7lX93tP/dx2u1r/cKnO9yP99lfr5L/dApsKiGYVEjOsnHx2+VL26tD+4PH9+1To5LjPZ+q6ryw+5dv+no7HZxxUVcvFRYdKX+wbOe3l4R8mos9tpgUaxlI2skRJCGzu7CazdOpGWouHn8sHP3wu07vtPVX2Znt9LNdQXWpzsc46KThdChy36B4k3sh7enDcI2zkO39MFS8FK//T9jCT3w3bfUJ3C5t/9qD5+Vdo5LdA1+3qOqZGl9DJ9YUX2vY+DFnwgjrXqnYwFPcK/6Hi2LRswkUogUGpXGoEMwBOfl5BUVFLFL2Jwybjm3vLK8sqqy6krVlatXrt24fuPOrTv3qu/V19Y/fPDo8cPHT580NDY0NjU2tba0TvGiKO9UWfDw9BIAcju9/EHpLwj09fYzaJCetl4ALqCmumaKFbfmzr1d25S/+PTz77/+d+jho4Ovm5eZnJi4/Oeln/zzn7uVd7a1TPUCHU09faHJqct37fpRQ/0PV+e13u4rfb2W4byW4rx+xnn/7OuLhpLevsu9fVd4+azy9F7l6r7MxnbJXuN/q6r+sHPX3/r6poFB4ZmEwqvXnnSgY6AkPbIvfPCmo1cVF8HyaR/kF1+7HhQRtdnS+t87di7ated7Q8Pl9g4rPNyXe3kt98Utw/n97Of3MxrjSnbvEe/hE/gTDk1i0V2CC36htbj9S32Cl7rjljt7LjGz/lFL91dtPdPAYEpxSUNHp+RPhPeoxWtqKRox9Ok1t8ElQGACCAC5nQCIIIuJIjDYP8jIZpibmIccCrl/7/7UKK5QIGh69iyPyVLbvWfBp58t+Ndne5R3cUtKBbwX7ZS8wYGau3fMjY2+/urLRQsX+Pv68HlTNFRqJNva5y1Ox459s0nxBx2tNS4Oq7zclvm4DyVvzxXeXis9PVe6ui2zc1hqbvWT/t4f1DTXaOnusHdwP3kqLSf37hN0kszE6NNIs4aPm7p78qou+569IGdi/tMelW9U1b4zMFhia7vczX2Ft/dydA4P2rC81C8A68T1X4Lz/wnn/6Mfmn5C5xEFLvVDR1YvxQUvxwUv9wla7o5bYu34bz2jn9R1lOycDscnXq2rF+8y9FL8/dLJsDVT9l9JC/Zr/xiZMjNAQTOeAJDbGe+ieWZgf19/5qVMc1Pz0KOhjx48mrjav+Z3oVAoaGttuVZVGRcV6evpoa+tufynHz//5ONvF31lZWpSkp/zsL628enj+tqakoJcX0+3X1Yu/fLzT5d8/01E+Gls/cGp3tdNgCAVNTU6nh6fycsu2au3xsV+jbfrGh+31V4uK92cVzk7rrC2/tHA8AdN7TU6hpttHS0PHj2Tjoazj1va3jxF5i1ZvwbkizdFCNLQ3kkrLcOdi9hm77hEVe1rVdXv9xott3dY4+W12sdnha/vcpzvMpzvUj/fn3G+S/xwP/nhfvTz/ckPt9TPf4V/4Aq0p9Z/lZffcieP742tvtPQ/X2vqVVIKKGE87S9U/y3wmgTplduX9QeHAEC4xEAcjseHXBvWgh0tHWkJKZYmFqEnTz99MnTibBB/PtZ8lsZbTrs6uy4ffNaQly0j4eLnaWZv7fHmZPHzIz0Vi378fOP//HdogXqu7cG+LgePRTo6+mkq7l79bIfvlv8xZqVP0n9/Zu3u+ONa+X9fd3Do4smwsa3y4OHIDlXrmy3tfl+5/bVpnvXe7r87eG0wtLkR32dn7Q0V+vqbjAx1fHBBUfFkkrK7jxp7BjkT3w4K8EpIfqy8XwEedLekVt1xf9C5FY7h5WaWj+oayw3MfnF0WGth/saL4+V3h4rfD2X4byW+fv87O+zxM/nZz+f5X6+a/xwv/j4rnHzXGZp+52m3hI1HWUXz7BM8pUHj7qHd2x8qcw3WfKyXeAMEJhOAkBup5M+KHssAm0tbfhYvL6uwemTp5ueNY312NtdH/0rWcAbrKupJmak4rzd9uprOttbhoUezkjF58LUxLgLFia6v61asvDTfyz6/H9++m7Bsh8X/fjdgn9//a/vFn267s9VVmb6OC8nc2MdFwfLwjx6X494wWdxEW9nzgc/1S9CMvPyf9+96xtF+d8N9VZrayzerLhaVWWnvZ1X2OlECK68W93Y0TXpiwK/qdJCBHnS1sHiVgSej1CysFyirPzv3buWGRn+4mD7q7vzL16uK73dVvh6LPfzXO7nucLPazXO8zdvz99cXJYamXyrvOc/+sbuYeHMyitNPX2SntoPhgcyAASmjQCQ22lDDwoen0DL85azp8PVVTViomJamt970USxJgyvuScStLU0F+WxggN8jA21jA00Dwb7pCZG0SmXoKyMHAaRRc9MjA33drXesVnq79+W/rL825U/L/5t9Q9Sf6/aoyyP87RLxp8nZyacPBasp7XTykw/F6L0dImX3n2T+Ixf23e529XdQ2GyNqmpff/XX79uU5LT0dZycjwaG5dXWfnw+fN+0Uvh37tk/O7Pvl2ln7S20YqL3Y+FyhnuXaK843uVXSuM9X93sv3V3ekXT5dfsPbwX33c1ro7rbGxXKqjs1pDW83F8yIp6/6z5++0eMW7VwC8AQhMHQEgt1PHGpT0rgSeNTw7FnLMyMAoNTm19YNGAguFgsG2lqabV8sTYiMsTfS11JU9XWwiw49nE1MgahpjKKUysy/l0NOzCQmR4UcOBLj5uFm6O5n6elgfDvaIDD9CTItmUJIgakoWIeHC6RBdjR12loZwNqGrQzxK+e3E510pjHiex+M/efKETM129fBy98UFHDocdPTopazs6zU1Ld09E99oPKLo8Q7F9R5X5dFIt7Utu6jYKSRESl932Z6dK3Q1V5sa/WZv/Zer419ujr/ZW68w0l+uoS6918g77GzJjdttfRPW3Tye8eAeIDBVBIDcThVpUM57EXhY/zDkYIittW16Wkbn++0NLuJ3drTcvFaRkhDt7+1iaaJrb2UUFrovMzUmm5hEJyUzyGiCKCkQJQWmpjCzU3NoacysFDopgZoRS74UTU6PoRHxDHIinZRAJ+GxlEgjJZ05vs/SWNvOwpCcntja/AwRiVc8fK96vsVLfX19V65cu3DhopeX75mz527evtPY1PS0sRGbffoW70/TIyNVWIggNQ0NaTk5rsdDN1uYr1ZXXaGu9oue7lp9nTVa6v/R0zX0wcVQsqufNgqwXvFpMhkUCwhMCgEgt5OCFWQ6gQTuVdccDTlqZmJOSCf0dPe8U868wYG6mjtpyXE4T2drM31Xe7Njh/xS4s9nkxIhagqdlEgnJqI/SYkQOQlLiTAlCaYkQuREiJwgSQxUZeNpREnC00gJVEL8xbNHHKwMTfTV4yPPNj6uGx6u/E42vtXDnZ1dMMwKDAz28wsgkShPGxrf6rWZ9JBEd/tESPXTp5n5+d6nwraZma9S2rp6y1ZVa9ujUbElV2+29w2AntqZ5Ddgy4QRAHI7YShBRpNFQIRU36nGeeN0NHXo2Yy3XOJRJBQ2P3uWlwMH+Xnrau62MtE7etAvMeYsKS2GTkpiUJIY5EQGKWE44YcPxFfwDFI8luIYJDTRiS8lGjGOTkLjXRoxAR912snGRH2X0rmTR56iiiuRlYnhIRSKGhoa09LSLS2tfXxwRUUlPT29E5P1FOYiWYRZMndqAEHqm5qzCwr9j53wPXSUll/0pLllcNoaxKeQBShqvhIAcjtfPT+76i1Cbl6/aW9jb2FqUVrMRtfJG+efSNTZ0X7tyuWoiPM2FiZ6miqeLrb4yDM0tOk4kU5MQBMqtHhxgkjxDKJYXF/8HNbXWDrx9YlBiqeT8GhATEnNSI52tDbW2LX1/KljD2rvYa3K49j3Drf6evtu3bpz/nyEmZlFUNC+ysrLvFm7Hq+kh3fk3yMiBGlsaXv6rJkHhPYdvgvw6KwkAOR2VrptPhotQqq4Vc4Ozp7uXmNuY4AKbcftmzfT01Jx3p7mJobuTrbnw46RLsUzSMl0UiLaBTuksvHisBUixTGIQ2lYYiWBrERoY+jE0YlBimWQ4iFyAkxJyaVlZiRFezhaGWjsPnF4X929W4hgAkbUdnd1FxYUHzx42MHBKSoypr7+AZ8P2lnn47cP6jw3CAC5nRt+nBe1EPAEJYUlnm6efj5+leWVQsFLAVF/X2/d/XvEzHR/nI+lmYmzg83xkANpidE0YjLaeox20OJpxHixpjKIsQxCzGsSMRa9JUniZ4gxDGI0gxg1IkUziDGoVJPwMCWJSU3NpWWmJ0T5utoZaOwOCcLdvVbFH+h7b6+IhKLnz5/TsujeXr4+Pn5Z1OyWDxqY/d6GgBcBAUBgwggAuZ0wlCCjKSAwODBYlF/o7uzm74O7e/OOuEShgPf0ySOIRgk5GGRjaWJlbnQgGJcQG5FFSGGQ0+ikJBragIynE+LphDgaIZZGiKUTYuiZ0YxXEvSyBtMzo9FEiKYTouiEyBEpioFqcCxEisOGUyUzqWlManpmYvQ+H1d9tZ2BXi4VJfkDfe82sEtcncGBweo71bHRcW4u7sePneCUlc/Gztop+BhAEYDA7CIA5HZ2+WseWzvc49ff21eYm29nZe3v7VNTfbejrbWKW3r0ULCRvqa5se7+IK/Yi2cIl/A0VGhTXmgtMY6eGUfPxIQW1doYTGujoMwXiZEZxRDr66ifr5NbOiFaHBxjipsIkZOZlFQW9RIlLf5IkI+B+k43O4vSfJg38G7Dmvp7+zlsTpB/kK21XWx0XH3dA7B56jz+6EHV5xQBILdzyp3zpDK8gUE6haqtpubr7oaPivBysVfbqWRvaXjhdAiVkABR07KJSTRSMo0oHhiFxrVoRJsZyxhSWXFcKxbaSChTkqLEivtK1BvFIEQxCJEj0tCTaIiMxrjxMDkBJicxKSk5WZfomYmh+3GGmrvc7C3Z+XBft3ihxzc4RyQUtbW25bHycD5+9rYOxAxiW2vbG94BtwEBQGD2EAByO3t8BSwdQaC3qys2ImLDH7+pKm91tjELPeCfnniRTkxkkJLopCQ6MVGstQxCPIMwFNcyMmOgzOiR4ewIoX2huC8/IIl9JQ9IDoa1GZVbieImsijJOdTU7IyE00eDzQ00HC2NIUpGW0vzCNtfc8gb5D2oe5Celu7r5Xtg34GSwpK+3vfv+n1NAeASIAAITDcBILfT7QFQ/vsSePb48e6tW3TV9yRGn4fIaTAlFR0PRUxgEBMZWFzLIODFDcgMLK4dobUSyfzAA1RxIWIMRIyBiXEwMY5JwjPJiSxKUg41lUZIPBu638JQ09xQ+1JCbEvTmAtT9Pb0Xa64fDL0pIebR+SFyFs3bvEGp2Ez3ff1A3gPEAAE3ooAkNu3wgQemokEhEI3e1tzQ11yemIOLRMiJQ/JLSGBgSY8PTOenhk3aVorluoomBANE2JgQixMiGWKFZeUwCQnMckptMyE2HMn7EwNTHQ1k2MiW5qevYqxq7M7l5Xn7+vv7OCceSmzseGZaHinuVcfBlcAAUBg9hIAcjt7fQcsR04dPaytopwafxHCQlssrkW1FiIkYHFtHAOTWwhtRn61p/YDQ9uh14flNgYmxDCJqOLCpHiYmAARE5nkFBb1UkrMBScrU2MdzdiI8w1PHr9wm0jU2NBIzCS5ubjjvHBMiNXV2fXiLjgCBACBuUUAyO3c8uc8qw0hNUll+6ao8NDhnlpxXJsAYc3ImNbGQZmxw83IE6Ovo3p8YYI4wI0W6+4LxSWhisuipOZmExIjz7vbWRtoqp87dfLxw4cIggj4/PvV1RcvRDg5OB09fPRK5ZX+vv555j1QXUBgfhEAcju//D3HaltRWqS+a+uxAzjxQhZYXIuHCHiIMNSMjMW14uFRk6K1YunFFDdqWHfRhuXhGBcPEZNg8iWIlHEpPsbHxUlHTTXseOjtGzeruNzjR486OzrFx8TV1dQJ+S8t2THH3ASqAwgAAgiCALkFn8EsJtD4oNbUQMvL2WpIboloXAsR4iFsNDLjRVwbNSoknfDTYcUdinEligsREyFiKpNCyMkiZyTifT3c9LQ0XRwcvN09ggMCaFnZLc9bJnpTg1nsUGA6IDCHCQC5ncPOnftVG+zq9HKxMzfUyCYkQKRENGFaCxGGpthiXbaTGNdKZHtYbl+KcWFSHERKhElpTHJmDpWUk00lXUp1d3b6z++/21lZl5dxwGyfuf+NghoCAsMEgNwOkwD/nY0EBPyTR/Zr7t5CTImGyUkQKQEixEHEOPE6FZM3PEqisqMOhkV3KMaFiLEwCQ+TUpmkTBaFyMqi5NBpIQf2b5SVS8YnDI6/r9FsdAewGRAABMYmAOR2bDbgzmwgcCkhZscmqcSoMJicCJPxEDEOQrcfmKxxyKP09dXTYcVFx0+hU3JJ8RAxBSZlsChEmEIip1+ytbAwNjC4c/PWbKALbAQEAIEJIwDkdsJQgoymhUBJHrxVcf2pEH8mJQlGtS0WW3di0jtrXxXaUVfEcstA5T8ZIl1iUggQmRhx9vQOpS2nT57s7X6f3QumhTAoFBAABCaEAJDbCcEIMpk2AnV3b6jt3ORmZwyTE9HdAtA1nqIZhKnorx2lr6+cRqH7CxHjGKREbNGrTHJ6iruTg9qe3ZVc7rTxAgUDAoDANBEAcjtN4EGxE0Sgt+O5g6Whxi7FrIwYJgUPk2JnjtyiXcio3CZA5FSIkhF17vTObUohB/b3dIHlLCbI/SAbQGD2EAByO3t8BSx9LQEh/0RIoNy61ekJ4XnZyTNSbvEQOYWamYzzdN2htLmCU/baeoCLgAAgMLcJALmd2/6dF7UjpsX/Z+2SmPCQfHoqkxw/s6JbQhydiGeQU6IvnNbWUPX2cOvpBqHtvPgsQSUBgVEEgNyOAgJOZx+By5xCmb/XHA5yy8lOZlHxDKzvlvFiF9tp6cdFh0Zjm9XH0ol4akaCv7fr7h1bYXr27OMLLAYEAIGJIADkdiIogjymlcCzR7WqyhvtzHUYZDyLiqcTomiESDohcvoUVzwNKZqRGYvuSkRMSI2PMDHQcnW0G2cbvmlFCAoHBACBSScA5HbSEYMCJpvAQG+no7WJyg4F8qVoVlYCLTOSlnmRlnlxmsYnD2kthG6yG8cg4GmZCScPB2mqKBPTUxGhYLJpgPwBAUBgZhIAcjsz/QKseicCwhMhB+TX/5YUHZZLS0Gj22mTW4nWxkDo3n/xEDGJlBLrYGFka2HysPbeO9UKPAwIAAJziQCQ27nkzflbF2rmpQ1/rDkTGpxHS6MTYrAAN3I6otsobLM/VGuhTDxESITJqRdPH9NWUY6JOMcbBFvszd9PFNQcEAByC76BuUDg3s3rm2U3BHg6srJSGcQ4OiGKToiaRrmFCfEwIZFJSqVlJrvYmhvpaty8UjUXQIM6AAKAwPsSAHL7vuTAezOJQH9P914dDWtjXVpmAkSKZxCip1VuYyECHiYmMUlp8RFndm5ROH74QF9350wCBmwBBACBqSYA5HaqiYPyJolAgI+njsqOjMSLEAkPEWMY0xbdYi3JhAQmKSU7PdHb2Xb31k0VpcUI2NV2khwPsgUEZgkBILezxFHAzDcRiI+K2K2kEHf+OExOmKaVk8Udt7FQZjzaa0tKiTt/as9WxSAfj57OjjeZD+4DAoDAHCcA5HaOO3j+VK+ABSlvljt+ACeObqd8bSnxmOQY8fwfiJBITYvzd3fcs3UjO581f7wAagoIAAJjEQByOxYZcH2WEai9e0tj1zYvR0taZhw0tFHBxVd26Zm8FaaGxiSjS1tkxMLEpOSos0ZaKkHe7j0d7bMMJTAXEAAEJoEAkNtJgAqynA4CPe0ttmZ7LQw0SSlREDGOQYxkEC5O4cJSqNwyMmOwlaTiYFJy6D6crqpyPgRWbZyOrwGUCQjMPAJAbmeeT4BF70VAyOcdCvLTUdmRGhcOk/F0dB1HVG5HKK64vXciA1xx/thPdIVkRmYMRIiDSYmU1Dg7U31PJ5u2pqdYbUSISPRe1QIvAQKAwBwhAOR2jjhyXldjWMgSoiNVtm+ODj/GpCTS0blAQysnY4or1tqJVFyx1opLQWf6ZkYzCLFMcmIONS0y7Iie+s70pDgRn4e6BmjtvP5AQeUBAZQAkFvwHcx+AsNyW5TD3L1147H9vjAlmU6Mo2Gzb9EJuOjmPOK+1WgIPZiAAHe01qJlxdCJcSxqCoOY5GJramux9/7dmxjcYftmP2lQA0AAEHhvAkBu3xsdeHHGEBiWs0f37+mq7fZysoIpqXQinkaIRSUwMxqNO7GErbA4Um6HQl6YEDVWeq02v6q1DGIsnYhubQtTkqPCj+7aJh957tRgf++MYQQMAQQAgWkmAOR2mh0Aip9AAv2dHa52VlbGujRiEoOURCPE0wlxdFR0Yxno/jyxUGYMprjR4p8wIXo4jSm3MGGkPKNh8StaGzWstfEwJTmLkOBgtVdjz7YbV7gTWDWQFSAACMx2AkBuZ7sHgf0jCAj4p44c1lXflZEUDVPS6MREOjGBTsQziPEMQhyDEIeOYyLEwoSYl1P0WKGt5Lokxn1Va9FOYjSuRfe1ZWalxV48paQodeRgYF8PWLVxhGvAISAw7wkAuZ33n8DcAkBKS1HZvjnu4mlmVgaDlEInJtGJiQxiAgMTXQjdOSCOiaZYJqq7Yul9W7l9VWtphGgaIZZGiKcR8XRSIjUT7+Vqu0NJgVtaOLe4gtoAAoDAhxIAcvuhBMH7M4pAJbtk19aNp47uZ9GIECWNQU6ByMkQOQkmJ0KkBJiEZxLxLCKeSYxjEVHRxcLct5Lb0VqbGUXHtDabEEcj4LMJCTRSUuzFMI0924P9vbs6wdIWM+q7AMYAAtNPAMjt9PsAWDCBBB7er1HfvcPTxS6XQWZmZUCUNIiSClNSmJRkJjmJSU5kkRNZpARMdCWKK+nBjYYIWMocPhCfYj8ZqL6iM4uwOT/otB96ZiyNEJdNwNOICdmERHI6PsDXVXXn1tLCPLRGIhHYlWACPQuyAgRmOwEgt7Pdg8D+lwh0tbZamZnoaqhkE9PgrAyIegmmpjGz0lhZqTnU1BxqCouSnENJysFEl0WMZxIlvbmoxDLQrYTQwcwM8TExBr0iTsPTisRTbOmZMbTMOKwZOYFGTKJTUvHRZw10VL3dnbo62lCbhEBuX3INOAEE5jkBILfz/AOYa9UX8vkhB/YpSK/393E/efTA2ZOHI84cizl/IjH6TFrceUJSJDUthp6JZ5KScsS6S0nC1DeBRcbDpDhsa/pYGiEGm0QbyyC+lOjEaGz1jGgaIYaWGUvLjMsmxGcTE2ikFBo59WCQj9rubVRiOrrXnkgE5HaufVugPoDAhxEAcvth/MDbM49ALgzpa2tI/f2njoaKvbWpjZmhtam+rbmBg+VeL0erAE+HfT7OJ/bjzoXuiww7lBBxIjXmTHp8eGbiBUJyBDktkpoRk02IZZDiGeR4iIIfSmQ8RMbTSXHihA2PQkPbbAI+i5hIJ6emxF80N9J1trd88uD+kNwOzwaeeYSARYAAIDANBIDcTgN0UOSkEmhvbaWSiAoy0g42VoS0lISYi+dPnzh+aN9+f+9ALzeT5YsDAAAgAElEQVQvZ1tna1MnC2M7E30rQy17Mz0ny70u1kaudqZezpaB3o6HAt2PH8adPR4cFR6SGH0qDX8uI+kCMTWSmhGbTYinkxIYZDRBlCQGmlIZ1Es08qWTRw9oqCon42MEvAFEJAQdt5PqYpA5IDAbCQC5nY1eAza/gUBXR4eDjc2BoKD+rs6ers7W580Njx/V36+5c+N6VXlZaWF+LiM7Kz01JSYi/sKZs6GHQwJ9ce6O7g5WDlYmlka6Rrpq+pq7DLR2mxpoWJvq2ZjpO1obebtaHwhwPxkScD7sUGzEicTYM+lJkeSMBBolnZSR4upoa2tpevfmddQydJAUiG3f4CNwGxCYbwSA3M43j8+X+p4MDbW1tOxuw0YtvVppkRDhDfL6evq6Op43Pn1YW3P7+tVKbllRfi5EJV9KjI86f/bUsZDDwQF+Xu6ONhYWxgYm+tpme3XNDHWM9NSN9TXMjXRsLYzcnGz9fTx9PNxUdimfDTvZ140tbQHGJL8KHFwBBOY9ASC38/4TmKMAyESSrqbWnRviTQLepZJCIX9woL+np7Otramhoa6m5vrVKxx2aT6LSadQ0hITwsNOHj24/0Cgv7e7q4uDg6OtrZmJiZ21DbukBBEK36Uk8CwgAAjMIwJAbueRs+dVVW9ev2mgq0+jZk1YrUUiAY/f39vb1tLS1Nj45NHDe3fvXr18mV1cCtOhslJ2Z0fHhJUFMgIEAIE5RwDI7ZxzKagQRqCjtcPO2i789NnJ5iEUCAcHBvk8/mQXBPIHBACBWU0AyO2sdh8wfkwCQr7wwL4DXh5eg/2DYz4EbgACgAAgMFUEgNxOFWlQzpQTSMQnGhsaP3n4ZMpLBgUCAoAAIDCaAJDb0UTA+ZwhUJhfqK2hXVxQPGdqBCoCCAACs5cAkNvZ6ztg+RsI1FTXGBkYRUVEveE5cBsQAAQAgcknAOR28hmDEqaJQFdHl4erh5uLu0gIFp2YJh+AYgEBQGCYAJDbYRLgv3OOgEgoCj8drqGm0dzYPOcqByoECAACs4wAkNtZ5jBg7jsRgGjQ1i3bigqK3ukt8DAgAAgAAhNOAMjthCMFGc4gAver76urakScj5hBNgFTAAFAYF4SAHI7L90+byrd19vn4uTiYOvQ3zcwbyoNKgoIAAIzkQCQ25noFWDTBBI4d+bcdqXtD+sfTWCeICtAABAABN6VAJDbdyUGnp9lBHKZuVLrpMDs21nmNmAuIDDnCAC5nXMuBRV6mcDjB4+3btkafTEaTAd6GQw4AwQAgSklAOR2SnGDwqaewODAoK21rYerR29379SXDkoEBAABQEBMAMgt+BLmPoFzZ85pa+o8fvh47lcV1BAQAARmKgEgtzPVM8CuiSOQy8rbprS9pLBk4rIEOQECgAAg8G4EgNy+Gy/w9Gwk8KDuwS7l3dEXo4V84Wy0H9gMCAACc4AAkNs54ERQhTcQGOgfsLa08XL36u7ofsOj4DYgAAgAApNDAMjt5HAFuc4wAmEnTxvqGT5+ALpvZ5hjgDmAwLwhAOR23rh6fleUyWCqq6iXl5XPbwyg9oAAIDBtBIDcTht6UPBUErhz846mmmZ6avpUFgrKAgQAAUBAQgDIrQQFOJjLBFqaWmytbE+EnhwaLQU2wJ3L3gZ1AwRmIgEgtzPRK8CmCSfA6+cdDTnm7uLe2d6FZi4aThNeEsgQEAAEAIHXEQBy+zoq4NrcIyBCMi9lmhqZ1tytmXuVAzUCBACBmU8AyO3M9xGwcGII3Lx+09rCml3MnpjsQC6AACAACLwLASC370ILPDsLCQj5wr6evtbnrVcqr9hY2Vy8EHn71u1bN27V3a9ramzqbO8Ea1/MQq8CkwGB2UcAyO3s8xmw+G0ICHiCluaWWzdu5bLy0lLSIs5FHNp/SFNN09TINAAX4OPpE+QfdCL0RFREFIVIKWNzHj18NNAPtqB/G7TgGUAAEHgfAkBu34caeGcmExDwBU2NTYV5hZEXIvcF7QsKCD5y+OjpU6cjI6Iunr8YGxWLj8NHX4w+H34h7GTY4QOHfb18vT29Q4+EkjJJt2/d7unqmcm1A7YBAoDALCUA5HaWOg6Y/ToCIqS9rZ1dzA4/E+7m7Obn43fx/MU8Vt6N6zfr6x80PWtua23r7Ojs6uzqbO9sed7y5PGTu7fvlhaXJuITDwQfcLJ38vLwzkjLePTwEWhhfh1fcA0QAATenwCQ2/dnB96cWQRESOPTxrTkNBcnV19vHD4uobK86lnDMz6P/wY7UZHuuHv7bhYlO8AvwM7a7uD+QxWcCgFP8IYXwW1AABAABN6aAJDbt0YFHpzBBIQC4b27986HX3B3cT9+7Hg5p6K9rQOdXPsu/wYGBqvvVqcmp9rZ2Ls4urBgFmhYfhd+M/hZESLgCURC0bt+EjO4SsC02UcAyO3s8xmw+CUC2G/S2zduhxwMcbJ3SktOe/TgkVDw/hvtdXV2FeYV+nj62FrZkgikrk6widBLvGfBiQgR8oW8QX5XZ9ezhmf3qmu4ZVwmg3n/3n3QRzAL3Dd3TQRyO3d9Oz9qxhvg3bp+68C+A27ObsRMUuvz1g+PYAYHBq9dubYvaJ+NpQ2ZSAaKO7M+pTEaLQQ8QWd756OHj29dv1VaVEolZ8XFxIWdCDu4/5Cvt29wQDC7mC3kvf/fYTMLArBmFhIAcjsLnQZMlhAQIbU1tYcPHrazsWMymO2t7ZI7ow8kqzaO8ct61PMCvuDu7bsH9x8yNzFn0CDeIG/UA+B0JhAQ8ARNz5pu3bxVVFiUcSkz7ERYUEAwzhsXgAvw9/XfH7z/xLETkRFRKUmpLIjV8Ljhw/8Umwm1BjbMUgJAbmep44DZKIGerh58LN7S3JKeRe/u6n7DL9N3VFyRUHTn1l13V3cHW4fbN+8A4jOBgFAg7OrselD3oIJbQcumRV+MRke32diZm1qYmZjbWNr4evuGnw7PImexS9nXr12vq61retbU2dHZ39eP9t2Cf4DA9BEAcjt97EHJH0hAhHDZXGcH5wvhF3q6J2WyrFAgLMwvtDC1CD9zbrB/8APtBa9/CIGuzq5ybgWZSImOjD60/5C7i7u9rb29jb2zo3OQf9DF8xfJBDK7lH371u1nDc/6+/o/pCzwLiAwGQSA3E4GVZDnVBDo6ug6GnIU54O7e/vuWOWJhKLWltbnzc+7u7p5gzx0pMw7Rjg93T3xMfEWphaV3MqxSgHXJ5uAkC9kF7P9fPwC/AKPHD4advJ0bHQshUQpLS69eePmowePOto7QIP/ZHsB5P+BBIDcfiBA8Pr0EBAKhDnMHFMjUwqJOs7ii73dvckJyUdDjkZFRGWmZ8J0uKS45ErVleo71Y8ePu7seKsFk2vv1drb2Pv7+nd1Ypv3TU+N53WpnW2dx48ed3dxL8wrrL5T/fjRk/a29oH+AdA+PK8/i9lWeSC3s81jwF6MQHNjs5ODs4Otw5NHT8dB0vC4QV9Hf+mSpb+v/V1WSnbblm2qe1S1NbRNjUzdXNxPhJ6kECnVd6vH/609ODCIj8VvVtwMdhMaB/Wk3rpSecXEyCQuOm6cP60m1QCQOSDw4QSA3H44Q5DDNBAoLSqVlZZLiEsYf9Go2zduy8vIf/LRJ198tmDBZwsWf7l48ZeLP/v0swWfL/j262+XL13x919/W1lYMRlMdKTV2P/q7tdvV9oecjAEdAqODWmy7oiEovNnz5sYmdy4emOyygD5AgKTTwDI7eQzBiVMNAGhQHj+7PmNCpvuV98fP292Sdmfv/35xWdfLP5y8TeLvvn5x59//P7Hz//1+acff/rJPz/5+KOP//H//vH5vz7frrSdmEEcZzAUn8ffF7RPV0v3Qd3D8UsEdyecwIO6B2bGZieOnejr7ZvwzEGGgMCUEQByO2WoQUETRqCrvcvJwcnOxp438IbpsPRsxvKly7/84suvF329ZuUa470mtta2anvUlDYp/f3n399+/e2n//z0v//rvz/75DMdTZ17d+6NY2JeTt42pe0lRaXjPANuTTgB3iA/PjZeX9cAtORPOFuQ4RQTAHI7xcBBcRNAoK6mTkdLJ/JC5BvzupRy6d/ffr9o4aLFXy3esnELE2LdvHGzrLQsh5mThE+yNLP87uvvPvqfjz75309WLluZnJgyToZPHj3ds0vlUsqlcZ4BtyacQN39ekM9w/3BB8Zbw2TCSwUZAgKTQADI7SRABVlOMgEOm6u6W7Ugt+CN5URfjP560TdfLfhq0cJFmmqaTY1NCIKIhCI+j9/V0XXt8rWd23d+9ulnn33y2cLPF3q4eY6T4WD/oImR6ZlTZ8C6u+NQmthbQr4wNTltyyalgryC8YezTWy5IDdAYDIIALmdDKogz8klkE3JVtmlcvfW8HTbsabSipDjR48v/nLxooWLvlrwlaGuYUdbx0uWiRB/X//FXy1e8NmCjz/6WE9H76W7r5y4OrsF4AL6ukEP4itoJudCw+MGJwdnTzfPjnbMcWM5enJKB7kCAhNLAMjtxPIEuU0FgeTEZLU9ao/qH41fGG+Aj/PGLVq46Ouvvl60cJGNlc1opRQhAbiAbxZ/8+WCrz7956cGegbjZxgUEOTi5DJas8d/B9x9XwJ8Hj+LnKWppsmCWO+bB3gPEJhBBIDcziBnAFPekgA+Dq+uqv503Bm3CIJ0dXTZWtstWrjom8XfLv5qsZuzW2db51ARIoQ3wLt5/abKbpVFX6Kx78LPF7q6uI5vwJFDR1ycXNpa2sZ/DNydEALNjc1+Pn5O9k4tza0TkiHIBBCYXgJAbqeXPyj9fQikJKWoq6o/fNOcnGdPn+lq6X614Ktvv/5u4ecLd+3YFRMZQ6VQIQYE0aHU5DRXZ9clPy5Z+MXChV8sXLZkWUxkzPjWHD542NPdq7315Rbp8d8Bd9+XQHFhiZGhUUZaBui1fV+E4L2ZRQDI7czyB7DmbQhQyVl7du25ee3m+A/X3qvdrrR94RcLv/36u8//9fm3X3/71+9/yUnLbZTfuFF+4/q/Nyz9aemCzxd+8a8vFn25SF1F/drla2iGY3cQ+nr7+uMCeromZTuE8esy3+7yBngnj590tHMcf9Ww+YYF1HdWEwByO6vdN0+NLy1mK29Tzs/JH7/+V6uuykjJfvnFl9998++vFn614LMFX/zri88++exfH//r04//9ek/0ZUuvvjsi28Xf7tZcTM+LqG3q3ccrRXyhVYW1sdCjvEH+eOXC+5+OIHamlpLc8uYyBgwDvzDYYIcZggBILczxBHAjHcgUFN9X0NVIyYqdvx3ivKL/vz9r0ULF3339Xc/fv/j72t/X7NqzU/f//Tvb/797eJvv1387ZIff5aRkjE1MUvEJzY8aRxHaxEEaWlu1VLXSohPGP+x8U0Cd9+GAJ/Hx8fhLcwsr4rbG97mHfAMIDDjCQC5nfEuAga+QqCzrdPWyvb/puWMH/pQSdQ1q9aga1x8uXjdX+tCDoacPnU60D/Qy93L3cXd28P78MGQtOS0Cm5l6/PWN3YQlpWUqexSKcgvfMUccGGCCdTVPjA1Nj1+7ERXx3gLWU9wqSA7QGCSCQC5nWTAIPtJICDkC8+cOrN189YHdQ/GyT4Jn7R86fLFX6LTanfu2Hn39t3mpuZHDx/V3a+7f/9+fV3906cNXZ1d6CYHY/fXivMX8oWnTpzaq7+37n79OCWCWyKs7/vVn29PZmCAFxeHV96xi83mvPFvoLfPFjwJCEw7ASC30+4CYMD7ECgtZq//z/rUpNRxXg4/c+6n739CtwD65DMDPYPe7t5xHh7/1qMHj3Q0dQ7uO9jX0z/+k/P5rlhlhQgiSRLdfXssdXUPTE3M3d292tuHZ229/cvgSUBgBhMAcjuDnQNMG5tAR1unqbGZrbVtc1PzWE/tC9q/+KuvF3y24J//808LU4uBvsGxnhz/Om+Qn5lO2LF1Rw6c88Y4ePys5tJdiZSOOhAiiABLwhGR7ltWnM8XZGYS9+xWzc3NFwrf1ObwlpmCxwCBmUEAyO3M8AOw4l0JiBBiBlFNRS2bmv3aJkehQOju6v7lgq8+/9fn//vf/+to59j7XosvioRI/f16d1cPTzfP500t72rmPHx+pPq+a/Wbmp4HBgT7+vp1dna967vgeUBghhMAcjvDHQTMG5NAS3OLl7uXt6f3a9e7EAlFSQnJVuZW+jr6O7fvvHj+4kDvwJh5jX2jt7s3JTHF3MS8ML9QKBCO/eBcviMajjPFUiqOX/kIwkcQHoIMYmkAQdAkepH6hSJxGhCKhpJANIClPr6gj8fv4/F7B3k9g4M9g4O9g7yO7l6YlWNn78jKyZvLNEHd5isBILfz1fNzoN4iJJeVZ2FqEX0xeqDvNVLa9Kzpzu07V69cLS4orr1X+x5iKRIilysuuzi6hJ0I6+6af6NkRUhrW1fl5es5BSVwQTEjvzA7ryArN4/MyiWycjIgOJVGT6HRk7LpeEpWDIkSlUm6mE5AUwbhwqXM8JRLYQnJp/BJYfik0/iksNiEUzHxp2LiT0bHHo2IPBJxMSTi4uGIiEMRFw5duBASceFI+DlLJ+d9h4+0tbfPgc8TVAEQGEUAyO0oIOB0NhHo7Og8f/a8saFxDpzDG3v1CT6PP/6UodfXWYTU1dQFBwS7OLrcuHrj9c/M6at9/cIMMmRo5bTTwGybseVmY4tNRuaKRmbyRqYKRqZye02k9Y2kDY2lDIzX6Rn9R3fvn9qGf2gZ/KFt+Keu4R/ahr9rGazV0F2rrvubpv4faNJbp2u4TsfgP9r6f2jq/KGt86ee/p8GBn/u1f/LUH+dod4Gba01mzadiokTQx2OqOc0YlC5+UQAyO188vZcrGvN3RovD29ba7viwpLXxrjvV2mRUPT40ePTJ0+bm5pTSNT3a4h+v6Jnzlu37j81dvHboGWyw91vo1egjHegjG+QNC5I1n+frP8+uYADcoEH5QIPyQUdltt3VG7fMfn9x+T2H5M/cFzh4AmFgycUD53aePjUxsNhm0JObcbSjtCzO0LP7Ag9sy00bNuJsG2nTm87fWbbmbDtZ07tPn1yV8jBVTra+r64+ubnMwcCsAQQmCgCQG4niiTIZ3oI8AZ5nFKOh5unh6sHC2J1d05Ak69QIKy+U30m7IyNpU0iPrH1eds8HJDcy0PCkynrdS1UD4VZZdB0M+lqBLoqkaFKZKiRIDUSpE5mqlNYahSWGjVHLStPLStfLRtNGrRCDVqRBq1Ik1akSS/WpBero1cKNLLysZSnkZWnnpWrlp2jSmep0OE9DIYqna7NoOmRiNL79q3QMwhLI/TN017y6fmfCJQ6NQSA3E4NZ1DKJBLo7+sv51QE+gXaWtulp6Y3PWt6Q2HiAT9jPDTQN3C58vL+4P221nbJiSnoRKN52ax5vb5pt733n1bu+mlZOvSiXYzibVDpVixtg0rRBLPFaSvM3gqXbYU5w4m7jVk+Mm1lcrfBnG0QZyudvZVeqoSlLYySzVDxZrh4M7NgM5y3nZW7B4K3J6eucnTZYGRRfOPuGP4BlwGB2UoAyO1s9RyweySBwQHejas3Du0/ZGpsdvzYiVs3bo3TlTvyxZeORcjzpufZVJq3h7ersyuFSGl5Pk9n/vTxkdD4jBWaJkrHIzTphVuhUkWYI8fkipM8k4ulcnmmJFXIMyvHSQrMSjRB5ZIkD3PlYK48kyPPYsuzShRyiraw8ncyWHJnLyzctscy8FBzJ9h56aXPE5zMdgJAbme7B4H9QwSEAmFdbd2FcxdsrGw93T0vpVy6cf1GZ8dbTd8c7B98+uRpUX5R6JFQFyfXwwcOs0vKuubr1E++CCm7WaNobPeng49WOl2ZUaLA5MgyK6RZldKsShlxYlbKvkhVssw3JbhSFktyUKUchB7LoKlCllkhy+TKsspkWaWKzKJtzIKdGZTfXX1+2qZyiVkwOC/bFcD/0nOVAJDbuerZeVqvpmdNLDgn5FDI/61r4enmGXEuoiC/oPpOdUtzC2+QLxQIhQKhgCfgD/IH+gba29rr7tdVVVQR0gknjp3wdPP08fJNSUq5d+ceb5A3TwkiSENbt0tI2DI1w51n4zTpRZshtiyzQgbV2ipJkmFWYXopVs0XP8W6+9pb4oti0ZU8gGl2uSyTI8sqk2eWbmIW7abnquMvLdUz1fPyv/WoYd56AVR87hEAcjv3fDrfa9Tf119fV0/PooceCfX28Pb29PHx8tkftB8fl5CSlHIp9VJGWkZayqX42Pizp88e3H8Q5+OH88aFHAxJjE+8XHm5rbXtPWbozhnog0KEmFe6ao+OlNc+bSJzF8xWZHJlWFXSzEqpEUkarhyZJPL5rgeY3FbIMstl0ZZqjiKzdAdUpJ2Vs/no6V91TcJSwJipOfNlgYogQG7BRzA3CfT19j16+OhyxWWIDjvZOynKKfp4+fr7+qMhrKePt6ePPy7g0IHDZ0+fTU1OK8wvrKmuaXneKuAL5iaOt67VvcfPzAIO/aRtoh6foQ6VboHL5NBm5CopuHJUmhC5xdqTK7Em5Qo5tCeYsxku3UUv0LyU9ae9h5KNC+du7VvbDh4EBGY0ASC3M9o9wLgPJCASigb6B06fPG2gZ1BWyrl65WpFeUVlRWVlReW1q9erq+89efykva19cGBwfg4/HoW3jy+KITH+0DNTPHRKOzt/B8yRR0PbSilWFRrajlBcsda+aywreX7k61j7s7gnGFNcuGwTrXAPJXfbmegf1PRdQs+29s3fhv1RDgKns5oAkNtZ7T5g/JsJiIRIAC7Az8ePP/ayU2/OZX48cfthg55X4O+WzlqXsnfRizejg5iw0Ha03FZIwxUy75uk4YpX5FYy0qoCHfzMKFXKyt+Tnr3ayXuVmh6xkPueeznND6+BWs4WAkBuZ4ungJ3vSaC9rUNbQ/ts2Nn3fH/evNbPR8JTiL/pmW05ckabVqTEKFVkVaC9tlgaEdpWSDErpOFymRFJFi6XHXE68taoY2m4HJPbCkmk+8qo5gpZmKNIL95Bzd0SkfCDlrGWR8C9RrDO1Lz5EOduRYHczl3fgpphBKpvV8vLKpAySYDHOARECFJ5p26ntfNfdh6ayWQVqHQzq1x+WGslfbdipZRmlkvDXBmYKzuUOPIQRwHiyENl8lCZHJ0tjyU5BluOwZbFkgyDLQOVSUMcKYgzLNWS+LhylOLKwOXyENqkvIvElAo6+p2yxqlkQg8PzAoax4Hg1iwgAOR2FjgJmPghBIoLijesk2IXsz8kk7n9rghBmjt6Ak9HrNEwVA6L1M4u2AGXKbIq5UbIrTSzajgqLZeBOTJwmSzMloNL5aBSBahkI714M61IiV6olJ2vlJWrRM3ZQmFtprI2UVmKWTlyWXkbqDkbsvOkGMXSUIk0xJaGuMNRr1h00alEssOTi6ThClmYKw+Vbs8u3JNMWmnprGBiW3StGujt3P4O53ztgNzOeRfP9wom4ZM2Kmy6d7dmCAT4nf3KFyFEEJhd9Ze6/gZnH510ugq9ZAvMlWNWyOZclky0RQ/QztpyWZiDCW2JPFSkQC/YmJ27nZanDhcZFXAcy6+5VV53r7jmUXHNveKqW8VVl8qrttzLurnFuxh5W7JYClSmXHauHKNIhlEqA3FkIC6muy8UV9ynK4XOMqqQgTmb6CVqtELlC/ifVPRcjp5ubH+rRUteqR+4AAjMCAJAbmeEG4ARk0RAJBAd2n9IS12r7XkbWoR4tWTJz0kqdbZl29Da5Xr4xBIVXdXz8drZhdsYpdhcW7TjFh2TjCV0SSlMa+VgtjxcvBEq2ELPVabl6LGKXDhXjt2ti3/anN3RldvVXdDVXdTVXYz9LOzqhju6kpqen33wdN/NGutirhZcsIOWp5CVL51dJE0vlWaUja245QoQRxlia5Fz1rsH/alrmsEqAjsXzLaPC9j7ggCQ2xcswNHcI9DT1WNnbefq7Mof4KO1kwgtiHGHnd07KEhj5Enpm8l47zMgMlUYpRshtizMlWKiQ6KG5bZSmoWGm3JQqSKjaDMtbycjVy+3yL3y6tnaJ5T2Lm7/wF2B8AmCNCNIK4K0j0jNCPIAQW7zhZy+AXJre3h9g1v5dTWoUIHMkqUWyNBLZKAyrGH5xeApSYwrC5dvgspUaEV7IlNWGVqb+R969Lxj2HDwX0BglhEAcjvLHAbMfScCjx8+1lTXRIclA30dA9ytBw16Hn5r91pp4jPQ3QgYbDmII80s38Cs2MDEZtyi0W2lNKtcFmYr0ouUsnJVqLBdISf0Tg25vatqkF+PqWwngvQhyACC8BCEPyLxsOvdCNKGIA0IcpMvpHV0H75dZ5jDVqLmymcXyDJKZdCBVy/kVubFklUVcjB3G4OtRmDKBx//S9c8jgyPUQ9wGRCY6QSA3M50DwH7PoRAJbdym9L2LHLWh2Qyh9/t54kuZlBXq+tv3B+qQ83dwShSYJRJQdwNcPl6uGI9s3IDs3IDusxFhQyLo8gs2U7P14UKvNlViU+a2L19NSI0nO1CkH5MZYUIIhxuQZBAE2EXhQgiwJ7pRpDHCMLuHYxubLUovbIlO1+WViQNcUYFuMOKi/YWb4I4u2nF6knkPyxct5k53a57LMkcHAACs4gAkNtZ5Cxg6jsTIBPI25W2X7ty/Z3fnB8v3Kh9rOHstdbcQSuJpEIv3AiVyqJCi6Z1cMU6ZuU6ZsV6VrlUDleWxVZiFmtB+YFVN7JaOu/whc8QpANBehBkEItlBZigCobjWvHpqJ2FxdLbi0XDV0XI2cYO3cIKRUaRDFw2HOC+iHGlsUWspOEKeZi7lVGmmVWwPTTixx1aficvtPeCdS/mxwc6t2oJ5HZu+RPUZiQBEXLuzDmV3Sqt4nFSI2+BYwThiZAzCem/axsrHT2rnZW/FSqRY3JkWJXrmRXrsNB2HbNiHat8HYsjjW7XU7QLLnTnXM5saqsRoTf6HlEAACAASURBVC3DvSOEloc1I/ciSCeCtIpELYjouUjYIhJ2YnrMw5RY0pwvwHT6HoJENXcZFlVsZBTJDslt+cgmZXEPrjS6bV+FIsTZTWfrpcPSbkF/qRlQ88vALFzwCc86AkBuZ53LgMFvS2Cgd8DP18/cxFzABwNaR0MTIciV6vpdls5S9l5aKdQ9jOKNcJkMq1yKibYhi+PadayKdSzu+hyOXA57Ez3PpJAT96TpOl/YiomrYLjpmI9J7zOe4E5nV3FjA62+jlRbQ7h/j1J3n/XkEed582M+vxuLesVGDGKduIVdfX5Vt1Thoo2MYhmYIw1zseUvXkS3kmWnZOBKObh8K4OrTS/VjElfrW1m7Bl8/ylYZ2q0T8H5DCcA5HaGOwiY9/4EmhubrS2tD+47+P5ZzN03n3f2eYeGr1E3Uj8bp51duBViKzC50qzKDS/Jbfl6JkeKVbaRWawCFRyprucO8puwnlpxH60QE9EeBKntHYDrHl0orwjKzXFm0OzoWXb0bCeI7pXDPFhUmFp9r7ytvVGEtjz3I8hzBCnr7jtedUOfkb+NXqAIoUOlxIs7joxuR8qtDFy5Ea7YDXF0iLlb94f9rmUaRaAPSOLluesmULO5RADI7VzyJqjLSwTu3a3R1dZNSUx56So4QZABIUIp5K7coSnlGbSXxFKBSjfCHPFGexuYleuHUsV6dHwyR4ZZupWe78yugnr6n2KNw3xsPJQAa0xuRZArbV0JN6txrHwzSrYWibybTFYmk5UplF0UqgolS5uSZUGDgorLkmvqr/CEjxCkbFAQduve3izmDgpzI6NYHm1JFjcjvz60FeuuArNyC4OrSivVTaX97eCr7up3pfbRpApuf29/f28/+F4AgYkiAOR2okiCfGYcAS6bq6GmUVZSNuMsm1aDRAhS09hqvu/Yd6r6e2LTNKGSrXCZPLNcBts9Hh2KjKYKLJXLwGUK9EKV7JyYh8/uY4OQxVorxNqT2xGkqrs/vPKGHSNXi8zYSWUo0WBFOlOOzpKjs+TpLEV6zuZslhKJtoeYbU7LOX6nNqW5/UTtI5Pc4u0U5iZ6oTxUJvvKLKBRca34VI5Zpcis3AZxtOilyuH4VbpmfuHRnQMTtj+xgCdob22vvV9bUV7JoDES4hNOnThFSCf09vRNq7tA4XOHAJDbueNLUJNRBLLIWQa6BvX360ddn+en3TwRnpH/q6GFzL5QdWruNpityOTKMivRNaTgSnRfW/ECF8xyKSZXDirdkpVnlcsuGeC3YRIrDij5CNKNINWDotjqR5bZ+XvIrG3Z+ZsYhfJQkQxULA2jSQYukYVK5KESBVqBIoW1lQSrQ4XGJZe18zlb6QWK9EJ5dOHll4ZHvVZoxZOCZJhV8jmXN8LlyjBHncD8zdn3Tz0ziHsVW77k3VwqEogG+gY62zubGptQfeVWwBAzIy0j/My5oIAgV2c3R3snV2c3P1//zHRCXw8IcN8NL3h6LAJAbsciA67PegJREVG21rYdrWAdoheuFCHI9UfP9P0PrrRyUk0h74RKFJgcdFNbZqU0Ft1iG+1VSDHLpZlcGWwjvN3UvMPX7tUOd9mK8xpEkCYEYTS0uRaU7ybnKdGKFRilcqh8cmTQHenFqRzbNYgjC5XJMkrl6MVy2YUKjGJ5RokcxJaFOJjWVsrAVVhCdykYMzHRfQDlcq/IsyoV4bLd9OJtFxJ+0DYy8T9w93Hji+qNcyRC+nv7mxqbbt28nZ+Tn5GWcSH8wpFDR4IDg/1xAfuDD4QcDDl5/NTF8xdTklLp2Qx2Sdmt67eaGpuEAiFYI2UcruDW2xMAcvv2rMCTs4mASIgc3HfQz9dPMDhh7Y2zqf5j2NonQs6mU1brmsgfO6NGy98MlciyxCOkxG3IWHQLY3KLbq7H2ZRdqE8rTHj0vBlbpEKSay+C3Bngn7lySzsrdyu9ZCPElYWGd8BlVkgPJ6xTFhVdGXRjA1R3sSUbOcOzbCtl4MtYqhpTaMU7BTGrZHIuy+Vekcu9LMcqV4JK1CjMDcEhPyqrnUkjjOlgEdLb0/eg7gG7lE3MIJ49fTbAL8DJ3snK3MrJwckfF3D82In4ODwti15eVn7rxq36uvpnjc862jv6evv4PL5IKHqx6qek5uAAEHhfAkBu35cceG9mExjoHXBzdgs7GQZCk5GOul73eKe921orJ9U08k64WAFmSw9P/hGvIYU2Jo+QW6WsQrtcLtTW34HNnZVk1YUg+S1tbqwCZTJzI8SWQ9uEX4pNsVmz4q1+hmX4pf3nxaOixFp7eZzoVrwVrgyzSlYit7mVinCpMj1PJTljtbmNkpXd7UdPJYb19vY9fPi4vLyCSCRHnL+4P/iAo52jhamFmbGZnY3dvsB9F8IvUEgUDpt7+9bthw8etjxv6e3pFfAFIhHWTD5yVe1JHYglsRgczBsCQG7njavnWUUbnzbaWNqkJafNs3qPV93Orr6QCzErVXW3hoar0/I2QyVyLI4UCx0VJR6NjC6SPEJu5WDOtqwCr5Ir3EFhNzbLVpJ7G4JkPHhoTKYpUXOwNuTRcjusvpI95EceiBuQJVr7tnIrm3NZNqdKNqdSDmZvpOWqkOl7zl5YrqqJO3kmt6iEDjGTk1LOnAkPDt7v4e5lb+vg7uIe5B90/OhxfCyekc0o55TX1dY1NzX39/UPiaukPpKDUetgSa6DA0DggwkAuf1ghCCDGUngStUVUyPTwvzCGWnd9BhVVn51o6bhOitn3WTSbkahIlwqw+JuYJavx3YjEI9JHim3slDZdmp+QNm1WyJ0DamRwV4LgsRW39MhUTdl50mhW/qMnMMzUlnFxy8FvpgSi/trq96hMZmFBrgy6GYJFTIQW46er0yFjTJIf5pZ/aq0w9rZzdvX3w8XEHL46IVzEanJafQsemV5Ze392oanDR3tHYP9g2gvLPgHCEwfASC308celDyZBGhUmpGB0Z2bdyazkFmWd3Rc6pINm1QOnzKi5OyEi+WZbGkWd/0IucW09kVjsgxUto2aH8S5dg8bJyWprQhbqiLybrUmOUsxO3c9VIoOrRraxkesryMbkMdSXLEGixV3vL5b8chkKXQwVxU2aporDZXKMAqU6bkG6aTfza036Rufj02AWXmVFZdra+oaGxrb29v7evsE/DF7dSV1AQeAwJQRAHI7ZahBQVNKIOpilKWZZVND05SWOrMLS7lEXSK1eVvgUaOsvD05bHlmqQyLs4El3muvYlhrX8itNIO9jZq/v/xmDbaihaRyIgRpQZDImnsalCx5Ws56GJVbtMcXrpBGw9yRWvvG9SveWm7RHQvQMVwbYI40VCLPKFCF8refvbhcS/9MGuHZ89bevn4+XwAGN0ncBA5mGgEgtzPNI8CeiSAgQvxxAZ7unn3dYI2CFzzr6p+pWTit1LdQi0tXZ5YowsWyrDJpFhcVS/FcW2wTnqGhUkyuFIOtRMkL5t6497LcItjmtfH1tdrULPls1nq4RIopzqR8eN1jVHcx6UVD2+HAt1L65eFU2AipN49MHopuUa2tkGJy18NsGahoCyN/5yXyUnO7rfautxtGrJ8sGev0ot7gCBCYEQSA3M4INwAjJpZAf2+/yV6TYyHHXnTXjex4nNjCZk9ufIEoicpaq2W8HndAlcTYChXKM4ulmWxpJgdrDUZ1ceS82w0M9mZKnmdx1XURusveyH+dCEJ+1mhMoytQoQ1wsTSTI40prnjp45H6Kh6iPCL2Fbcti/t6JT24b9GYPBTalm2Ai+UZ+dvJ9P8cDP1BVecsMXtA8LJ3Xz4baTY4BgSmkQCQ22mED4qeLAJ19+t37dgFVkt+lW9De5d9yKll+qYbw6N20XI2QvkyqFiiiospJRqASqLbDQz2Jmq+bU5ZyYBoxNJKqJr1IkhZf69bfsEWUrYso0AGZkvDEsWVyDaam/RQVFqOKfrIduaRo6teHUv10hXUKiy0lYJLpZmFm+gshai4fxtZ6AUcqGluf7Wa4AogMAMJALmdgU4BJn0ogfyc/M2Kmwvziz40ozn3vhBBcqpuSZlYL7NzUSNmbWfkKsAFMswSaebQPgFigcSklysFlSlmFRjQC4ktPW0v9qxFx/fyEKROJDx746YKKWtjdo4svUgaKhMHuEPt0uI5RSPWg8SWqeLKoqtniFO5DFQuC1fIjm5hfkloxROKsKbpcvRvAqhYDs7bQs76xcf/VxPzzFIO2Ph2zn2kc7ZCQG7nrGvnc8XwcfjNGzffr74/nyGMVfeuvsGgi/GLdqluCgtXpcOboVw5uEiGie6Ch83nkQwtRpeCUsgu2k3JOX3v8cMXiziicitAkFYEYba0WcG5SiS6XFauNKNEGkYbpTegSbzDwdA+B1JMrjSTgy0sVaYAsRUhtgLERjcnYHBkoXI56I2KKzaJK8Msk4eLNjOYCrHxS0zM7E+ebujpHaua4DogMNMIALmdaR4B9nwoAaFAeCD4gLaGdkcbWC359TArah4oWtp+b2CknJiizGAqQgWycIkMzHlVbuVoxVvIOe5lV7kDgo6hLeLRxmQhgvQhSI1AcO7ufUN6jhKFKZddIE0vkYI568VpSHe5UqjQsuXgUgVG8RZGsU7pVa3Cqm30IkVqgXx2iTyDI8colxlPcYfkXxbmyMGlW+BCZWr22sBAGTsHxpWro3qUX19bcBUQmBkEgNzODD8AKyaOQH9vv6WZpaOdo4AHpl2+Hmsfjx+eSfpyy9bfcQF7SFlKUJ4cuoEPB2uzRXtbhyfzcGXppfLUfD24OOVx82MswBWPQxJhAW4HgnD7Bk7dqDaGCrZTWXLUvA20onVQ8d9QyTq4dD1cugEqlYVLNkJF25mFGrkljpdvnXjaevxhsz376k4iaxMpTwFTXBkGV/alhTIk7ckvtFYeYm+EindD+Rsjo5eYW/hGxTT39YNBUa93MLg6IwkAuZ2RbgFGfQCBZw1NO7fvPHL4yEvLIH1AhnPy1frWNm1v3GIN7c0XopVpLEUmKrdotys2uAmbz4MNa2KUydKKd2blB3Kul/cLujCVFWIrTImw2UHNCFLe2x9R88iugLM7i6VAgWSyWRuy0CSdxZKlsjZlMTVYhf9/e+cB11Sa7v///dwtd2Z3792du2XqnZ3Z2bk7s+PO7E5xpCoKKCgCioBKFZAiUiyIDSk2sIMgLQmEJAg5KZCcFnoJ3V4ZlVEUQVA66cn9nxNAZCyolCS8ft6Pc0je857n/T7H+fG87QmqPxN/80dO/6BYoaqSK+n3u0PKGpZyRBb8UnOYHFV+ptzWk3GteAFatQQpt8sv/FvIJpMNIeXXmsEvUwb5Zhpwp4DcGrBzZ2nXzjSeNTc1zz/NnqX9n1i3FRoN0nT+W0+fL0K32OQXLMIqTLCa74d33zaQS6UIuTVCa40R8cLCUk+0kn6740e1RkoqrvYhSnJI+aFGc1Eqz2vr3N141re0wgUvdsREK/EiJ7xoTXFpUJX4UPMPUHdPrUx2S6NpJzP3NSvU0P3e4LJG28IyC7jK9HEyvtG4dnhVsxFeZ4LVmGHVlkj58gKRcfyJD1aujmOefiQDA8kT8zSopTMEgNzqjCuAIZNEgMfhm5mYnWk8O0ntGWwzfVL5Hgr90zXe5ifSbYSl5piYPO+insx922CED8utEVozH660E5RurWws6up9SCaZV44EuEpylXKvRtOiVFX09UOdndS2eyl3fky53ZJ+rzWns0PQ3d0kkbSo1Q80mgGysoy8aFZqMtr6PMqbFsEVT80zP7oamUhIgFYuhcvsGdyPvQOtQ7ZevN8Jjj822PfScDsG5NZwfTsre6ZWaU4mJlvMt7g7JinbrCQxoU43tNyzCdv+V/9NS5h8S7TKGKsxEtUbiRqINAAi7QxunRFaa4ZULxKUOgmK9jacrezpfUBO4irIBVPaQ5zkpIJ2ajR31eobKuU1hfyqQt6sVN5Uq+6SJz72jblFrtH0aTS3NZr8AfX6mvOL4HIzrNrk8bpobYA7djVylRVaYc8vmhdz+FMXL6qoQgrmbCfkXlBJtwgAudUtfwBrXpOASqGOP5BgbmJ++9bt12xqNtw+qFCdgNCPV3l9vefQEn7RAqzaFK8zFtUTWitqMMaHFdcYrTFDKiwLRGuEovizFyq6e+6OhKqjYa6CnMqVkCdgDGg0/WSFAXK0WUoGtUpyFFpOVrir0YgH5Ud+uLumpHYRUmGOi03xehO8kSzaE6aIRxMZ6cnQ1hYus8rM/avXhrXRCXf6wOaf2fBuGmAfgdwaoFNnc5fUajX7NNtqoRUlndL9SJ/PG5quAO5KR8/qqPh3VnlbpDOXwBUWeI0JXmdS1GBS1KhVXCMi20+tMVptDpctKcTdkKL9jefgjq5bSkJT5SOJ+bRrlVVkyKsilVVJbhzSqqyCvJaRce0dlab80cCx89d9isXLkHILtNIMqzXFG7SZ5Ef+bjTBG0ywWjO02hqpsOOgX0XGzfMLy6toVIx9v0F62rE0wLVuEwByq9v+Ada9PIH7d+8fPXTUdZUri8Ea7AeR0AsISlUabu3FL1b7fRy01TZPaI1WmeM1pkX1xkWNxkVEclkjEZEYYB5WY4xWLSAUt2iNsHh7RX3uzbvnB+Qd5FSunNTX0eFlDanBWtFVkBWGyHi3U6O5IlXzWx/srTm3Di61F5RYIRXzUTF5ztR4uTXF683wWguk0g4ps0qlf7x2fXhiZmvvEPF7yGgegtGLF/QSfA0IzDwBILcz7wNgweQSUKlU91rb9sbu9fbwFhQIZBJdXcKq1kiHpLd/vHO26ay4UlxfW998rbm/r39yaUyktQdDsvDEjN8udjQ/nLIcLluIVZuJ6oyLGoyLGueRcmskqidOhsJqTdDqBXDlksLSlQXFgWjlwbqLUMu9C4OK+2TYOjgivYqRJVEScki5S6Np1WguyNTCtq7kSze3lNavKSyxKyyxEpbPR6rNyGXJo0c5ktFtoyneYIrXLcDEi5FyRy46JzRynk8w0nh5+MjGUZUdvZhIP0EdQGBGCQC5nVH84OFTRECtudF8M3p3dHBQsAgT6eB5F73dveJKceKxxA2BwSvsV1hbWtsstnVf4743Zm8RXvTo4aMpAvPUZlUaTeX1FlO/4I88/JcyOLZI+QJcbEIEuA0jcttALKHC6o2wOhNioXK1FXG4Y4kLvzgYq9pfd4HR3IK13q/peHhtUNZMluuDsmuDsiuDsrMDUvx+V86N24fOXttS0eiNVa4UlC8RlC0SVhJai9SYovUmaOOI3BJ5C0wIrSVC20VolZ2w2CIp/QNH113p9I5B8lyLUYkde/HUjoEPAQFdIgDkVpe8AWyZPAIqperiuYtRO6MC/ALKS8qVMh06FKGzoyuXmeu6ynXO3//x4Qd/fudP7/7+rd//7r/e+v3vfv/+O+9bWlieTEzuetA1eTBe3NKAXHmSJ/iLg/O3u+KWc2BLpMIUrzEeWaVMDik3GuPaLLb1JmiNOSJeKKy0FpQv5Rev5Iu8hCXBWPmOspqEhguH6okS33DhYMOF/Y0XYhsvhFfU+uAVzsJSe0HZEkGplbBiAVxthohNkRoTpI44M3lYbofPkDLG6k3xOnNcvASrtGFxPl4fbBEYWvvDnWEXjlXZ0esXdxHUAARmmACQ2xl2AHj81BGQyWSN9Y1bNm31W+dXXVmtHpcVdeoe/NyWhwaGTjNP29navf/u+x99+NHC+Qvd1rh5unk62q+Y+83c3/zqN2/8xxv/+urrtJQ0mVT+3JYm+cuWRz1e0Xs/cnGzOpmxVFAyH6k0wWuHVykTy6YajUVN2nxBxJphtM4UEZsh1fOFlRaCUit+kS1PZM/HnQpEqwqLnAqLVhYWrRAUOQiK7OFiW2HxYmHJIkGZBVwxH640R6pJoa0lUhSQcmtKyi2ZHUiboa/OFKtdgFUvhUu/jz/23grno2x+/+iRnKMSO/ZikmGA5gCByScA5HbymYIWdYeAVCI903gmOCg4KCDoTMMZXTCsvqbe0X7Fe2+/9+EHH3q5eyEC5OrVq9evXb908ZKwUOiyyvWt3731xi/eMDUyq6+tn06DiXOm6hu/Xev5ZfDm5fnCJUilOSo2Ifbn1JsWNZkUNRnjZCHy5Q1viiU26qBiU6TaHK6cL6ywEJZZCEtHywJhqTlcag6XmcPl5kilGVJlRghttYk2FxChtbWmZEYgU7SRVNwGE2LzD5GJyAwTL8SqFjK5H3j7L9u262rnI622DgMZK7RPfDGdwMCzAIGXIwDk9uV4gdp6R0AukzfUNQT4BYQGh166cGlm7ZdJ5fEH4t9/94M/vPUHO1u76orqocGhUZMkQxJxldjSwvKXP/vlm2/+aveO3dIh6ei303DROySJPJH8lxWuVkmZK5AKK0xMbtGpNxU1mRSdMRGd0e7SIXPQjg78EupIKChaY4xVjy1GWDWRDR6rNkKrjdFqE1Q8UmpM0brhghEJ+LRyS1yQs7YmRGgrXsQv+iw6/s+uHtSSShm5Lerx3qhxcjsNaMAjAIHXJgDk9rURggZ0noBcJsdgzM9n/Z5de5qvNT+29/H/vx9/NqVX7W3ty5fZv/HLN//y0V+OHT4mGZKMe5xUIo2Ljnv7D2//2//7t0UWi263TPdhHZWXrlgFbPybf4hDboEtXLEAEZthdaaiJlPRGW0ZVVzySIoGYncsEQHXmRDnY9Qai2qMxpR55LUxXkseWFFjimlLrRmxEqphuGCNZliTGdZkijaY4fXmovr5WO0SVGySxnrXe4NH/LGWvoFxlMCPgIA+EgByq49eAza/NIH+vn4BXxAUELRr+64bzTdf+v5JuuFG880v53z583//xT//8c8SUclTW4UL4Tmfz/n5v//8qzlf/f/VXk+tM3Uf9kulx06z/8du5dyog8sgzAquMkdrTInznpqeUcjzKEZFV1Rn/JNiIqozxYli9riMkVu80QxvIgpGyO0CvM4SFS/llfxjx4HvNkQUnL0yepLG1PUatAwITAMBILfTABk8QicI9Pb08rl855XOO7fvbLnVMiM2/XD9xmf/+9kvfvaL777+rqGu8ak2NNQ2GH1v9MYv3/zisy/ONZ0brjONgfj1Bw9XbNnxRwcXi5Qsm4ISC0RsghL5aE0ez90SxxqPUV+t4pIxrqjO5KmFlNsxikvILTl03GA2LLeNpli9OV63CK1ZjlZZprM+9dqwNT3nnkQ7kPxUVOBDQECfCAC51SdvAVtfk0BPTy8rh2Vv5xAXHdd2t+01W3uF2+/eufvdN3N/9m8/+/Qvn7JyWE9toZBX+NU/vvr1m7/+7utvL50fiW6nUW7lak1h/dlPHV3/FhZpk1toDVeZwjXGaL0R1jiPLEbEaqlnKy45sKwdXtautDIhDmGu18owGebWm+L15KmNxFi0Kd5IlgYztG4BVrsMr3ERlHy5edeCDZuLL9+Y1rnrp/oDfAgITBIBILeTBBI0oycEuh91Z1Hpa13WpiSlPHzwcJqtlkqlHm4eb/7Hr/74339c57Guo619nAFdHQ+2bd7y4Xsf/PY3/+W2es2D++MrjKs/RT/2SmVhx0+967TW5GiqTWGZmbDaGKn/Hm2cizZ+jzbOw5qMyGKMjyyeEjUZi0ZjXGIx80ghBNV45GgqclsRIb3DKRDIRAgmIu0EcJ05WmOJip3QKrsU2p8dXWIoOZ1SENpOkYdBszNAAMjtDEAHj5xZAo+6Hp06ecrbw5uaQe3t7p0+Y9Sa3u6ekOCQd/74zlv/+bu/ffK/R+IP/XjjlkZBnN+gkEoetLVlnjpl9O037/zh95989HFqcrJCPnIg/zRGt1og1T/8aBwY9nFA+JJcgSVcZQbXGSEN89CG79EGcvctkf7dmJjQJdL4kLtyG0xEw2umnghtSbkdEdrRmV0y3h1RZXKQucYCrVyKVDqwCr4MCLVcv6HhRosOHU0yfW8JeJLBEgBya7CuBR17JgG1pvX23cRjiV7uXkw6s7/3accUT6K8qTVqpaqjvb2spPT4kaOuq1zMjU3f+9M7v/7lG1998feQwEAGlSrgc1n0rD07tluYGX/47p/ef/sP8777pghDntmFqf+iX6Hcd5r30ep13x44YVdQagmLzeEaM+IcqBpjtNZIW7BaY7zGBKsxIfIIiU1w8diNQMaY2BgXa781w2u0xVxUay6qNcNrzPGa+bh4Pla9AK+xwMWL8MolSKkDHzOOO/TZqrVpPOHQ6K8aU99Z8ARAYBoIALmdBsjgETpHQKVU3b1998TRE67Oq0+z8oYGHm9+HbZ1rNyOvX75rkgGB8VVlQkHDwT6+20IDNgXG7MvJtp6ocWf3vrtb9/85bv//da3X/7d9PtvvvvXnL/++b13//jbv370rsncf5obfxe3Z2frj7de/oGTc4daoznb9mjFrr1/9gxYRs1zRqrskWo7tNoWq16CVVvj1VZ4tXURURaLqpYMl2pr0UjBq6ywSiu80hqvJM5ixCoXo+VWwlJLQfGigqKFfNFCPm5JFMyajy/m4zY8ZDm7YGkq9fN1Ae674+6MG3V4PRdMDhHQCiDwegSA3L4eP3C33hJQq9RtrW1x0XHOTi6F/MKpSBykVqpa79zOTD/l5bFmjavT9m2bM9OTeZxcHpt1/PD+Nascvvzs43fe+vXbv33j9//5i7d+87MP3v7P77761N11efzeneHBfjaLzA/GRbW2zNi2JYlKk1Nc9aWL5zcbNi85krzgaLLJ4aS5h47/8+CROQcOzzl4+IsDh4mL/Yfm7NOWw5/Hxn8eE/9Z9MG/7dn3adTeT3bFfrIr5pOdMR9HRn24dcd74RHvhGz604awPwaF/iEw5O2g0HcCQ94NDHk/IORD/42f+AX9zwrnb1a7F1Y3PDGMDM6N0tt/ZcDwsQSA3I6lAa5nFwG1Wn2z+eau7bt8vH1EmOgpRzi96v/oFTJFy81bJWZ8tAAAG+1JREFUXDYUGbFljeuKoADvwwmxDHo6n8sUFpxGCvMEXCY9Mylu16b1nqvWrFjs4mDp6mi1wc/lQMzm7IyjMDcHYmaGB/k4LV98MHZ385VLGvUMxHdEpqAzFxc6u/91oY2RT8DXPuvnePl+7uXzqde6v3h5f+zt/bGX9ydePn/19v2bz/rPfQP+7hf0d7+gL3yD/u4T9IVP4Bd+QZ/7Bnzu6//F+qA5ARu+DNzwr+CN32wM+XZj6NyQsO9DwozDNpmEbTbftHXRlgjrzRFWG8P+bLZgdUj4o9GTtsDpUbPrX6SB9xbIrYE7GHTv+QSUSuXli5d3Ru4MDgwuworUqierq8hM5k9+9vyf1CpNe1s7jmJx0TG+67wD/NbF7omkUZI4+TQ+l17AzRHwmUI+EyFLQR41L+skM/M4I+Mok3IMYqQI2BS8gFFUyCoW5uVmnYraFua5emXMrsiL5868tCnPN/RF3w4NSBqazh48ctx3Q3h8cnpWIUIVYlQEp+HF1OJSSnFpJllopeX08kpGlThXXJdf0wDVNnHqmrhEOcOtP8OpP8Oua+I0nOE1nS04d15w4YLw4kX08iX08iX8yuXiq1eLr14tu369ovmH6uYbZRcuBm6L9AsJ7ekfHLYOyO2L3AS+1yMCQG71yFnA1CkhIJfLzzad2x6xPXB9YJ24TjM2jBx7PYGHD/T111bX7IuN8123bkOAf+ye3RmpSfksSgEnu5A7UnjZQh4d5tIRHh3lZaPcbIybhXFpGDcL52Xh/GwRUXJEBQyYQ8/PSd8fvX2ts6O/j5e4qkKpkE3AiteuotY8eviogFe4bdv26Ji44pKKjq6HPf2DPQODvYNDvRJJr0Q6Wvqksn6ZrF8mH5ArBuXKQYVy6MkyqCA/VCqHlCqJSiVRKcm/VVKVSqom/pap1TK1Wq5WS5VKnkCw2s29skr8uA9jFffxp+AKENA/AkBu9c9nwOJJJyCTyhpqGzYEbnBf607k4RmnshMYUlbIZNevXMk4dSrAz8d9tcv2rZuo6Sns3Gw+xCjk0AUcWiGHKhgpQg4NJgoFgYYLyqGiHCpGFpxLxTg0BKIJIRrMZXBY1H17djgstfbxdCstwqVDI5HfpFPQNqjWtN5pTU1O9fPxOxR/uKnxzODo0O4UPXFMs7dbW/38/KOjYx+PnQO5HcMHXOo1ASC3eu0+YPykEZBKpJXllR5rPUKCQ69evjq+3XECPOZrtVLe3tYKF/C2bQ5zc3EK3xiYcuIwm0EVclhCLlMA0QUQTQBRBVCm8MkCQxkIe6RAmQg7E4MycaJQsGEZpiGcbITL4J/OPpYQ57naycdzLSYskEumSnFVCtXFcxcTDiSs81qXnprRcvNHmXRa4ukRnnKF4vjxxGXLlrfcGsnN8GzyIzeB/wIC+kEAyK1++AlYOQ0EJEOSElHJet/1u3dGXb9y/blPJGMuheJhR1u5CNkbtcPHwzVgndu+PZEMaooAyoG5OTCHLoSyhGyaEKIIoUyYKBkwlD5aEHY6+mTB2Bk4WTB2BgZlohCFiHq52SgvR8hlJB/d77VmpY/76gLo9FBf93PNe8kv1Rq1SjPQP1hVUbU9Yvum0E1ciNv5oFOlHDeV/ZLNvlL12toGC4tFlEzqcIAL5PaVMIKbdJAAkFsddAowacYIDA0OFfIFfj7rY/fE3rr5rD2vao1K0fews76qIvlYwgZfj/WeLrE7N1FPHeHlZsKcbCEnSwhRYYgCs7UlcySKTUegdARKIwo7DWWnYU8WnJ0+WjBCiTMwUnERDg3n5wjYtKRDsT5uTu7OjgxqWmdb62QtnlIpVPda2/Jz8zeHbd6za095SXlfb99M+aC3dyAkJMzVdU1He+dM2QCeCwhMBQEgt1NBFbSpxwR6e/s4bI6Xu1d0VHRb61PSGEj6ei6eachITgwN8Fnv6RoVEZJ2Yj+HkSaEaAiXhnBopMoOSyzKzngyhCVUVlswdhr+RCG1Nj8D1xZ2BhHjasNcDgXlUlFuVkFeZurx/cG+bq6OtqknDrW3/kiEpa/8hwwc1Ur11UtXEw4kBAcFp6akXr54ZWzG+1du+5VvVKvVBXyBmdl8HC965UYm50YQWE8OR9DKMAEgt+BVAATGE+jp6eGwufZ2Dgf3HXjU+UQag862e6ezaUG+nk52NhEh/qeO7YdyUmGIpl3rhBKrnwihJSX2sbKOSuzoxU+0No2Ia0e1dvSCnY6xM1AoA+VkEo1zqEI2lZF5fFuIr9Myy6MHYtrv/jje+pf5WSFT1Nc2hIeGe3t4c9icjvsdj09pfpl2JrduR3unh4fnnj0xfU89X/P1H/aMtW/SQen1a9drqmvutd4jlsu9/Daw1zcNtGDABIDcGrBzQddenUBvby81k+bkuDIt+VRP10ONWt3f/UhcURYfF+3p6uTnuWZ/1HZGZrIgn4ZwslAuDeVQSEXMGJmRfZ7WaoeRnwxtnyO3aSg7HYEyiEIuZsZ42Wz6qc0bvJ2XW5+I33v/TstLjyoTw+Gq/r5+YYEwNDh0U9hmESrq7ekdvyT71fm91p0qpYpCoa1d697YeOa1GnrOzSSBgf7B+/fuX7pwCUdxSgYlatceH2/f0ODQOnGdWqkmaIAA9zkMwVcvSQDI7UsCA9VnDYFHXY9SkpLXeXhRUtNEKJJ4OCHE39ffyy1mxxZa6gkOkwqz6QiUhUJUck1TJsrJQKD00fj1+RfaWdsnFVc7cft4MFk7j6utSSguIbqZCJRJ7NPl0VmUEzvC/d2clsXH7Lp26Zxa/hKZYRVSxdXLVynplNCNofH745sazszsAPJP36nr15rd3TzTUjOU8ifOc/xpzYl/olKo+nr6Wu+0nj1zrggvYuWwEo8nxUbH7YjcsT1ie3RUdPz++MRjiew89v2799VqILcTRwtqTogAkNsJYQKVZiMBtaaj7f7hg/FLra3XOjv5eqzZsTn01PFDEJMi5DBgNgOBhuUWI7buZGJQxvMldty349ZJkT+mYyOrpTBiGDl9RGu1sbJWcTMQYrlyFsLJzqUl7dkWsnbl0q0hgXWVZUqpZCJukknltdW1O7fvDFgfkEXNunXjlkw2rbt9JmakLDZmb+jGsK4HXROp/6xIVCFTPOx6ePXy1bKS8lxG7sF9ByO2bAsPCd+6aevOyJ2HDh7KTKdwIW5FWcXVS1fvtd7rfNDZ29urVJIaD0LbCaEHlSZKAMjtREmBerOQgFqtbqytXbZ4sesKh4yTx3OzMwUQE+YyYU4OAuWgUDZKRrevJrfj1Ff741gNflqFdGKRM5RJbhAiFJedk3ooboerg21YgG9dZbnmRcdODQ0MFWFF4aHhW8K3IAKkq6NrRnb7TORdggWw6yrXitKKiVQeW2egb7Dtblt9XQOPy09NSY3aFRUctNF3nV9QQNC2rZGHE46wclhlxWWXLlxqvdOq1VfJkGRYYsc2BK4BgUklAOR2UnGCxgyOwKMHDwJ9fda5rYG5+ULuaZjLIkJbKAeB6KTc0lCIOolyO7o76GlaS0ziosTJGJkIm1g2RWzJ5eYI2fTEhDj3VQ4bfL3EpcXPGVV+0P4gm5rt4+0bFxN37sy5gf4BXZ6bvN1ye52Xz96YvSrFi1dfD/YP3m65XSuuZeYwY6Pj/P0CVjo6Oa90DvIPit4dnXYqXVAgPNt07ubNW/fb7nd3d0uGJMO/Z4yeWmVwry7okK4RAHKrax4B9ugWAaVcvi86aqWdLcJnw7w8AYch5OTAxDCyNrSdfLl9htAOjyeTO4vIs6iILbk0lEvH+UwhxDh+MNbNyd7HzRUr5MoHB8ZBlEllVy5d2R+338vDO+l40s0fbunCCuRxRo77US6TnziW6Gi/4uYPP0lBqNZIB6Xt99vPnz1fyC9MTUmN2RO7OWyzj5ePv6//5rDN+2L3UTIoiBA5f/bCndt3ujq7BgcGnx7Hg/VQ47iDH6eMAJDbKUMLGjYQAmoGjWK9wCwvhwLzTuuI3I7EuFSEk4Vw6RifJWDnJCbs83Rd4eu+uhDK6+l6MIq/r7e3tKgkamdUkH8QI5vR3tb+dOEZvUFnLupr6u3t7HOZuUq5ktDXtvZrV69Vlldy2JyUpJS46LhNoZv8ff2DAoJ279iddDwpPze/sqyy+Wpz2722nu4eiWQkhNWZHgFDZjMBILez2fug7xMiUIqj1hamKccTEH6ecOajW2I8mSzEkDLMpgohreLmCiHWqeMJQT6e69xW09JSutqJMzoG+nrycnPDNobui91XWV7Z/bCbWHOrJ3+6H/ZEbIlY47qGmklLTkyO2RO7JXxLeEh4ZETk3pi9yYnJp1l5xaLic03nfrx1u6O9o6+vTyaVqVV600E98QMwc3IIALmdHI6gFQMm0Hz5koOtdeSmYKwgjxhJHh5MzkLYVIRNQYmSOXJ61Au22z53oHiC92pPWs4gHzqsuGSMy8T4eTAnl5qSGBa43sl+aeLhhAax+FhCwnof3+TEk81XmyWSCS1d1h1XqpQqQYFwmc0yT3evyK2RRw8fY+WwSotKL567eLuF0NeeHiKEVSqUujwJrTs8gSUzSwDI7czyB0/XAwI9nQ/8vd1dHGxhLhMhlyXDnGwEyiK1Viu02nBzoptuX090R+X2cYxLbP/l5qA8FsbPQ3lsemZqoI/XAuN5zg727q6ueUxWx/0OQpP08E/3w+7ykvKmhqabN24Or3KSkKuIQQSrh96c5SYDuZ3lLwDo/osJKOWyuN07zOb+C2JQUB4L5tBJuaXNhNyO01oixiVWKUNZKCcH5TIRDgvh5cHcvKMH9y4wmuvr4VaCYT3dPfob/KnVaplUpi+TzS9+mUCNWUwAyO0sdj7o+gQJqNVZ6alffPpR5smjWrklDm6ExsmtVggnOCD8ytWeIrfksVY0YlcSh4FwWEKIVZDPiNkZ4eJgJxIWSoaGJthLvawGYly9dNssNRrI7Sx1POj2SxEoLxL970f/s3dXBMJlkjtuybMbiSnb0Vnb6RlJ1m69HV0tRc7gQhRScYkAF+EwEW4ug3LKw2VFVOSWR+RqqZfqKagMCAACU0QAyO0UgQXNGhSBW83X5/7ryyAf98L8bGLYFsrCIOrICuEX5/95vcnan4bCT8a4RHYEKnG+FSm3MDf3QPROBxtLfj5LpZBpVC8+I8KgXAU6AwjoKgEgt7rqGWCXLhGQ9PevWbXCcakVxMjAeAyETZtRuX0yxn1Sbnm52T5uLv7e7i3XLhMZbfRn248uORzYAghMPgEgt5PPFLRogATU6oNx0WbzvqZnJOJ8pja6xSDKSIA7bSPJYyPdkRgXIg50JFdLMRAu6/jBWPslljmUdLlkgEzZaoDeAF0CBPSRAJBbffQasHkGCAh5nG+/+jzxcBzKY8BsGsLOnGm5JWJcDMok0v9xaSg3G+EyuSxqgPdaHzfXH5uvEqGtSi83/8yAd8EjAYGpJwDkduoZgycYBIGW5mum3/9r19aNQg5dSMgthZTb0aVSY+POabsm10xBRK4CjMeEuaykw/ttLRdQU08qZGT6WzCSbBDvHuiEYRAAcmsYfgS9mDICI1tN5JIhF8dl/l6readpMCcLIbLKU8esTJ42iR19EDGYTGQH4tBQXo6oIJeXm71xvZe9jdX1SxemDAdoGBAABF6RAJDbVwQHbpt9BNQRYcGujkvz6Gk4n4Vyib1AI+PJ2mnUUSGcngttMj4KsQmYx8R4uemJh5cvtkzYGyMbIDMCjfyiMPs8BXoMCOgiASC3uugVYJNuEkg7eXy5zcLsjERR4Wki1+xjudXuBZrmBVNEqnmYTYE52SiPVZjP2LEpZOUym3P1dcRqZKC1uvkOAatmMQEgt7PY+aDrL0mgBIdtrcwTj+wVCUblVhvgTv8MrnYkOQPhUIkTJbksevpJT5dV0dsjpdpkt0BuX9K5oDogMNUEgNxONWHQvuEQuHn9ssMyq92RoSifSUa3RG75mZjBHd4CREzcQjSYQxewc+J2bnNbtbKiSETutTUc5qAngIDBEAByazCuBB2ZSgJksNjded/b3TnId60Ayh6RW1JxHx/lOKWztlqVHdZaMjkBldiSxM3Jp2f4uLlu3xze/YDMKg9C26l8F0DbgMCrEQBy+2rcwF2zjAApYErZ4M6IUNeVthxWBsajoxCNLNOzPnlUZYfz7qFEtl0ayqEXFeYnHzng4rC8gJ2vUoLMr7PszQTd1R8CQG71x1fA0hknoFalJx9dbrMgK+1ocSFrVG6nZX3yk2kJ2BQyuT0N5TAEbEbQOo9gP5/bP/xAEAKh7Yy/J8AAQOBpBIDcPo0K+AwQeAYBEcyztTQ9dnBPKZxPZAUgAtzR7UBTuj75CbklctyyqTA7S8imn4iPs1lolpV2Sj40BBISPMNv4GNAYOYJALmdeR8AC/SIwOXzjcsWL9i5ZUOJMA/jZI/K7UiAO3XZgbRyS6T8I7IjQFRikRQ7m8uk+HuutrexIk5tVKuB3OrRuwRMnW0EgNzONo+D/r4Wgc62O27ODus9nTEuA+fmYBCRGgiDtAc6amdVp2j37YjcElpLQ6EsBMpGoJyUI/sXzzc+enCfQi4jOgZGkl/LveBmQGAKCQC5nUK4oGnDIyAf7I/cvNHRdiGPlYnzctAxcouxMzD21Ea3RAw9IrcoJ4efSw0P9HG0XXzl/BnDQw16BAgYGAEgtwbmUNCdKSagUmWknFg8fx4jM0lUQGTi087d4hAFhyik4k5+dItB6RiUgWqT/4yR26xTx10dl+6PjpJJyYQEU9x10DwgAAi8DgEgt69DD9w7GwmUoMLFFiZJh+LIk5OHj3LEoUwcysTY6Rh7yuSWk4lyiOgWgWgIlC3Iz4rbscXdeUVdVQXpBjUYSp6NryPos/4QAHKrP74CluoGgebLF+wWL4wMCxQVjB7lSMEIuc2YCq1F2WnD0e1juSUmbpmZSW5O9tE7IoZ6u0kwQG514/0AVgACzyAA5PYZYMDHgMAzCPQ97PRY7eThbC9k0zFi+la7VCqTGO9lT/6pUqTWpmOcDJSTiXAoCIcGs2nC/Kz9URGOtlYon6NRq8i4FqySeobDwMeAgG4QAHKrG34AVugPAZVSGb1zm7X5vNO0lBG5JbSWLFMykoxy0lFSblEuDeHQhOwsiJG+3tMlLMjv7i3yaAuwIll/3h9g6awlAOR21roedPzVCTCzqN99+fmpY/sxHoPclkMZkVut6BJ/T1Kkq41ridAW41JRLpHZHuZkJx2KcbSxYDNoCskgGd2+el/AnYAAIDA9BIDcTg9n8BSDIiAuL/vuqzm7I0JhiI5A2sMuiOlbjFg8nIkSk6wZKCcdgdJer6Qj7HSyNWKRFMalodwsmJMFMdL8PZ191jr9eP0K0FqDerFAZwyaAJBbg3Yv6NzUELjb0mJhYuTnsbowjw5DOVrFJc+7IM57IlK+szNhdgYMaUs6DD2npMHQuDKmMjuDWI3MoSIcKsrNQrnZCJeedCjGfO6XlOTjCukgWI08NR4GrQICk08AyO3kMwUtGjwBSV+fp6uri8Pywnwmzs8X8U7jXBYK0ZH8LJidBbOJ1Uwwmzj+CWZTUIgyEqFqA99xfxNx8BjF1WotqdPsDJidSQ5W0xAoC+XScT4D5tDDAjxWLrO6dr4JrJAy+DcNdNCQCAC5NSRvgr5MEwG1SnUgOnqhqfGRfXvpaSkQnVqQSy/IzRacpsPsHJTDRDksnMsU8VkiPhPn5WC8bJQYCqZhvCyMR8N4NJSYiNUWCsolCkIsPCYKDI0UIkqmkoc1ZiMQHeEyUC6LknzY3nr+8YS9sqG+aeoteAwgAAhMBgEgt5NBEbQx+wgIeXxLc/PFC+a7Oa0M8vYM8V0X4uu1JWh9dET4wT07ju2PST9xKCc9KT87jc+iCvKzMB5DVMAqFp4uErBEBSycz8T5DLLk4PwcjEfXFoQYLs7SFpiTJSRy/uQI2QwYYiKcXF4uPTzIz97G8ly9mEhIAP4AAoCA/hAAcqs/vgKW6hKBhx0dWekZ9jY2Aeu8kw4lxO7YHhaw3tvV2dXezmGxlZ2lhb31ohW21qvsFnu5OgatWxsR4h+zPfxQ3I6TR+IoJw/n0pJ5LArCZRYJ8oqE+doiEuThBafxwlyMz8L4DJTHgDlMAZtZmM8UsHOFUF5WarKTne2e7dukQ4O6BAPYAggAAi8mAOT2xYxADUDgpwTUKtXD9o7NISEnjx7t6uxsb2u7e+dOS3PzpabGqiIc5kIMSkZiQnzczsiN673dnR2XWZpbGH9rYfztIrO51guMli4ydbKz9FrtGBrgGbUtJCFuZ8qxA5RTR1m0UxwWtZCdjXCZeGEeVsAmCh/CCjgIFzqwJ2qVvV1FEf5Te8AngAAgoOMEgNzquIOAebpLQK1Uxe/du2PLVrVMPmylWq1SKuRSqWRwsK+391FX14OO9rstN364fP5cvbiqBEML2Kys9NTEw/Gxu3ZvCwvb4BPos9Z7rdMap2XODjauK5a6Odt7rV7p7706JMB7a2jg7ojwfVE7jhyIO3n08PGE+DWrnCK3bHrU0aG7UIBlgAAg8AwCQG6fAQZ8DAhMgEAuPcdj9Zr21rvPq6smRFipkMtlUsnQYH9fb0/3o67OBx1tt+/cvHr90pmm2srKYlQk5PHzmaysjPSTx44ciIvZtS0iPDjQ19vX0819tbPLCsdVDsvtl9qyc1kKkP/nebjBd4CAjhIAcqujjgFm6QWBumqxy0qnipLSV7KWkGGVUqGQy2RSiWRocHBAq8UPuzra2u/evnPrRvOVy5fOna0XV4sQmJmdxWXnt7W2alRgkdQr8QY3AQIzSgDI7YziBw/XcwL3W+96rXU7ceToC/rx0quI1Rq1Sq1SqZRKrRxLhob6ensH+vtVSuULngW+BgQAAZ0kAORWJ90CjNITAvLBobDgjRv8A55przYt3hPh6FM+eubt4AtAABAwFAJAbg3Fk6AfM0JArU46eszaYmFH2/0ZeT54KCAACOgLASC3+uIpYKeOEkALhXO//qZMVKSj9gGzAAFAQDcIALnVDT8AK/SWwI1rzYvMF7x4+lZvOwgMBwQAgUkhAOR2UjCCRmYvgaH+IR9Pr/XrfAb7B2YvBdBzQAAQeBEBILcvIgS+BwSeS0CtVp88kWRlseiHa83PrQi+BAQAgVlNAMjtrHY/6PykEKgsrzSZZyJCRZPSGmgEEAAEDJIAkFuDdCvo1LQSaG9rX2az7FTyKbVqWp8LHgYIAAJ6RADIrR45C5iqowSUSuXmsM1bN0cM9oFEPTrqI2AWIDDjBIDczrgLgAGGQICaSfVw82y93WoInQF9AAQAgSkgAOR2CqCCJmcfgfqa+pWOTuJK8ezrOugxIAAITIgAkNsJYQKVAIHnE3jQ/sDDzZORzdCA6dvnkwLfAgKzlQCQ29nqedDvSSUgGZBs3bQ1dk+sZFAyqQ2DxgABQMBACAC5NRBHgm7MLAG1Sn3s8DFvT++O+yD3+8y6AjwdENBRAkBuddQxwCy9IwAL4BX2K842ntU7y4HBgAAgMA0E/g9qxRDREb2rKgAAAABJRU5ErkJggg==;" vertex="1" parent="1">
          <mxGeometry x="130" y="120" width="634" height="504" as="geometry" />
        </mxCell>
      </root>
    </mxGraphModel>
  </diagram>
</mxfile>
